<svg xmlns="http://www.w3.org/2000/svg" width="20" height="20" viewBox="0 0 20 20">
    <g fill="#057DBC" fill-rule="nonzero">
        <path d="M19 4h-5V2.33A2.42 2.42 0 0 0 11.5 0h-3A2.42 2.42 0 0 0 6 2.33V4H1a1 1 0 1 0 0 2h1v11a3 3 0 0 0 3 3h10a3 3 0 0 0 3-3V6h1a1 1 0 0 0 0-2zM8 2.33c0-.16.21-.33.5-.33h3c.29 0 .5.17.5.33V4H8V2.33zM16 17a1 1 0 0 1-1 1H5a1 1 0 0 1-1-1V6h12v11z"/>
        <path d="M7 15a1 1 0 0 0 1-1v-4a1 1 0 0 0-2 0v4a1 1 0 0 0 1 1zM13 15a1 1 0 0 0 1-1v-4a1 1 0 0 0-2 0v4a1 1 0 0 0 1 1z"/>
    </g>
</svg>
