<?xml version="1.0" encoding="UTF-8"?>
<svg
   xmlns="http://www.w3.org/2000/svg"
   xmlns:xlink="http://www.w3.org/1999/xlink" viewBox="0 0 793 509">
   <defs>
      <style>.cls-home-ill-1{isolation:isolate;}.cls-home-ill-2{fill:#e2eaf5;}.cls-home-ill-3,.cls-home-ill-5,.cls-home-ill-6{fill:#b2c2d3;}.cls-home-ill-4{fill:none;stroke-width:3px;}.cls-home-ill-4,.cls-home-ill-5,.cls-home-ill-6{stroke:#b2c2d3;stroke-miterlimit:10;}.cls-home-ill-5{stroke-width:0.5px;}.cls-home-ill-7{fill:#242240;}.cls-home-ill-8{fill:#efefef;}.cls-home-ill-12,.cls-home-ill-41,.cls-home-ill-9{fill:#fff;}.cls-home-ill-10{fill:#e0e0e0;}.cls-home-ill-11{fill:#383851;}.cls-home-ill-12{opacity:0.1;}.cls-home-ill-13{fill:#282741;}.cls-home-ill-14{fill:#ee534f;}.cls-home-ill-15{fill:#ff5f5f;}.cls-home-ill-16{fill:#a5a5a5;}.cls-home-ill-17{fill:#ffbe83;}.cls-home-ill-18{fill:#6b3000;}.cls-home-ill-19{fill:url(#linear-gradient);}.cls-home-ill-20{fill:#191716;}.cls-home-ill-21{fill:#6d3d18;}.cls-home-ill-22,.cls-home-ill-23,.cls-home-ill-24,.cls-home-ill-25,.cls-home-ill-39,.cls-home-ill-40,.cls-home-ill-41{mix-blend-mode:screen;}.cls-home-ill-22{fill:url(#linear-gradient-2);}.cls-home-ill-23{fill:url(#linear-gradient-3);}.cls-home-ill-24{fill:url(#linear-gradient-4);}.cls-home-ill-25{fill:url(#linear-gradient-5);}.cls-home-ill-26{fill:#f29a39;}.cls-home-ill-27{fill:#ffa64d;}.cls-home-ill-28{fill:#323d42;}.cls-home-ill-29{fill:#682310;}.cls-home-ill-30{fill:#d99d6f;}.cls-home-ill-31{fill:#e2e2e2;}.cls-home-ill-32{fill:#231f20;}.cls-home-ill-33{fill:url(#linear-gradient-6);}.cls-home-ill-34{fill:#302e49;}.cls-home-ill-35{fill:url(#linear-gradient-7);}.cls-home-ill-36{fill:#1e2428;}.cls-home-ill-37{fill:#eaeaea;}.cls-home-ill-38{fill:#7f3b09;}.cls-home-ill-39{fill:url(#linear-gradient-8);}.cls-home-ill-40{fill:url(#linear-gradient-9);}.cls-home-ill-42{fill:#3c2415;}.cls-home-ill-43{fill:#603913;}.cls-home-ill-44{fill:#ffb878;}.cls-home-ill-45{fill:#7986cc;}.cls-home-ill-46{fill:#909fe0;}.cls-home-ill-47{fill:#6b3109;}.cls-home-ill-48{fill:#eb5d46;}.cls-home-ill-49{fill:url(#linear-gradient-10);}.cls-home-ill-50{fill:#343251;}.cls-home-ill-51{fill:#e09b63;}.cls-home-ill-52{fill:#ffa938;}.cls-home-ill-53{fill:#ff9c13;}.cls-home-ill-54{fill:url(#linear-gradient-11);}</style>
      <linearGradient id="linear-gradient" x1="4189.39" y1="297.46" x2="4191.83" y2="293.2" gradientTransform="matrix(-1, 0, 0, 1, 4424.42, 0)" gradientUnits="userSpaceOnUse">
         <stop offset="0" stop-color="#ffa566" />
         <stop offset="1" stop-color="#ffbe83" />
      </linearGradient>
      <linearGradient id="linear-gradient-2" x1="4166.91" y1="341.42" x2="4177.43" y2="325.81" gradientTransform="matrix(-1, 0, 0, 1, 4424.42, 0)" gradientUnits="userSpaceOnUse">
         <stop offset="0" stop-color="#808285" />
         <stop offset="0.09" stop-color="#67696b" />
         <stop offset="0.25" stop-color="#424345" />
         <stop offset="0.41" stop-color="#252627" />
         <stop offset="0.57" stop-color="#111" />
         <stop offset="0.72" stop-color="#040404" />
         <stop offset="0.86" />
      </linearGradient>
      <linearGradient id="linear-gradient-3" x1="2188.85" y1="2092.94" x2="2089.72" y2="2135.43" gradientTransform="matrix(0.13, -0.99, -0.99, -0.13, 2302.51, 2762.28)" gradientUnits="userSpaceOnUse">
         <stop offset="0" stop-color="#fff" />
         <stop offset="0.12" stop-color="#dedede" />
         <stop offset="0.56" stop-color="#686868" />
         <stop offset="0.86" stop-color="#1d1d1d" />
         <stop offset="1" />
      </linearGradient>
      <linearGradient id="linear-gradient-4" x1="483.24" y1="321.51" x2="416.41" y2="416.63" gradientTransform="matrix(0.69, 0.72, -0.72, 0.69, 429.33, -206.45)" xlink:href="#linear-gradient-3" />
      <linearGradient id="linear-gradient-5" x1="475.37" y1="332.06" x2="456.38" y2="359.08" gradientTransform="translate(262.4 -185.93) rotate(30.52)" xlink:href="#linear-gradient-3" />
      <linearGradient id="linear-gradient-6" x1="166.54" y1="297.19" x2="165.52" y2="289.39" gradientUnits="userSpaceOnUse">
         <stop offset="0" stop-color="#ffa56a" />
         <stop offset="1" stop-color="#ffbe83" />
      </linearGradient>
      <linearGradient id="linear-gradient-7" x1="2355.79" y1="554.48" x2="2353.33" y2="547.31" gradientTransform="matrix(-0.95, -0.33, -0.33, 0.95, 3007.63, 510.35)" xlink:href="#linear-gradient-6" />
      <linearGradient id="linear-gradient-8" x1="2359.76" y1="547.14" x2="2357.7" y2="550.86" gradientTransform="matrix(-0.95, -0.33, -0.33, 0.95, 3007.63, 510.35)" xlink:href="#linear-gradient-3" />
      <linearGradient id="linear-gradient-9" x1="2351.19" y1="547.17" x2="2349.3" y2="550.96" gradientTransform="matrix(-0.95, -0.33, -0.33, 0.95, 3007.63, 510.35)" xlink:href="#linear-gradient-3" />
      <linearGradient id="linear-gradient-10" x1="-2798.71" y1="-568.9" x2="-2795.05" y2="-576.08" gradientTransform="matrix(0.94, -0.35, 0.35, 0.94, 3509.47, -148.75)" gradientUnits="userSpaceOnUse">
         <stop offset="0" stop-color="#ff9d67" />
         <stop offset="1" stop-color="#ffb878" />
      </linearGradient>
      <linearGradient id="linear-gradient-11" x1="-1140.91" y1="358.79" x2="-1143.38" y2="353.45" gradientTransform="matrix(0.99, 0.13, -0.14, 1.06, 1273.36, 116.06)" xlink:href="#linear-gradient-6" />
   </defs>
   <title>illustration-713x509</title>
   <g class="cls-home-ill-1">
      <g id="Calque_1" data-name="Calque 1">
         <rect class="cls-home-ill-2" x="0.1" y="0.13" width="793.21" height="509" />
         <path class="cls-home-ill-3" d="M725.39,202.71H716.6a1,1,0,0,0-.69.29.94.94,0,0,0-.29.69v4.89h-2.5a3.84,3.84,0,0,0,.54-2v-7.81a3.9,3.9,0,0,0-1.75-3.26l-7.67-5.12,1.78-5.87,2.32,3.25a2.9,2.9,0,0,0,2.38,1.22h7.82a2.93,2.93,0,1,0,0-5.86h-6.31l-4-5.61a2.92,2.92,0,0,0-.87-.81,5.85,5.85,0,1,0-6.66-1.18l-1.28-.19a2.63,2.63,0,0,0-.41,0,3,3,0,0,0-1.56.45l-7.81,4.89a2.84,2.84,0,0,0-1.07,1.18l-3.91,7.81a2.87,2.87,0,0,0-.31,1.31s0,.1,0,.16l-3.43-2a1,1,0,0,0-1.33.36l-3.91,6.77a1,1,0,0,0,.36,1.34l10.15,5.86a1,1,0,0,0,.49.13,1,1,0,0,0,.25,0,.94.94,0,0,0,.59-.46l3.91-6.77a.92.92,0,0,0,.1-.74,1,1,0,0,0-.45-.59l-2.48-1.43a3,3,0,0,0,1.3-1.3s0,0,0-.05l3.51-7,2.73-1.71-1.87,6.16a4.79,4.79,0,0,0-.16,1.12.88.88,0,0,0,0,.2v11.87l-3.57,8a3.83,3.83,0,0,0,.2,3.54H682.4a1,1,0,1,0,0,1.95h24.42a1,1,0,0,0,1-1v-4.89h8.8a1,1,0,0,0,.69-.29,1,1,0,0,0,.28-.69v-4.88h7.82a1,1,0,1,0,0-2Zm-39.06-1.4-8.46-4.89,2.93-5.07,8.46,4.88Zm18.54-33.77a3.91,3.91,0,1,1-3.91,3.91A3.92,3.92,0,0,1,704.87,167.54Zm-12.53,44.15,3.65-8.23.09-.39v-12s0-.07,0-.11a3.19,3.19,0,0,1,.09-.74l2.62-8.62a1,1,0,0,0-.34-1.06,1,1,0,0,0-1.11-.05l-5.18,3.23a1,1,0,0,0-.35.39l-3.66,7.33,0,0a1,1,0,0,1-.86.51,1.06,1.06,0,0,1-.44-.11,1,1,0,0,1-.53-.87,1,1,0,0,1,.1-.44l3.91-7.81a.89.89,0,0,1,.35-.39l7.82-4.89a1,1,0,0,1,.52-.15h.13l6.85,1a1,1,0,0,1,.65.41l4.3,6a1,1,0,0,0,.8.41h6.81a1,1,0,1,1,0,2h-7.82a1,1,0,0,1-.79-.41l-3.47-4.86a1,1,0,0,0-1-.39,1,1,0,0,0-.77.68l-2.57,8.46a1,1,0,0,0,.39,1.09l8.28,5.53a1.93,1.93,0,0,1,.87,1.63v7.81a2,2,0,0,1-1.94,2h0a2,2,0,0,1-2-2v-6.25a1,1,0,0,0-.44-.81l-5.85-3.91a1,1,0,0,0-1-.05,1,1,0,0,0-.51.86v7.23a2,2,0,0,1-.17.79l-3.91,8.8a2,2,0,0,1-1.79,1.16,1.88,1.88,0,0,1-.79-.17,2,2,0,0,1-1.16-1.79A1.88,1.88,0,0,1,692.34,211.69Zm13.51-2.14v4.89H697.5a2.58,2.58,0,0,0,.19-.37l3.91-8.79a3.82,3.82,0,0,0,.34-1.59v-5.4l3.91,2.6v5.73a3.83,3.83,0,0,0,.59,2,1,1,0,0,0-.31.2A1,1,0,0,0,705.85,209.55Z" />
         <g id="Calque_31" data-name="Calque 31">
            <path class="cls-home-ill-4" d="M713.91,98.08c3.73-2.49,8.08.23,8.08.23l15.5,11v2.48h-62.1v-2.48l15.5-10.94s4.3-2.72,8.08-.23" />
            <path class="cls-home-ill-4" d="M737.49,111.74c-2.47,14.91-13.64,13.7-13.64,13.7-11.2,0-12.43-12.43-12.43-12.43,0-3.73-5-3.73-5-3.73s-5,0-5,3.73c0,0-1.24,12.43-12.43,12.43,0,0-11.19,1.24-13.66-13.67" />
            <path class="cls-home-ill-3" d="M682.37,96.65a1.32,1.32,0,0,1-1.19-1.43s0-.08,0-.11A1.31,1.31,0,0,1,682.66,94l.12,0a1.34,1.34,0,1,1-.17,2.67Z" />
            <path class="cls-home-ill-3" d="M683.14,92.57a1.32,1.32,0,0,1-.89-1.64l0-.09a1.41,1.41,0,1,1,1,1.76Z" />
            <path class="cls-home-ill-3" d="M684.65,88.66a1.34,1.34,0,0,1-.6-1.78l0-.07a1.41,1.41,0,0,1,2.46,1.38,1.32,1.32,0,0,1-1.79.53Z" />
            <path class="cls-home-ill-3" d="M686.82,85.08a1.32,1.32,0,0,1-.33-1.83l.08-.1a1.41,1.41,0,1,1,.31,2Z" />
            <path class="cls-home-ill-3" d="M689.58,81.91a1.32,1.32,0,0,1,0-1.87.27.27,0,0,1,.08-.07,1.41,1.41,0,1,1,0,2A.12.12,0,0,1,689.58,81.91Z" />
            <path class="cls-home-ill-3" d="M692.82,79.29a1.33,1.33,0,0,1,.32-1.85l.09-.06a1.41,1.41,0,1,1-.38,2Z" />
            <path class="cls-home-ill-3" d="M696.46,77.26a1.32,1.32,0,0,1,.69-1.75l0,0a1.3,1.3,0,0,1,1.69.76l0,.1a1.33,1.33,0,1,1-2.41,1.13.77.77,0,0,1-.07-.16Z" />
            <path class="cls-home-ill-3" d="M700.46,75.88a1.31,1.31,0,0,1,.92-1.62l.11,0a1.32,1.32,0,0,1,1.54,1s0,0,0,.08a1.34,1.34,0,1,1-2.5.94A1.15,1.15,0,0,1,700.46,75.88Z" />
            <path class="cls-home-ill-3" d="M704.56,75.21a1.33,1.33,0,0,1,1.21-1.44h.1A1.31,1.31,0,0,1,707.23,75a.49.49,0,0,1,0,.12,1.33,1.33,0,1,1-2.65.26A1.41,1.41,0,0,1,704.56,75.21Z" />
            <path class="cls-home-ill-3" d="M708.77,75.26a1.32,1.32,0,0,1,1.43-1.21h.1a1.31,1.31,0,0,1,1.12,1.46l0,.12a1.33,1.33,0,1,1-2.66-.23l0-.16Z" />
            <path class="cls-home-ill-3" d="M712.86,76a1.32,1.32,0,0,1,1.62-.94l.1,0a1.3,1.3,0,0,1,.83,1.65.14.14,0,0,1,0,.07,1.34,1.34,0,1,1-2.57-.73.69.69,0,0,1,0-.13Z" />
            <path class="cls-home-ill-3" d="M716.76,77.49a1.32,1.32,0,0,1,1.76-.65l.09,0a1.41,1.41,0,1,1-1.88.67Z" />
            <path class="cls-home-ill-3" d="M720.39,79.63a1.34,1.34,0,0,1,1.85-.34l.08.07a1.41,1.41,0,1,1-2,.33Z" />
            <path class="cls-home-ill-3" d="M723.56,82.34a1.33,1.33,0,0,1,1.88,0l.07.08a1.41,1.41,0,1,1-2,0Z" />
            <path class="cls-home-ill-3" d="M726.22,85.54a1.32,1.32,0,0,1,1.85.31l.06.08a1.41,1.41,0,1,1-2-.35Z" />
            <path class="cls-home-ill-3" d="M728.31,89.18a1.33,1.33,0,0,1,1.77.61s0,.07,0,.11a1.41,1.41,0,1,1-1.87-.69Z" />
            <path class="cls-home-ill-3" d="M729.74,93.13a1.33,1.33,0,0,1,1.63.92s0,.06,0,.09a1.42,1.42,0,0,1-2.77.57,1.33,1.33,0,0,1,1-1.57Z" />
         </g>
         <path class="cls-home-ill-3" d="M741.46,148.49a.9.9,0,1,1-.9-.89A.9.9,0,0,1,741.46,148.49Z" />
         <path class="cls-home-ill-3" d="M740.11,163.26a1.15,1.15,0,1,1-1.15-1.14A1.14,1.14,0,0,1,740.11,163.26Z" />
         <path class="cls-home-ill-3" d="M758.67,171.34a1,1,0,1,1-1-1A1,1,0,0,1,758.67,171.34Z" />
         <path class="cls-home-ill-3" d="M748.62,179.27a1.75,1.75,0,1,1-1.74-1.75A1.74,1.74,0,0,1,748.62,179.27Z" />
         <path class="cls-home-ill-3" d="M754.79,192.24a.68.68,0,1,1-.68-.67A.67.67,0,0,1,754.79,192.24Z" />
         <path class="cls-home-ill-3" d="M773,155.66a.67.67,0,1,1-.67-.67A.67.67,0,0,1,773,155.66Z" />
         <path class="cls-home-ill-3" d="M754.58,153a.47.47,0,1,1-.47-.47A.47.47,0,0,1,754.58,153Z" />
         <path class="cls-home-ill-3" d="M764.61,143.49a.47.47,0,1,1-.46-.46A.47.47,0,0,1,764.61,143.49Z" />
         <path class="cls-home-ill-3" d="M726.49,161.53a.47.47,0,0,1-.47.47.47.47,0,0,1,0-.93A.47.47,0,0,1,726.49,161.53Z" />
         <path class="cls-home-ill-3" d="M767.43,179.23a1.14,1.14,0,1,1-1.14-1.14A1.14,1.14,0,0,1,767.43,179.23Z" />
         <path class="cls-home-ill-3" d="M765.53,160.73a1.39,1.39,0,1,1-1.38-1.38A1.38,1.38,0,0,1,765.53,160.73Z" />
         <path class="cls-home-ill-3" d="M43.11,393.92s18.23-39.6,39.71-40.17,33,16.61,45.47,16.61S160.66,246,214.18,240.81s69.14,49.33,95.18,46.62,36.81-65.33,63.32-71.8,35.48,50,60.94,53.75S468.2,195,507.26,195s53,89.44,80.88,104.45,33,8.37,60.38,5.24,37.76,50.11,52.08,56.74,28.65-5.13,43.62,2.37,21.48,30.16,21.48,30.16Z" />
         <path class="cls-home-ill-3" d="M636.51,131.66a3.31,3.31,0,0,0-2.31-.72,8.41,8.41,0,0,0-5.73,2.4L621,140.77l-25-5.5a.84.84,0,0,0-.79.23l-2.58,2.58a.85.85,0,0,0,.2,1.37l19.24,10.22-8.83,8.83h-6.56a.86.86,0,0,0-.61.25l-3.44,3.44a.86.86,0,0,0,.28,1.41l7.4,3-2.52,2.52a.88.88,0,0,0,0,1.22.87.87,0,0,0,1.22,0l2.52-2.52,3,7.4a.84.84,0,0,0,.63.52.5.5,0,0,0,.17,0,.86.86,0,0,0,.61-.25l3.44-3.45a.83.83,0,0,0,.26-.6v-6.57l8.82-8.82,10.22,19.23a.88.88,0,0,0,.64.45h.12a.86.86,0,0,0,.61-.25l2.59-2.58a.9.9,0,0,0,.23-.8l-5.5-25,7.42-7.43C637.48,137,637.76,132.9,636.51,131.66Zm-41.77,6.82,1.42-1.43,23.43,5.16-6.18,6.19ZM631.11,172l-1.42,1.43-9.92-18.68,6.18-6.18Zm-22.91-8.11a.87.87,0,0,0-.26.61v6.56l-2.26,2.27-2.75-6.87,4.76-4.77a.86.86,0,0,0,0-1.22.88.88,0,0,0-1.22,0l-4.76,4.77-6.87-2.75,2.27-2.27h6.56a.86.86,0,0,0,.61-.25l25.4-25.41a6.74,6.74,0,0,1,4.52-1.9,2,2,0,0,1,1.09.21c.44.48.36,3.56-1.69,5.61Z" />
         <path class="cls-home-ill-3" d="M630.33,135.25a.86.86,0,0,0,0,1.72.87.87,0,0,1,.87.86.86.86,0,1,0,1.72,0A2.59,2.59,0,0,0,630.33,135.25Z" />
         <path class="cls-home-ill-3" d="M601.06,155.05a.82.82,0,0,0,.6-.25l5.17-5.17a.85.85,0,0,0,0-1.21.86.86,0,0,0-1.22,0l-5.16,5.16a.86.86,0,0,0,0,1.22A.82.82,0,0,0,601.06,155.05Z" />
         <path class="cls-home-ill-3" d="M598.72,145l-5.16,5.17a.86.86,0,0,0,0,1.22.9.9,0,0,0,.61.25.86.86,0,0,0,.6-.25l5.17-5.17a.86.86,0,0,0,0-1.22A.88.88,0,0,0,598.72,145Z" />
         <path class="cls-home-ill-3" d="M622,168.22l-5.17,5.17a.86.86,0,0,0,1.22,1.22l5.16-5.17a.86.86,0,1,0-1.21-1.22Z" />
         <path class="cls-home-ill-3" d="M619.75,161.33a.88.88,0,0,0-1.22,0l-5.17,5.17a.88.88,0,0,0,0,1.22.87.87,0,0,0,1.22,0l5.17-5.17A.88.88,0,0,0,619.75,161.33Z" />
         <path class="cls-home-ill-3" d="M97,178.06a29.84,29.84,0,1,1,14.81-55.74,1.57,1.57,0,0,1-1.56,2.73,26.69,26.69,0,1,0,12.6,29.86,1.57,1.57,0,1,1,3,.79A29.82,29.82,0,0,1,97,178.06Z" />
         <path class="cls-home-ill-3" d="M106.44,159.32c-.44-2-2.26-3.07-4-4.06a13.12,13.12,0,0,1-2.75-1.86c-4.7-4.71-8.27-4-9.36-3.57a6.16,6.16,0,0,0-3.07,1.44c-1.3-.44-4.38-2.68-4.38-4.61a1.58,1.58,0,0,0-.65-1.28,1.59,1.59,0,0,0-1.42-.21c-.71.23-1.29.24-1.5,0a1.09,1.09,0,0,1-.1-1.06.84.84,0,0,1,.68-.61c.35,0,2.72,0,4.14,0h2c2.72,0,4.71-4.14,4.71-6.28,0-.75-.06-1.32-.1-1.79a4.16,4.16,0,0,1,0-.69s.16-.28,1.09-1c3.08-2.31,4-3,3.68-4.37-.3-1.18-1.44-1.36-2.19-1.48a4.8,4.8,0,0,1-2.89-1.23c-.93-.93-2-1.83-3.31-1.44a2.68,2.68,0,0,0-1.61,2.42.5.5,0,0,0,0,.12c-1-.06-1.68-.39-2.62-2.26a1.57,1.57,0,1,0-2.8,1.41c1.85,3.7,3.94,4,6.11,4a2.29,2.29,0,0,0,2.22-1.84,7,7,0,0,0,2.47,1.46c-.34.27-.68.51-.92.7-2.18,1.64-2.49,2.56-2.29,4.5a13.22,13.22,0,0,1,.09,1.47A5.34,5.34,0,0,1,86,140.38H84c-3,0-4.12,0-4.46,0a3.94,3.94,0,0,0-3.33,2.68,4.32,4.32,0,0,0-.12,2.56,3,3,0,0,1-1.1-.54h0c0-2-2.52-4.74-3.6-5.82l-2.22,2.21a12,12,0,0,1,2.68,3.61c0,1.55,1.13,4.14,8.58,4.18a11.47,11.47,0,0,0,4.94,4.6,13.33,13.33,0,0,0-1,5.35,1.62,1.62,0,0,0,.08.49,21.16,21.16,0,0,0,2.57,5c1.15,1.77,2.06,3.18,2.06,5.49a10.13,10.13,0,0,0,1.2,5.48,1.57,1.57,0,1,0,2.73-1.55c-.3-.52-.79-1.39-.79-3.93,0-3.24-1.3-5.25-2.56-7.2a19,19,0,0,1-2.15-4c.08-5.71,2.86-6,3.14-6a1.86,1.86,0,0,0,.65-.15c.1,0,2.36-.9,6.09,2.83a15.3,15.3,0,0,0,3.44,2.38c1.21.67,2.34,1.31,2.49,2,.07.35,0,1.21-1.36,3a17,17,0,0,1-4,3.95c-2,1.47-3.15,2.55-4.17,7.67a1.57,1.57,0,0,0,1.23,1.85l.31,0A1.57,1.57,0,0,0,97,175.23c.84-4.19,1.5-4.68,3-5.77a20.43,20.43,0,0,0,4.6-4.59C106.16,162.67,106.77,160.91,106.44,159.32Z" />
         <path class="cls-home-ill-3" d="M114.25,156.08h0c-.88,0-8.57-4.15-12.7-9.7-2.77-3.72-3.63-7.47-2.54-11.16,1.6-5.47,5.83-7.41,9-7.41a9.35,9.35,0,0,1,6.28,2.41,9.35,9.35,0,0,1,6.28-2.41c3.13,0,7.36,1.94,9,7.41,1.43,4.85.17,12.3-13.89,20.31l-.39.22A1.58,1.58,0,0,1,114.25,156.08ZM108,131c-2.15,0-4.84,1.36-6,5.16-2.37,8,9.21,15,12.18,16.61,9.49-5.43,13.85-11.33,12.3-16.61-1.12-3.8-3.81-5.16-6-5.16a6.26,6.26,0,0,0-5,2.48,1.71,1.71,0,0,1-1.29.67h0a1.71,1.71,0,0,1-1.29-.67A6.3,6.3,0,0,0,108,131Z" />
         <path class="cls-home-ill-5" d="M195.1,196.33h-2.2a.71.71,0,0,0-.71.71v9.24a1.61,1.61,0,0,0-.52.52H180.88a6.32,6.32,0,0,0-6.21-5.24.72.72,0,0,0,0,1.43,4.86,4.86,0,0,1,4.85,4.48v3.65a4.22,4.22,0,0,0,4.22,4.22h4.79l3.37,3.37-1.53,1.53a.71.71,0,0,0,0,1,.69.69,0,0,0,.5.2.72.72,0,0,0,.51-.2l1.53-1.53,1.52,1.53a.72.72,0,0,0,.51.2.69.69,0,0,0,.5-.2.71.71,0,0,0,0-1l-1.53-1.53,3.37-3.37h4.79a4.22,4.22,0,0,0,4.22-4.22v-3.61A11.2,11.2,0,0,0,195.1,196.33Zm0,1.42a9.78,9.78,0,0,1,9.74,9.05h-10.7a1.61,1.61,0,0,0-.52-.52v-8.53Zm-2.19,19.95-2.36-2.36h4.71Zm12-6.58a2.8,2.8,0,0,1-2.79,2.8H183.74a2.8,2.8,0,0,1-2.79-2.8v-2.89h10.72a1.43,1.43,0,0,0,2.47,0h10.72Z" />
         <path class="cls-home-ill-5" d="M201.59,219.16a4.7,4.7,0,1,0,4.7,4.7A4.7,4.7,0,0,0,201.59,219.16Zm0,8a3.28,3.28,0,1,1,3.27-3.27A3.28,3.28,0,0,1,201.59,227.13Z" />
         <path class="cls-home-ill-5" d="M184.22,219.16a4.7,4.7,0,1,0,4.7,4.7A4.7,4.7,0,0,0,184.22,219.16Zm0,8a3.28,3.28,0,1,1,3.28-3.27A3.27,3.27,0,0,1,184.22,227.13Z" />
         <path class="cls-home-ill-5" d="M192.9,210.4H184a.72.72,0,1,0,0,1.43h8.91a.72.72,0,1,0,0-1.43Z" />
         <path class="cls-home-ill-6" d="M145.9,224.14h0l-6.42-13a.52.52,0,0,0-.46-.28H113.34a.52.52,0,0,0-.46.28l-6.42,13h0a.54.54,0,0,0,0,.22v0h0a4.35,4.35,0,0,0,2.77,4v17.76h-2.39v1h38.78v-1h-2.39V228.41a4.35,4.35,0,0,0,2.77-4v0h0A.54.54,0,0,0,145.9,224.14Zm-7.2-12.26,5.92,12h-6.5l-3.42-12Zm-5.07,0,.4,1.39,3,10.57h-6.55l-.94-12Zm3.56,13a3.34,3.34,0,0,1-6.61,0Zm-13.37-13h4.73l.24,3.1.69,8.86h-6.6Zm5.66,13a3.34,3.34,0,0,1-6.6,0Zm-10.75-13h4.06l-.94,12H115.3l1.77-6.17Zm3,13a3.34,3.34,0,0,1-6.61,0Zm-8.12-13h4l-3.42,12h-6.5Zm-6.19,13h6.59a.25.25,0,0,0,0,.08l-.06.26c0,.12-.07.24-.11.35a2.56,2.56,0,0,1-.11.24,3.07,3.07,0,0,1-.17.31l-.15.22a1.94,1.94,0,0,1-.23.27,1.54,1.54,0,0,1-.17.19l-.28.23-.21.15-.33.18-.21.1-.41.13-.2,0a3,3,0,0,1-1.18,0l-.21-.05A3.33,3.33,0,0,1,107.47,224.87Zm16,17.44v3.86H116V232.84h7.53Zm18.64,3.86H124.55v-3.86h12.67v-9.47h1.63v-1H113.73v1H115v13.33H110.2V228.68a3.64,3.64,0,0,0,.57,0,4.8,4.8,0,0,0,.85-.08l.27-.08.52-.16.3-.15.42-.23.28-.21.36-.29.24-.26c.1-.12.2-.23.29-.35s.13-.2.19-.3l.14-.22a4.33,4.33,0,0,0,7.7,0,4.32,4.32,0,0,0,7.7,0,4.33,4.33,0,0,0,7.7,0l.14.21a3.21,3.21,0,0,0,.19.31c.09.12.19.23.29.34l.25.27.35.29.28.21.42.23.3.15.52.16.27.08a4.8,4.8,0,0,0,.85.08,3.64,3.64,0,0,0,.57,0Zm-17.61-4.88v-8.45H136.2v8.45Zm17.79-13.69-.21.05a3,3,0,0,1-1.18,0l-.21,0-.39-.13-.22-.11a2.55,2.55,0,0,1-.33-.17l-.21-.15a3.23,3.23,0,0,1-.27-.23l-.19-.19-.22-.27-.15-.22a3.07,3.07,0,0,1-.17-.31,2.56,2.56,0,0,1-.11-.24c0-.11-.07-.23-.11-.35l-.06-.26s0,0,0-.08h6.59A3.33,3.33,0,0,1,142.34,227.6Z" />
         <path class="cls-home-ill-5" d="M660.26,287.73a1.48,1.48,0,0,1-1.42-1,.54.54,0,0,0-.35-.35.9.9,0,0,0-.75.13,1.66,1.66,0,0,1-2-.06,1.63,1.63,0,0,1-.35-1.94.85.85,0,0,0,0-.73.56.56,0,0,0-.41-.29,1.49,1.49,0,0,1-1.21-1.27,2,2,0,0,1,1.09-2,1,1,0,0,0,.55-1.28,1.81,1.81,0,0,1,.3-2,1.88,1.88,0,0,1,2-.65,1.07,1.07,0,0,0,1.21-.74,2,2,0,0,1,1.84-1.39,1.46,1.46,0,0,1,1.45,1h0a.55.55,0,0,0,.36.35.88.88,0,0,0,.74-.13,1.66,1.66,0,0,1,2,.06,1.62,1.62,0,0,1,.36,1.94.85.85,0,0,0,0,.73.54.54,0,0,0,.41.29,1.48,1.48,0,0,1,1.2,1.27,2,2,0,0,1-1.09,2,1,1,0,0,0-.54,1.28,1.81,1.81,0,0,1-.31,2,1.86,1.86,0,0,1-2,.65,1.07,1.07,0,0,0-1.21.74,2,2,0,0,1-1.85,1.39Zm-2-2.26a1.51,1.51,0,0,1,.51.08,1.48,1.48,0,0,1,.92.89.57.57,0,0,0,.58.38,1.13,1.13,0,0,0,1-.77,2,2,0,0,1,2.34-1.32,1,1,0,0,0,1-.37.92.92,0,0,0,.19-1,1.93,1.93,0,0,1,.93-2.51,1.08,1.08,0,0,0,.61-1.08.54.54,0,0,0-.47-.5,1.5,1.5,0,0,1-1-.77,1.76,1.76,0,0,1,0-1.52.72.72,0,0,0-.12-.88.77.77,0,0,0-.94,0,1.81,1.81,0,0,1-1.52.22,1.45,1.45,0,0,1-.92-.89.56.56,0,0,0-.58-.38,1.12,1.12,0,0,0-1,.77,2,2,0,0,1-2.34,1.32,1,1,0,0,0-1,.37.92.92,0,0,0-.19,1,1.94,1.94,0,0,1-.94,2.51,1.08,1.08,0,0,0-.61,1.08.56.56,0,0,0,.48.5,1.5,1.5,0,0,1,1,.77,1.7,1.7,0,0,1,0,1.51.72.72,0,0,0,.12.89.75.75,0,0,0,.93,0A1.94,1.94,0,0,1,658.27,285.47Z" />
         <path class="cls-home-ill-5" d="M660.06,284a2.53,2.53,0,0,1-2.57-2.63,3.64,3.64,0,0,1,3-3.43,2.57,2.57,0,0,1,3.09,2.59,3.65,3.65,0,0,1-3,3.43A2.92,2.92,0,0,1,660.06,284Zm.89-5.19-.36,0a2.69,2.69,0,0,0-2.19,2.54,1.68,1.68,0,0,0,.57,1.32,1.74,1.74,0,0,0,1.45.36,2.7,2.7,0,0,0,2.2-2.54,1.69,1.69,0,0,0-.58-1.32A1.6,1.6,0,0,0,661,278.81Z" />
         <path class="cls-home-ill-5" d="M666.74,280.92l-.08-.91,8.71-.68a2.49,2.49,0,0,0,1.29-1.51,5.92,5.92,0,0,0-1.2-6.16,2.84,2.84,0,0,0-2.14-.77l-30.53,2.39-.07-.91L673.25,270a3.73,3.73,0,0,1,2.81,1c1.74,1.51,2.39,4.73,1.45,7.16a3.29,3.29,0,0,1-1.92,2.07l-.1,0Z" />
         <rect class="cls-home-ill-5" x="644.26" y="281.37" width="10.06" height="0.91" transform="translate(-20.07 51.7) rotate(-4.49)" />
         <polygon class="cls-home-ill-5" points="665.37 283.69 665.3 282.78 674.83 282.03 672.94 280.29 673.56 279.62 676.97 282.78 665.37 283.69" />
         <path class="cls-home-ill-5" d="M643.6,285.39l-.08,0a7.05,7.05,0,0,1-4.52-3.55,7.86,7.86,0,0,1,0-6.28,4.67,4.67,0,0,1,3.06-3.07,3.61,3.61,0,0,1,3.29.91,6.87,6.87,0,0,1,1.46,7.17,3.14,3.14,0,0,1-2.07,2.06,2.5,2.5,0,0,1-2.26-.62,4.49,4.49,0,0,1-1-4.77l.1-.27,2.79-.21.07.9-2.2.17a3.63,3.63,0,0,0,.81,3.49,1.58,1.58,0,0,0,1.44.43,2.27,2.27,0,0,0,1.44-1.51,5.9,5.9,0,0,0-1.2-6.15,2.75,2.75,0,0,0-2.49-.72,3.81,3.81,0,0,0-2.42,2.51,7,7,0,0,0,0,5.56,6.09,6.09,0,0,0,3.88,3.05l12.1-1,.08.91Z" />
         <path class="cls-home-ill-5" d="M657.43,293.53v-1c0-2.68.1-4.23.23-6.56l.91,0v0c-.12,2-.2,3.42-.23,5.47l2-1.84,1.62,1.5c0-2.15.13-3.81.25-5.85v-.09l.91.06v.09c-.13,2.33-.24,4.17-.25,6.82v1l-2.51-2.32Z" />
         <path class="cls-home-ill-5" d="M657.85,276.84a5.14,5.14,0,0,0-1.41-3.7,2.72,2.72,0,0,0-2-.77h-.1l-.08-.9h.12l4.41-.35a3.64,3.64,0,0,1,2.82,1,5.74,5.74,0,0,1,1.71,3.85l-.91.08a4.81,4.81,0,0,0-1.42-3.26,2.68,2.68,0,0,0-2.12-.77l-2.13.17a4.47,4.47,0,0,1,.35.29,6,6,0,0,1,1.7,4.28Z" />
         <path class="cls-home-ill-5" d="M183.5,122.57a5.16,5.16,0,0,0,5.17-5.16h0a5.17,5.17,0,1,0-5.17,5.16Zm0-8.61a3.45,3.45,0,0,1,3.45,3.45h0A3.45,3.45,0,1,1,183.5,114Zm-5.16,36.17a.85.85,0,0,0-.86.86v5.17a.85.85,0,0,0,.86.86.87.87,0,0,0,.86-.86V151A.86.86,0,0,0,178.34,150.13Zm10.33,0a.87.87,0,0,0-.86.86v5.17a.86.86,0,1,0,1.72,0V151A.86.86,0,0,0,188.67,150.13ZM199,131.89a.86.86,0,0,0-.85-.71H193v-4.1a3.9,3.9,0,0,0-2.67-3.7l-2.22-.76a.86.86,0,0,0-.89.2l-3.7,3.7-3.69-3.7a.86.86,0,0,0-.89-.2l-2.23.77a3.87,3.87,0,0,0-2.66,3.69v4.1h-5.17a.86.86,0,0,0-.84.71l-3.45,19a.88.88,0,0,0,.19.7.85.85,0,0,0,.66.31H174v4.31a.86.86,0,1,0,1.72,0v-6.89a2.6,2.6,0,0,1,2.59-2.59h10.33a2.59,2.59,0,0,1,2.58,2.59v6.89a.87.87,0,0,0,1.73,0v-4.31h8.61a.85.85,0,0,0,.66-.31.88.88,0,0,0,.19-.7Zm-23.24-4.81a2.17,2.17,0,0,1,1.49-2.06l1.73-.6,3.92,3.93a.88.88,0,0,0,.61.25.86.86,0,0,0,.61-.25l3.93-3.93,1.72.59a2.17,2.17,0,0,1,1.49,2.07v4.1h-1.72V128.6a.86.86,0,0,0-1.72,0v2.58H179.2V128.6a.86.86,0,0,0-.86-.86.85.85,0,0,0-.86.86v2.58h-1.73ZM183.5,145a3.45,3.45,0,1,1,3.45-3.44h0A3.45,3.45,0,0,1,183.5,145Zm9.48,5.17v-.86a4.31,4.31,0,0,0-4.31-4.31h-1.32a5.13,5.13,0,0,0,1.32-3.44h0a5.17,5.17,0,1,0-9,3.44h-1.32a4.31,4.31,0,0,0-4.31,4.31v.86h-7.58l3.13-17.23h27.84l3.14,17.23Z" />
         <path class="cls-home-ill-3" d="M636.13,236.77a.9.9,0,0,0-.9.9v2.57h-21.9V211.82h21.9v3.76a.9.9,0,0,0,1.8,0v-4.66a.91.91,0,0,0-.9-.9H612.44a.9.9,0,0,0-.9.9v30.22a.89.89,0,0,0,.9.89h23.69a.9.9,0,0,0,.9-.89v-3.47A.9.9,0,0,0,636.13,236.77Zm13.77-16.44L643.61,214a.89.89,0,0,0-1.26,0l-3.63,3.63a.91.91,0,0,0-.27.64.83.83,0,0,0,.21.54l-.4.38-5.57,1.39a.91.91,0,0,0-.65.64l-3.53,13.05a.89.89,0,0,0,.87,1.13l.23,0,13.28-3.59a.88.88,0,0,0,.64-.67l1.19-5.48.37-.38a.9.9,0,0,0,.55.2.89.89,0,0,0,.63-.26l3.63-3.63A.9.9,0,0,0,649.9,220.33Zm-6.65,4.29a1,1,0,0,0-.23.43l-1.13,5.18-11.24,3,3-11,5.28-1.32a.86.86,0,0,0,.4-.21l.59-.56,3.9,3.89Zm2.39-1.29-5-5L643,216l5,5ZM636.58,225a1.68,1.68,0,0,0-.33,1.9l-2.81,2.81a.59.59,0,0,0,0,.85.6.6,0,0,0,.84,0l2.81-2.81a1.67,1.67,0,0,0,.7.16h0a1.72,1.72,0,0,0,1.21-.5,1.74,1.74,0,0,0,.5-1.21,1.71,1.71,0,0,0-2.92-1.2Zm-5-7.63a.89.89,0,0,0-.9-.89H617.9a.9.9,0,0,0,0,1.79h12.76A.9.9,0,0,0,631.56,217.32Zm-4.24,3.12H617.9a.9.9,0,0,0,0,1.8h9.42a.9.9,0,0,0,0-1.8Zm.89,4.91a.89.89,0,0,0-.89-.89H617.9a.9.9,0,0,0,0,1.79h9.42A.89.89,0,0,0,628.21,225.35ZM617.9,234a.9.9,0,0,0,0,1.79h6.38a.9.9,0,1,0,0-1.79Z" />
         <path class="cls-home-ill-3" d="M96.41,261.75a.83.83,0,0,1-.61-.26.86.86,0,0,1-.2-.91l5.16-13.47a30.24,30.24,0,1,1,9.93,9.23l-14,5.35A.8.8,0,0,1,96.41,261.75Zm29.37-60.12a28.5,28.5,0,0,0-23.35,44.86.87.87,0,0,1,.1.81L97.9,259.39l12.56-4.81a.87.87,0,0,1,.75.07,28.51,28.51,0,1,0,14.57-53Z" />
         <path class="cls-home-ill-3" d="M558.39,413.72c0,2.52-71.3,4.57-159.25,4.57s-159.24-2.05-159.24-4.57,71.3-4.58,159.24-4.58S558.39,411.19,558.39,413.72Z" />
         <rect class="cls-home-ill-7" x="368.3" y="336.78" width="60.4" height="69.93" />
         <rect class="cls-home-ill-7" x="335.45" y="399.3" width="126.09" height="13.77" />
         <rect class="cls-home-ill-7" x="221.91" y="112.24" width="353.16" height="244.39" rx="8.83" ry="8.83" />
         <rect class="cls-home-ill-8" x="230.69" y="123.53" width="335.61" height="221.81" />
         <rect class="cls-home-ill-9" x="247" y="143.84" width="302.99" height="201.5" />
         <rect class="cls-home-ill-10" x="268.1" y="290.73" width="143.58" height="9.11" />
         <rect class="cls-home-ill-10" x="268.1" y="310.71" width="54.55" height="9.11" />
         <rect class="cls-home-ill-10" x="376.16" y="310.71" width="102.53" height="9.11" />
         <rect class="cls-home-ill-10" x="268.51" y="248" width="261.27" height="9.11" />
         <rect class="cls-home-ill-10" x="268.51" y="267.97" width="71.12" height="9.11" />
         <rect class="cls-home-ill-10" x="348.58" y="267.97" width="163.28" height="9.11" />
         <path class="cls-home-ill-11" d="M372.58,360h51s.75,30.53-5.47,33.94-45.54,2.32-45.54,2.32Z" />
         <rect class="cls-home-ill-10" x="268.1" y="185.64" width="261.68" height="20.32" rx="4.55" ry="4.55" />
         <rect class="cls-home-ill-7" x="278.76" y="188.38" width="1.82" height="15.48" />
         <polygon class="cls-home-ill-12" points="163.48 424.96 160.94 424.94 153.51 426.88 163.48 426.76 163.48 424.96" />
         <polygon class="cls-home-ill-12" points="153.63 425.13 151.09 425.11 143.66 427.06 151.18 426.88 153.63 426.12 153.63 425.13" />
         <path class="cls-home-ill-3" d="M171.85,445.35c0,1.47,17.67,2.67,39.46,2.67s39.45-1.2,39.45-2.67-17.66-2.67-39.45-2.67S171.85,443.88,171.85,445.35Z" />
         <path class="cls-home-ill-13" d="M210.3,352.08,226,357.32l-1.18,8.41s-4.92,22.08-8,30.9-17.83,34-17.83,34l-4.57-1.28,14.56-35.55s-1.75-30.3-.87-35.09C209.1,353.11,210.3,352.08,210.3,352.08Z" />
         <path class="cls-home-ill-13" d="M224.19,368.24,222.35,357l12.41,1.27s6.51,25.52,7.32,37.07-7.32,44.2-7.32,44.2h-4.84l5.27-42Z" />
         <path class="cls-home-ill-14" d="M234.76,439.53s6.09,1.19,8.18,2.46a5,5,0,0,1,2.36,3.36l-15.72-.45.4-5.37Z" />
         <path class="cls-home-ill-14" d="M198.05,432.14s3.89,4.86,4.66,7.18a5.09,5.09,0,0,1-.38,4.1l-11.68-10.54,3.78-3.82Z" />
         <path class="cls-home-ill-11" d="M233.64,360.87s8.8,31.74,6.6,33.94-12.61-34.7-12.61-34.7Z" />
         <path class="cls-home-ill-11" d="M221.27,359.84s-2.43,32.54-5.64,33-1.1-35.63-1.1-35.63Z" />
         <path class="cls-home-ill-15" d="M244,444.14a5.33,5.33,0,0,0-3.5-2.37c-2.62-.65-3.86-1.33-6.74-1.64s-3.09,0-3.09,0-1,1.95,0,3S244,444.14,244,444.14Z" />
         <path class="cls-home-ill-15" d="M202.15,441.4s.24-1.32-1.62-4.39a39.7,39.7,0,0,0-5.87-6.72s-2.12,1.45-2.19,2.23S202.15,441.4,202.15,441.4Z" />
         <polygon class="cls-home-ill-16" points="198.04 432.17 199.79 430.59 195.1 427.46 193.65 429.47 198.04 432.17" />
         <polygon class="cls-home-ill-16" points="234.86 439.59 235.44 437.3 229.8 437.3 229.71 439.78 234.86 439.59" />
         <path class="cls-home-ill-14" d="M239.28,314.7,248.45,342s3.76-3.36,6.12,0-.23,4.49-.23,4.49-13,.22-13.35,0-3.71-15.83-3.71-15.83Z" />
         <path class="cls-home-ill-17" d="M256.92,341s.6-3.88,0-4.71-4-1.12-4.81,1.09,1.77,7.4,1.77,7.4Z" />
         <path class="cls-home-ill-14" d="M234.76,358.26s7.42-39.68,4.15-44.36-25.48-5.25-29.62-2.91-.66,44.73-.66,44.73Z" />
         <path class="cls-home-ill-15" d="M233.59,355.6s7.8-35.34,2.31-40.23-16.4-5.43-21.18-3.64-4.85,31.59-2,36.9S233.59,355.6,233.59,355.6Z" />
         <path class="cls-home-ill-17" d="M234.55,283.37s7.59,19.81-2.55,22.35c-11.77,3-13.08-21.8-11.08-24.16S233.42,279.05,234.55,283.37Z" />
         <path class="cls-home-ill-17" d="M229.9,304.09l.51,6.4s-.68,3-5.95,2.95-3.81-3.79-3.81-3.79L220.47,297Z" />
         <path class="cls-home-ill-18" d="M235.65,287.55s4.23-2.54,3.74-5.21-4.24-1.33-4.24-1.33,3.76-3.75,1-4.66-4.9,1.75-4.9,1.75,2.09-2.84-1.32-2.9-9.83,6.6-9.83,6.6-2.12-1.94-3,.18-.49,6.48.3,8.84,3.12,7.88,3.12,7.88l1.78-.79s-1-3.94-.36-5.21S223.5,294,223.5,294l1.36.24s-.49-4.54,1.15-6.6S235.65,287.55,235.65,287.55Z" />
         <path class="cls-home-ill-19" d="M233.59,291.26a4.92,4.92,0,0,0,0,3.31c.35,1.27,1.72.64,2,1.93s-2,1.45-2,1.45-.36.07-1.31-1.61,0-5.08,0-5.08Z" />
         <path class="cls-home-ill-18" d="M231.49,288.76l-.36,1.55a9.44,9.44,0,0,0-2.52.3,8.11,8.11,0,0,0-1.39.88l-.64-1.36A7.1,7.1,0,0,1,231.49,288.76Z" />
         <path class="cls-home-ill-18" d="M233.59,288.55l.54,1.49a9,9,0,0,1,2.53,0,7.92,7.92,0,0,1,1.49.71l.47-1.43A7.09,7.09,0,0,0,233.59,288.55Z" />
         <path class="cls-home-ill-14" d="M235.1,301.32s-2.16,2.35-4.24,1.8-2.13-3.75-2.13-3.75Z" />
         <path class="cls-home-ill-20" d="M230.86,293.27s-.31-1.34-1.5-1.28a2.13,2.13,0,0,0-1.68,1.36l.66.11s.27-1.06,1-1.08.9,1,.9,1Z" />
         <path class="cls-home-ill-20" d="M237.49,293s-.32-1.34-1.5-1.28a2.13,2.13,0,0,0-1.68,1.36l.65.1s.27-1,1-1.08.91,1,.91,1Z" />
         <polygon class="cls-home-ill-9" points="234.11 301.29 233.81 301.97 229.54 300.5 229.76 299.96 234.11 301.29" />
         <path class="cls-home-ill-21" d="M235.76,286.71s4-4,2.14-4.68a8.1,8.1,0,0,0-4.19-.08s4.18-4.24,2.19-4.78-6,2.1-6,2.1,1.39-3.77-.34-3.48-9.07,6.91-9.07,6.91-.93-1.58-1.95-.67.29,6,2.25,7.53,2-2,4.67-3.07S235.76,286.71,235.76,286.71Z" />
         <path class="cls-home-ill-2" d="M203,292.22a.73.73,0,1,0,.73-.73A.73.73,0,0,0,203,292.22Z" />
         <circle class="cls-home-ill-2" cx="195.26" cy="287.26" r="1.42" />
         <path class="cls-home-ill-2" d="M193.63,303.42a.82.82,0,0,0,.81.82.82.82,0,0,0,.82-.82.82.82,0,0,0-.82-.81A.81.81,0,0,0,193.63,303.42Z" />
         <path class="cls-home-ill-2" d="M186.34,288.74a.38.38,0,0,0,.38.38.38.38,0,0,0,0-.75A.38.38,0,0,0,186.34,288.74Z" />
         <path class="cls-home-ill-2" d="M184.5,276.69a.92.92,0,1,0,.92-.92A.92.92,0,0,0,184.5,276.69Z" />
         <circle class="cls-home-ill-2" cx="212.87" cy="301.08" r="1.12" />
         <path class="cls-home-ill-14" d="M207.77,322.38s9.17,18.38,14.38,22.92,28.72,3.39,28.72,3.39l.34-3.43-25.12-4.69-13.7-28.41Z" />
         <path class="cls-home-ill-15" d="M249.6,345.7s-22.18-5-23-2.94,23.24,4.61,23.24,4.61Z" />
         <polygon class="cls-home-ill-22" points="265.58 335.21 258.52 312.72 231.6 333.2 251.96 345.91 265.58 335.21" />
         <polygon class="cls-home-ill-13" points="260.28 347.93 265.58 335.21 257.58 333.2 251.46 346.18 260.28 347.93" />
         <polygon class="cls-home-ill-11" points="264.75 335.85 258.56 334.32 253.36 346.46 259.99 347.37 264.75 335.85" />
         <path class="cls-home-ill-17" d="M250.76,348.63s1.6,2.09,5.2,1.32,3.25-6.87,1-7.13-3.24,2.33-3.24,2.33l-2.5.08Z" />
         <polygon class="cls-home-ill-14" points="283.37 443.74 403.12 399.36 401.67 388.2 278.2 421.5 283.37 443.74" />
         <path class="cls-home-ill-3" d="M266.59,446.65c0,1.66,64.33,3,143.69,3s143.69-1.34,143.69-3-64.33-3-143.69-3S266.59,445,266.59,446.65Z" />
         <path class="cls-home-ill-14" d="M477.83,302.55a72.41,72.41,0,1,1-80.94,62.72A72.5,72.5,0,0,1,477.83,302.55Zm-1,7.53A64.81,64.81,0,1,0,533,382.53,64.88,64.88,0,0,0,476.87,310.08Z" />
         <polygon class="cls-home-ill-23" points="507.93 330.44 456.31 434.01 430.3 420.01 496.03 319.76 507.93 330.44" />
         <circle class="cls-home-ill-24" cx="468.72" cy="374.38" r="61.1" transform="translate(-127.44 441.09) rotate(-45)" />
         <circle class="cls-home-ill-25" cx="487.1" cy="348.85" r="17.36" transform="translate(-108.27 281.8) rotate(-29.18)" />
         <path class="cls-home-ill-26" d="M361.06,397.19s-83.94,15.35-91.63,22.68-3.83,27.72,11,26.91,85.92-31.93,85.92-31.93Z" />
         <path class="cls-home-ill-27" d="M359.22,400.84S280.13,412.49,274.36,422s-.91,15.18,8.2,13.48,77.88-28.11,77.88-28.11Z" />
         <polygon class="cls-home-ill-15" points="365.82 399.7 396.31 391.05 397.48 394.46 366.34 403.95 365.82 399.7" />
         <path class="cls-home-ill-3" d="M126.21,445.35c0,1.47,21.64,2.67,48.33,2.67s48.33-1.2,48.33-2.67-21.64-2.67-48.33-2.67S126.21,443.88,126.21,445.35Z" />
         <polygon class="cls-home-ill-28" points="179.69 349.03 163.84 354.31 167.87 442.99 174.45 443.24 179.69 349.03" />
         <path class="cls-home-ill-29" d="M168.14,441.21l-.41,4.12h16.89a34.89,34.89,0,0,0-10.75-4.12Z" />
         <polygon class="cls-home-ill-28" points="150.84 353.5 166.23 344.55 161.62 443.07 154.97 443.44 150.84 353.5" />
         <path class="cls-home-ill-29" d="M161.79,441.25l.49,4.11-16.88.4a33.66,33.66,0,0,1,10.66-4.4Z" />
         <rect class="cls-home-ill-17" x="160.56" y="300.58" width="9.12" height="9.63" />
         <path class="cls-home-ill-30" d="M180.19,363.45l-29.74-.1-2.11-30.08-2.54-15.5-.27-3.44s.7-3.68,5.15-3.68c3.33,0,23.91,0,28.21,0,8.38-.07,8.38,3.52,8.38,3.52s-5.63,15.47-5.63,20S180.19,363.45,180.19,363.45Z" />
         <path class="cls-home-ill-17" d="M173.48,300c-.86,3.23-5.29,6.88-5.29,6.88H163s-4.12-3.52-5.27-6.82c-.92-2.61-1-17.18-1-17.18h17.73S174.11,297.56,173.48,300Z" />
         <path class="cls-home-ill-29" d="M156.78,291.79s-2.52-8.48-1.54-11.61,3.11-3.34,3.11-3.34a8.57,8.57,0,0,1,4.38-2.67c7.3-1.42,9.66,3.07,9.66,3.07s3.77-.36,3.77,6.47c0,2.35-1.65,8.69-1.65,8.69l-1.13-8.26-14.86.43Z" />
         <path class="cls-home-ill-30" d="M156.39,321.26s-7,18.39-8.29,22.58-2.18,31.74-2.18,31.74l-4.14.44L140,343.32l5.56-29,4.45-3.21,7.66,1.51Z" />
         <path class="cls-home-ill-17" d="M176.59,291.94a1.56,1.56,0,1,1-1.56-1.56A1.56,1.56,0,0,1,176.59,291.94Z" />
         <path class="cls-home-ill-17" d="M157.77,291.94a1.56,1.56,0,1,1-1.56-1.56A1.56,1.56,0,0,1,157.77,291.94Z" />
         <path class="cls-home-ill-30" d="M176.37,321.13s4.44,17.54,6.63,22.23,12.13,24.26,12.13,24.26l4.16.45-8.11-25.24-3.91-28.66-3.74-2.34-4.79.63Z" />
         <polygon class="cls-home-ill-17" points="195.13 367.98 195.29 370.6 197.85 374.87 202.59 373.08 203.61 370.54 199.82 366.56 198.37 365.61 195.13 367.98" />
         <path class="cls-home-ill-31" d="M172.18,310.65H158.26s4.08,6.76,4.83,9.28,0,43.48,0,43.48h4.18s-.55-39.58,0-43.18S172.18,310.65,172.18,310.65Z" />
         <path class="cls-home-ill-30" d="M180.14,366.07s-10,1.29-12.39-.16c-1.4-.84-.65-17.68-.65-17.68l13,12.8Z" />
         <path class="cls-home-ill-30" d="M162.49,365.61c-1.14,2.14-12.12.32-12.12.32v-5l12.87-7.09S163.63,363.47,162.49,365.61Z" />
         <polygon class="cls-home-ill-9" points="165.22 309.95 160.88 315.6 158.26 310.65 159.12 308.61 165.22 309.95" />
         <polygon class="cls-home-ill-9" points="165.36 309.95 169.7 315.6 172.31 310.65 171.45 308.61 165.36 309.95" />
         <path class="cls-home-ill-12" d="M153.35,367.84l8.93,1.23s-.86,29.62-2.65,32.05-2,1.35-2,1.35l1.26,1.82s-1.12-.35-1,.85,0,34.5,0,34.5h-2.4s-1.34-33.42,0-35.9S152,369.78,153.35,367.84Z" />
         <path class="cls-home-ill-12" d="M166.9,403.74l2.06,35.9h1.71s1.46-23.85,0-32.57S166.9,403.74,166.9,403.74Z" />
         <path class="cls-home-ill-12" d="M166.23,377l.67,22.47s.73,1.77,2.79.56S166.23,377,166.23,377Z" />
         <path class="cls-home-ill-12" d="M156.8,311.83s4.22,6.26,4.08,9.89.1,31.9-4.08,36.35-6.72-46-6.72-46Z" />
         <path class="cls-home-ill-12" d="M170.67,316.34s-1.36-.92-1.83,4.71-1.69,38,.91,40.74,9.53-1.56,9.53-1.56,3.41-46.43,1.45-47.43-7.68-1-7.68-1Z" />
         <path class="cls-home-ill-32" d="M160.2,288.13l-.06-.28a12.08,12.08,0,0,1,4.47-.2l-.08.28C163.13,287.51,160.23,288.13,160.2,288.13Z" />
         <path class="cls-home-ill-32" d="M167.15,288l-.06-.29a12.08,12.08,0,0,1,4.47-.2l-.08.28C170.08,287.33,167.18,288,167.15,288Z" />
         <path class="cls-home-ill-32" d="M165.77,302.34a4.77,4.77,0,0,1-3.78-2l.24-.16c.09.14,2.33,3.49,6.72.83l.15.24A6.39,6.39,0,0,1,165.77,302.34Z" />
         <path class="cls-home-ill-33" d="M166.19,289s2.38,6.45,1.7,7.64-3,.54-3,.54l.28-7.93Z" />
         <polygon class="cls-home-ill-34" points="131 384.33 160.74 384.33 162.21 407.98 129.93 407.98 131 384.33" />
         <path class="cls-home-ill-34" d="M140.78,384.33s-.66-6.55,4.21-6.63,5.32,7.37,5.32,7.37h-1.48s-1.48-5.81-4.33-5.65-2,5.32-2,5.32Z" />
         <polygon class="cls-home-ill-17" points="145.71 374.87 147.64 376.63 149.37 381.27 145.04 383.84 142.43 383.05 141.69 377.64 141.86 375.92 145.71 374.87" />
         <path class="cls-home-ill-12" d="M132.24,386l26,.61s-.56,14.6-2.73,17.12-23.29,2.64-23.29,2.64Z" />
         <path class="cls-home-ill-9" d="M163.28,291.17a1.36,1.36,0,0,1-2.72.06,1.36,1.36,0,0,1,2.72-.06Z" />
         <path class="cls-home-ill-18" d="M162.75,290.94a.9.9,0,1,1-.91-.88A.89.89,0,0,1,162.75,290.94Z" />
         <path class="cls-home-ill-9" d="M162.88,290.86a.24.24,0,0,1-.23.24.23.23,0,0,1-.23-.23.22.22,0,0,1,.22-.24A.23.23,0,0,1,162.88,290.86Z" />
         <path class="cls-home-ill-18" d="M160.14,290.69s2.45-.74,3.53-.22c-1.16-.7-1.42-.88-2-.83S160.14,290.69,160.14,290.69Z" />
         <path class="cls-home-ill-9" d="M171.58,290.87a1.36,1.36,0,0,1-2.71.06,1.36,1.36,0,1,1,2.71-.06Z" />
         <path class="cls-home-ill-18" d="M171.06,290.63a.9.9,0,1,1-.92-.87A.9.9,0,0,1,171.06,290.63Z" />
         <path class="cls-home-ill-9" d="M171.19,290.55a.24.24,0,1,1-.47,0,.24.24,0,0,1,.47,0Z" />
         <path class="cls-home-ill-18" d="M168.45,290.39s2.45-.74,3.52-.22c-1.16-.71-1.41-.89-2-.83S168.45,290.39,168.45,290.39Z" />
         <path class="cls-home-ill-13" d="M625.13,355.18s-.46-6.66-8.48-5.24-5.61,8.5-5.61,8.5l1.44-.31s-1.64-6,4.37-7.26,6.79,5.18,6.79,5.18Z" />
         <polygon class="cls-home-ill-13" points="632.73 351.36 601.92 357.54 605.42 379.84 637.63 373.65 632.73 351.36" />
         <polygon class="cls-home-ill-11" points="632.03 352.06 604.07 358.21 605.42 364.33 633.56 358.99 632.03 352.06" />
         <polygon class="cls-home-ill-9" points="619.98 359.44 620.84 364.67 618.62 365.32 616.79 360.42 619.98 359.44" />
         <path class="cls-home-ill-17" d="M546.32,261.37s-3.47-5.76-5.83-4.48-2.54,4.59-1.68,6.71c.71,1.78,5.8,2.25,5.8,2.25l2-2.9Z" />
         <path class="cls-home-ill-13" d="M591.12,282.15l-28.74,2.05-15.57-21.81-4.18,3.24s5,17.07,12.48,25.22c8.42,9.2,29.69,5.53,29.69,5.53Z" />
         <path class="cls-home-ill-3" d="M556.93,427.77c0,1.65,15.29,3,34.14,3s34.14-1.34,34.14-3-15.29-3-34.14-3S556.93,426.11,556.93,427.77Z" />
         <path class="cls-home-ill-17" d="M614.93,346.19s-3.85,3.19-2.14,5.27,7.29,3.36,7.92,1.16a7.34,7.34,0,0,0-.25-4.31l-.81-1.29-3.22-1.38Z" />
         <path class="cls-home-ill-17" d="M614.17,259.86s-6.74,23.13-15.86,19.69-.72-19.93,2.58-24.25S614.17,259.86,614.17,259.86Z" />
         <path class="cls-home-ill-18" d="M609.06,273.87s9.61-10.49,9.56-13.65-3.66-5.86-3.66-5.86-.57-3.28-3.13-4.68-3.68-.08-3.68-.08-2.63-3.27-5.5-2.87-5.22,14.48-5.22,14.48,2.46-5.69,5.92-5.59,7.25,3.78,8.59,3.93l1.34.16S608.16,273.55,609.06,273.87Z" />
         <path class="cls-home-ill-17" d="M610.32,267.82s2.2,0,1.76,1.8-2.92,1-2.92,1Z" />
         <path class="cls-home-ill-17" d="M597.43,261.86s-1.46-1.74-2.44-.49,1.43,3.44,1.43,3.44Z" />
         <path class="cls-home-ill-18" d="M609.57,264.7,606,262.88s.19-.56,1.44-.3S609.57,264.7,609.57,264.7Z" />
         <path class="cls-home-ill-18" d="M599.51,260.07l3.68,1.63s.31-.49-.68-1.3S599.51,260.07,599.51,260.07Z" />
         <path class="cls-home-ill-35" d="M603.81,261.92a16.29,16.29,0,0,1-2.53,4.4c-1.28,1.21-3.24-.09-2.8,1.57s2.78,2.29,2.78,2.29l4-7.24Z" />
         <path class="cls-home-ill-18" d="M599.17,273.36a8.68,8.68,0,0,0,2.65.43,4.75,4.75,0,0,0,4-1.8l-.37-.24a4.31,4.31,0,0,1-3.66,1.6,6.21,6.21,0,0,1-3.77-1.05l-.29.33A4.63,4.63,0,0,0,599.17,273.36Z" />
         <path class="cls-home-ill-9" d="M600.83,263.55a1.43,1.43,0,0,1-2,.55c-.78-.32-.26-1.74-.26-1.74Z" />
         <polygon class="cls-home-ill-36" points="600.98 263.18 598.63 261.92 598.58 262.36 600.95 263.61 600.98 263.18" />
         <path class="cls-home-ill-36" d="M600.13,263.12s-.17.9-1,.63c-1-.33-.3-1.24-.3-1.24Z" />
         <path class="cls-home-ill-9" d="M599,262.83a.19.19,0,0,0,.11.23.17.17,0,1,0,.11-.33A.17.17,0,0,0,599,262.83Z" />
         <path class="cls-home-ill-9" d="M608,266a1.43,1.43,0,0,1-2,.56c-.78-.32-.26-1.75-.26-1.75Z" />
         <polygon class="cls-home-ill-36" points="608.15 265.65 605.8 264.38 605.75 264.82 608.12 266.07 608.15 265.65" />
         <path class="cls-home-ill-36" d="M607.3,265.58s-.16.9-.94.64c-1-.34-.31-1.24-.31-1.24Z" />
         <path class="cls-home-ill-9" d="M606.17,265.3a.17.17,0,1,0,.33.11.17.17,0,0,0-.1-.22A.19.19,0,0,0,606.17,265.3Z" />
         <polygon class="cls-home-ill-17" points="609.91 270.52 605.83 286.56 597.58 289.27 597.69 285.04 599.87 275.5 609.91 270.52" />
         <path class="cls-home-ill-13" d="M615.72,288.54c-3.77-3.05-20.91-6.9-25.92-6.3s-14.09,55.44-14.09,55.44l33.36,5.3S619.48,291.6,615.72,288.54Z" />
         <polygon class="cls-home-ill-13" points="606.71 334.87 606.71 420.28 601.41 420.28 591.26 346.91 584.09 420.28 576.71 420.28 577.88 337.44 606.71 334.87" />
         <path class="cls-home-ill-13" d="M615.74,288.53s11.47,19.15,12,29.49-7.36,29.34-7.36,29.34l-5.9-1,5.25-29.71-8.41-13.1Z" />
         <polygon class="cls-home-ill-37" points="607.97 285.28 598.35 303.35 596.59 282.77 601.95 282.96 607.97 285.28" />
         <polygon class="cls-home-ill-9" points="607.52 281.52 601.95 282.96 603.66 287.57 607.97 285.28 607.52 281.52" />
         <polygon class="cls-home-ill-14" points="601.95 282.96 603.3 286.6 601.54 289.12 599.09 288.51 599.25 285.83 601.95 282.96" />
         <polygon class="cls-home-ill-14" points="601.54 289.12 602.86 294.87 598.35 303.35 597.38 291.99 599.09 288.51 601.03 288.17 601.54 289.12" />
         <path class="cls-home-ill-13" d="M582.54,419.71l1.07,7.69H561.89s0-3.6,1.76-3.85,7.5.54,10.91-.83,2.82-3,2.82-3Z" />
         <path class="cls-home-ill-13" d="M606.12,420.28l1.26,7.12h-11.3s-.09-2.82,1.85-3.85a9.09,9.09,0,0,0,2.73-2l1.75-2.73Z" />
         <path class="cls-home-ill-11" d="M616.46,344.39l6-27s2.8,4.05,1.79,10.9-6.41,16.87-6.41,16.87Z" />
         <path class="cls-home-ill-11" d="M590.37,288s5.24,16.95,5.28,21-6,28.17-6,28.17-5.87.58-8.26-1.46-1.42-15.89,1.69-28A91.55,91.55,0,0,1,590.37,288Z" />
         <path class="cls-home-ill-11" d="M609.17,287.79s-8.53,15.55-10.72,21.62-7.4,27.18-5.08,28.78,13.82,2,13.82,2,5.71-26.87,5.89-33.37S614.42,291,614.42,291Z" />
         <path class="cls-home-ill-11" d="M601.44,345.81h-7.76s3.57,36.78,5.71,38.44S601.44,345.81,601.44,345.81Z" />
         <path class="cls-home-ill-11" d="M587,350.14s-1,31.89-4.77,32.66-2.53-32.66-2.53-32.66Z" />
         <path class="cls-home-ill-11" d="M581.76,421.34,578,421s-.16,1.82-2.82,2.89-9.55-.32-10.75.39A3.18,3.18,0,0,0,563,426l19.54-.37Z" />
         <path class="cls-home-ill-11" d="M604.53,421H602a7,7,0,0,1-1.49,2.14c-.72.49-2,.85-2.44,1.82a5.11,5.11,0,0,0-.42,1.82l7.76-.62Z" />
         <path class="cls-home-ill-38" d="M599.6,255.13s.55-7.71,3.66-7.15a8.69,8.69,0,0,1,5,3.34s1.17-2.17,3-1.16,2.8,4.8,2.8,4.8a1.72,1.72,0,0,1,2,1.09c.42,1.38-.89,3.61-4,2.63s-4.91-3.72-7.46-4.18A9.81,9.81,0,0,0,599.6,255.13Z" />
         <path class="cls-home-ill-14" d="M595.58,264.08c-.41-.51.07-2.46.37-3.12.17-.35.29-.43.43-.45a3.3,3.3,0,0,1,1.22.26c.52.15,1.21.38,1.93.62a24.32,24.32,0,0,1,3.19,1.28c.1.08.36.27,0,1.2a5.2,5.2,0,0,1-.77,1.34c-.57.72-1,.7-1.09.7a16.2,16.2,0,0,1-3.09-.8h0A6.36,6.36,0,0,1,595.58,264.08Zm3.85-2.39a22.75,22.75,0,0,0-2.76-.83,3.51,3.51,0,0,0-.56,1.49A3.1,3.1,0,0,0,596,264a6.63,6.63,0,0,0,1.82.8h0a15.83,15.83,0,0,0,2.83.75s.26,0,.7-.53a3.51,3.51,0,0,0,1-2.21A25.14,25.14,0,0,0,599.43,261.69Z" />
         <path class="cls-home-ill-14" d="M603.58,266.85c-.11-.08-.42-.31-.44-1.22a5.85,5.85,0,0,1,.22-1.54c.28-.95.6-.95.74-.95a22.59,22.59,0,0,1,3.29,1c.72.24,1.4.49,1.91.69a3.44,3.44,0,0,1,1.12.54c.1.1.14.25.06.62-.17.71-1,2.54-1.62,2.69a6,6,0,0,1-2.35-.53A15.78,15.78,0,0,1,603.58,266.85Zm3.71-2.46a25,25,0,0,0-3-.9,3.53,3.53,0,0,0-.61,2.33c0,.69.22.84.23.85a15.68,15.68,0,0,0,2.69,1.15,6.77,6.77,0,0,0,1.92.48c.14,0,.52-.42,1-1.35a3.72,3.72,0,0,0,.48-1.52A24,24,0,0,0,607.29,264.39Z" />
         <polygon class="cls-home-ill-14" points="596.11 260.8 595.16 260.47 595.13 261.44 595.74 261.65 596.11 260.8" />
         <polygon class="cls-home-ill-14" points="610.44 265.59 611.28 265.88 610.73 266.75 610.12 266.54 610.44 265.59" />
         <polygon class="cls-home-ill-14" points="603.66 263.69 602.62 263.3 602.4 263.8 603.6 264.15 603.66 263.69" />
         <polygon class="cls-home-ill-39" points="598.06 261.21 600.22 265.09 598.71 264.93 596.91 260.91 598.06 261.21" />
         <polygon class="cls-home-ill-40" points="606.16 264.07 608.14 268 606.44 267.74 604.99 263.67 606.16 264.07" />
         <polygon class="cls-home-ill-13" points="539.87 261.28 541.03 247.83 548.07 247.83 545.48 261.69 539.87 261.28" />
         <polygon class="cls-home-ill-11" points="541.7 248.65 546.58 248.65 545.12 260.45 540.52 260.08 541.7 248.65" />
         <polygon class="cls-home-ill-9" points="601.95 282.96 598.72 286.4 596.59 282.77 598.48 281.27 601.95 282.96" />
         <path class="cls-home-ill-41" d="M551,94.28l63.94.55s1.83-7.85-2-10.42-8.71,2.66-8.71,2.66,1.9-7.94-4.13-9.82S585.8,85,585.8,85s3.29-7.66-3.48-7.91S568,86.59,568,86.59s4.53-6.35-3.86-6.82S551,94.28,551,94.28Z" />
         <path class="cls-home-ill-41" d="M446.8,64.2s2.71-11.69-3-15.52-13,4-13,4,2.82-11.83-6.16-14.63S403.4,49.53,403.4,49.53s4.91-11.41-5.18-11.78-32.8,26.45-32.8,26.45Z" />
         <path class="cls-home-ill-41" d="M180.26,80.66l53.89-1.12s.88-5.85-2.09-6.93S225.73,74,225.73,74s3.55-6.44-4.57-7.09a10.57,10.57,0,0,0-10.82,6s4.22-9.44-8.4-8.91a13.23,13.23,0,0,0-13,10.58s-.17-1.29-3.77-1.14S180.26,80.66,180.26,80.66Z" />
         <polygon class="cls-home-ill-13" points="726.09 372.36 715.72 379.53 719.82 384.91 729.68 377.4 726.09 372.36" />
         <ellipse class="cls-home-ill-3" cx="694.77" cy="442.8" rx="31.59" ry="1.74" />
         <path class="cls-home-ill-42" d="M690.19,435.21l1.07,7.69H669.54s0-3.6,1.75-3.85,7.5.54,10.91-.82,2.83-3,2.83-3Z" />
         <path class="cls-home-ill-42" d="M713.76,435.78,715,442.9h-11.3s-.1-2.82,1.85-3.85a9.09,9.09,0,0,0,2.73-2l1.75-2.73Z" />
         <path class="cls-home-ill-43" d="M689.41,436.85l-3.73-.38s-.17,1.82-2.83,2.89-9.55-.32-10.75.39a3.18,3.18,0,0,0-1.46,1.76l19.55-.38Z" />
         <path class="cls-home-ill-43" d="M712.17,436.47h-2.53a7.05,7.05,0,0,1-1.5,2.15c-.71.48-2,.84-2.43,1.81a5.11,5.11,0,0,0-.42,1.82l7.76-.61Z" />
         <polygon class="cls-home-ill-13" points="713.87 351.21 713.87 436.63 708.57 436.63 698.42 363.25 691.24 436.63 683.87 436.63 685.03 353.79 713.87 351.21" />
         <path class="cls-home-ill-11" d="M708.6,362.15h-7.77s3.58,36.79,5.72,38.44S708.6,362.15,708.6,362.15Z" />
         <path class="cls-home-ill-11" d="M694.18,366.48s-1,31.9-4.77,32.66-2.53-32.66-2.53-32.66Z" />
         <path class="cls-home-ill-44" d="M719,368.44s-3.85,4.36.37,7.17,5.53,2.11,5.25-.68a5.21,5.21,0,0,0-2.19-3.92l-.83-2.95Z" />
         <path class="cls-home-ill-45" d="M696.92,307s-9.5.42-12.63,2.41,0,55.68,0,55.68,27.54.18,29.74.18c3.36-9.64,4-55.53-1.87-57.18S696.92,307,696.92,307Z" />
         <path class="cls-home-ill-46" d="M685.29,362.44s-.77-49.22.8-51.36,5.91-2.4,5.91-2.4,1,3.81,6.06,3.54a7.24,7.24,0,0,0,6.55-4s.49-.93,2.61.45,7.39,47.13,4.62,51.23S685.29,362.44,685.29,362.44Z" />
         <path class="cls-home-ill-45" d="M712.63,308.3c3.44.51,8.68,11.12,10.16,25.69s-.36,36.32-.36,36.32H717.6a178.73,178.73,0,0,0-3.76-29.75c-3.29-14.57-2.4-24.65-2.4-24.65S709.19,307.78,712.63,308.3Z" />
         <path class="cls-home-ill-46" d="M718.47,369.17s-1.69-30.26,0-32.72,3.67,2.34,3.43,12.22-1.66,20.5-1.66,20.5Z" />
         <path class="cls-home-ill-44" d="M657.48,345.13s-1.57-6.16-8-5.53-3.6,5.15-2,5.53a12.23,12.23,0,0,0,4.19-.16l4.74,1.6Z" />
         <path class="cls-home-ill-45" d="M684.29,309.38l-11,32.42-18-.58-1.87,4.88a66.11,66.11,0,0,0,21,4.72c12.34.8,10.12-23.32,10.12-23.32Z" />
         <path class="cls-home-ill-46" d="M655.61,343.83v-1.91s20,.43,20,2.3S663.54,346.07,655.61,343.83Z" />
         <path class="cls-home-ill-44" d="M702.54,290.85c-.12,6.92-4.41,13-12.4,12.74-5.17-.16-5.75-9.62-5.63-16.55s2.65-12.73,10.51-11.63C703.66,276.63,702.65,283.92,702.54,290.85Z" />
         <path class="cls-home-ill-44" d="M692.14,297.74c.21.74,1.77,11.91,1.77,11.91s.62,2.21,5.22,1.37,4.18-6,4.18-6l-1.22-16.6-7.19,2.93Z" />
         <path class="cls-home-ill-44" d="M704.8,287.41a2.41,2.41,0,1,1-3-1.66A2.42,2.42,0,0,1,704.8,287.41Z" />
         <path class="cls-home-ill-9" d="M691.25,287.28a.52.52,0,0,1,.53-.65c.66-.08,2.33-.37,2.83.17s.52.74.52.74Z" />
         <path class="cls-home-ill-9" d="M684.26,286.89a.53.53,0,0,1,.53-.66c.66-.07,2.33-.36,2.83.17s.52.75.52.75Z" />
         <path class="cls-home-ill-9" d="M691.85,288.62l2.87.16s.21,1.71-1.22,2.08S691.85,288.62,691.85,288.62Z" />
         <polygon class="cls-home-ill-47" points="691.59 288.46 695.02 288.59 694.89 288.96 691.75 288.86 691.59 288.46" />
         <path class="cls-home-ill-47" d="M693.62,289.51c.1.53-.07,1-.38,1.07s-.64-.33-.74-.86.07-1,.38-1.07S693.52,289,693.62,289.51Z" />
         <path class="cls-home-ill-9" d="M685,288.57l2.87.16s.21,1.71-1.22,2.08S685,288.57,685,288.57Z" />
         <polygon class="cls-home-ill-47" points="684.76 288.41 688.19 288.54 688.06 288.92 684.93 288.81 684.76 288.41" />
         <path class="cls-home-ill-47" d="M686.8,289.46c.1.53-.07,1-.39,1.07s-.64-.33-.74-.86.07-1,.38-1.07S686.7,288.92,686.8,289.46Z" />
         <path class="cls-home-ill-9" d="M685,296.35s-.55,7.73,4.26,9.5,10.07-4.27,11-7.54,2.36-12.65,2.36-12.65-2.34-3.74-4.65-1.33c-1.16,1.2.94,2.87,1.2,6.66a5.1,5.1,0,0,1-3.94,5.65c-1.65.47-3.9-1.59-6.44-1.19a20.26,20.26,0,0,0-3.82.9Z" />
         <path class="cls-home-ill-48" d="M690.3,300.71a5.32,5.32,0,0,1-2.16-1l.22-.26h0a4.46,4.46,0,0,0,3.26.94,3.51,3.51,0,0,0,2.52-2.43l.33.09a3.83,3.83,0,0,1-2.79,2.68A3.76,3.76,0,0,1,690.3,300.71Z" />
         <path class="cls-home-ill-49" d="M689.13,287.6a8.74,8.74,0,0,1-2.14,6.26c-2.39,2.6,2.76,1.94,3.48.56s.33-6.44.33-6.44Z" />
         <path class="cls-home-ill-50" d="M686.06,293.85a3.14,3.14,0,1,1,2.35-3.64A3.07,3.07,0,0,1,686.06,293.85ZM685,288.14a2.67,2.67,0,1,0,3,2.16A2.59,2.59,0,0,0,685,288.14Z" />
         <path class="cls-home-ill-50" d="M693.29,293.91a3.14,3.14,0,1,1,2.34-3.63A3.06,3.06,0,0,1,693.29,293.91Zm-1.08-5.7a2.67,2.67,0,1,0,3,2.16A2.59,2.59,0,0,0,692.21,288.21Z" />
         <polygon class="cls-home-ill-50" points="695.21 289.62 701.35 285.74 701.87 285.73 695.5 290.3 695.21 289.62" />
         <polygon class="cls-home-ill-50" points="688.12 290.26 689.94 290.25 689.96 290.74 688.21 290.75 688.12 290.26" />
         <path class="cls-home-ill-51" d="M85.79,364.16l6.39,27.37,28.48,6.59L119.48,403s-31.1-2.94-33.76-8.31-9.54-27.64-9.21-30.56S85.79,364.16,85.79,364.16Z" />
         <path class="cls-home-ill-51" d="M120.66,398.12s6.37-3,9.05-2.35a4.25,4.25,0,0,1,2.65,5.87c-1,2.06-12.88,1.36-12.88,1.36s-2.33-1.88-1.92-2.1S120.66,398.12,120.66,398.12Z" />
         <ellipse class="cls-home-ill-3" cx="108.01" cy="481.06" rx="37.8" ry="2.08" />
         <rect class="cls-home-ill-52" x="42.93" y="424.5" width="41.49" height="54.05" />
         <rect class="cls-home-ill-53" x="84.45" y="424.5" width="39.46" height="54.05" />
         <path class="cls-home-ill-17" d="M78.82,342.87l0,13.75s1.13,4.18,4,4.26,3.33-4.53,3.33-4.53l1-5.21Z" />
         <path class="cls-home-ill-51" d="M86.84,353l-5.48-5.32a17.65,17.65,0,0,0,2.53,4.48,7.9,7.9,0,0,0,2.75,1.9Z" />
         <path class="cls-home-ill-17" d="M83.59,323.09s-7.38,4.76-7.54,11.41c0,2.07-1.32,5.28-.23,7.83.36.85,2.68,1,3.13,1.88,2.52,4.69,6.3,8.84,9.62,9.33,5.7.85,8.07-11,8.26-18.63S92.05,322.27,83.59,323.09Z" />
         <path class="cls-home-ill-18" d="M96.69,332.4s1.18-5.73-1.39-8.67-12.76-6.28-20.5-1c-2.26,1.53-8.87,11.95-5.94,20.57,2.26,6.65,10.23,5.36,10.23,5.36a27.28,27.28,0,0,0-.27-4.66c-3.63-3.13-1.86-7.31-.95-7.62,1.38-.49,2.2,1,2.63,1.16s-1.66-7.19,1.41-9.79,8.8-3,11.54-1.28S96.69,332.4,96.69,332.4Z" />
         <polygon class="cls-home-ill-17" points="116.32 466.87 115.62 476.69 120.07 477.63 121.55 467.36 116.32 466.87" />
         <polygon class="cls-home-ill-17" points="104.38 467.56 103.68 477.38 108.13 478.32 109.61 468.05 104.38 467.56" />
         <path class="cls-home-ill-9" d="M115.34,476.45s-1.11,3.13,0,3.89,16.24.77,16.24.77-.32-1.19-2.38-2.33-9-2-9-2Z" />
         <path class="cls-home-ill-13" d="M100,407.2s24.08,4.21,28.24,7.09-7.18,57.17-7.18,57.17l-5.2-.93,2.31-45.9-20.31-.06Z" />
         <path class="cls-home-ill-13" d="M88.13,407.68s24.07,4.21,28.24,7.08S109.25,471,109.25,471l-5.21-.93,2.25-45L86,425.05Z" />
         <path class="cls-home-ill-17" d="M88.92,392.82S71.12,391.06,69,395.2c-3.83,7.48-5.53,10.16-5.53,10.16L90.8,405Z" />
         <path class="cls-home-ill-51" d="M89.66,397.43l.26,2.36s-9.42-.7-14.88-.87a25.82,25.82,0,0,0-8.42.85l1.25-2.38Z" />
         <path class="cls-home-ill-54" d="M90.82,337s-.44,2.7.14,3.92a4.08,4.08,0,0,0,2.11,1.76s-.3,1.38-1.33,1.45a3,3,0,0,1-2.69-2.61,21,21,0,0,1,0-4Z" />
         <path class="cls-home-ill-9" d="M92.51,337.47a1.55,1.55,0,0,1,1.35-.93,1.87,1.87,0,0,1,1.56.55,1.54,1.54,0,0,1-1.07,1.9C92.9,339.39,92.51,337.47,92.51,337.47Z" />
         <path class="cls-home-ill-18" d="M92.42,337.65A2.32,2.32,0,0,1,94,337a3.42,3.42,0,0,1,1.65.34l.06-.22a1.77,1.77,0,0,0-1.81-.69,2.13,2.13,0,0,0-1.62,1Z" />
         <path class="cls-home-ill-18" d="M95.44,337.7a.94.94,0,0,1-1,.91.92.92,0,0,1-.91-1,.94.94,0,0,1,1.87.05Z" />
         <path class="cls-home-ill-9" d="M68.47,357.23c4.55-1.68,19.76-.93,23.06.48s3.38,8.66,5.75,17.7c2,7.67-4.61,6.37-6,11.63a26.89,26.89,0,0,0,0,11.2l-25.66,0a132.76,132.76,0,0,1-1.94-15.66C63,372.82,66.59,360.35,68.47,357.23Z" />
         <path class="cls-home-ill-9" d="M84.84,337.28a1.55,1.55,0,0,1,1.35-.93,1.87,1.87,0,0,1,1.56.55,1.54,1.54,0,0,1-1.07,1.9C85.23,339.2,84.84,337.28,84.84,337.28Z" />
         <path class="cls-home-ill-18" d="M84.74,337.46a2.36,2.36,0,0,1,1.55-.67,3.42,3.42,0,0,1,1.65.34l.06-.22a1.77,1.77,0,0,0-1.81-.69,2.13,2.13,0,0,0-1.62,1Z" />
         <path class="cls-home-ill-18" d="M87.77,337.51a1,1,0,0,1-1,.91.92.92,0,0,1-.91-1,.94.94,0,0,1,1.87.05Z" />
         <path class="cls-home-ill-51" d="M80.25,401c0,.48.21.87.49.87s.52-.37.54-.85-.21-.86-.49-.87S80.27,400.51,80.25,401Z" />
         <path class="cls-home-ill-17" d="M87.76,330.5l5.37.13s.25-4.08-3-4.12S87.76,330.5,87.76,330.5Z" />
         <path class="cls-home-ill-48" d="M91.39,347.7a1.5,1.5,0,0,0-1-1.77C89,345.35,87,347.06,87,347.06l2.31.73Z" />
         <path class="cls-home-ill-48" d="M86.32,346.72A3.08,3.08,0,0,0,88.06,349c1.66.93,2.44-1.05,2.44-1.05l-2-.28Z" />
         <path class="cls-home-ill-18" d="M89.93,348a11.31,11.31,0,0,1-1.21-.11A6.05,6.05,0,0,1,85,345.63l.35-.25-.18.12.18-.12a5.68,5.68,0,0,0,3.39,2.11,6.37,6.37,0,0,0,3.32-.21l.18.39A5.83,5.83,0,0,1,89.93,348Z" />
         <path class="cls-home-ill-18" d="M92,334.43l4.16.11a8.11,8.11,0,0,0-2.71-1.07A1.32,1.32,0,0,0,92,334.43Z" />
         <path class="cls-home-ill-18" d="M88.16,334.22,84,334.11a8.06,8.06,0,0,1,2.76-.93A1.33,1.33,0,0,1,88.16,334.22Z" />
         <path class="cls-home-ill-13" d="M63.54,405s-8.2,14.64,1.71,18.25c8.39,3.06,41,1.66,41,1.66l18.78-12.05-34.41-9.76Z" />
         <path class="cls-home-ill-18" d="M93.9,324.6a6.66,6.66,0,0,1-3.42,6.46,63.68,63.68,0,0,1-11,4.74l-1.27-7.35L84,322.7Z" />
         <path class="cls-home-ill-18" d="M93.9,324.22s.26,5.79-3.27,8.12c4.14-.44,5.05-6.23,5.05-6.23Z" />
         <polygon class="cls-home-ill-11" points="103.68 468.55 110.08 469.4 109.61 471.3 103.68 470.42 103.68 468.55" />
         <polygon class="cls-home-ill-11" points="115.52 469.03 121.92 469.88 121.45 471.77 115.52 470.9 115.52 469.03" />
         <path class="cls-home-ill-11" d="M83.94,405.34c.19.16,30.79,9.23,31.43,10.16S84,413.24,79.29,409.8,83.94,405.34,83.94,405.34Z" />
         <path class="cls-home-ill-11" d="M104.91,407.89s21.49,5.75,21.36,6.19-17-1.73-19.83-3.32S104.91,407.89,104.91,407.89Z" />
         <path class="cls-home-ill-8" d="M71.49,371.5s1.16,8.57,3.59,11.13,13.25,3,13.43,4.54,2.21,8.37-1.13,8.85S72,397.2,69.7,394.88s-1.8-16.45-1.81-16.83S71.49,371.5,71.49,371.5Z" />
         <path class="cls-home-ill-17" d="M72.94,356.33s4,7.28,10.41,7.84,6.16-7,6.16-7a50.27,50.27,0,0,0-8-1A42,42,0,0,0,72.94,356.33Z" />
         <path class="cls-home-ill-14" d="M85.3,335.11a3.44,3.44,0,1,0,3.27,3.44A3.36,3.36,0,0,0,85.3,335.11Zm0,6.54a3.11,3.11,0,1,1,3-3.1A3,3,0,0,1,85.3,341.65Z" />
         <path class="cls-home-ill-14" d="M94.34,335.11a3.44,3.44,0,1,0,3.31,3.44A3.38,3.38,0,0,0,94.34,335.11Zm0,6.54a3.11,3.11,0,1,1,3-3.1A3.05,3.05,0,0,1,94.34,341.65Z" />
         <rect class="cls-home-ill-14" x="88.38" y="338.25" width="2.83" height="0.71" transform="translate(179.59 677.21) rotate(-180)" />
         <rect class="cls-home-ill-14" x="78.67" y="337.15" width="3.71" height="0.71" transform="translate(161.04 675.01) rotate(-180)" />
         <path class="cls-home-ill-3" d="M100.44,292.45a.9.9,0,1,1-.9-.9A.9.9,0,0,1,100.44,292.45Z" />
         <path class="cls-home-ill-3" d="M99.09,307.22a1.15,1.15,0,1,1-1.15-1.15A1.14,1.14,0,0,1,99.09,307.22Z" />
         <path class="cls-home-ill-3" d="M117.65,315.3a1,1,0,1,1-1-1A1,1,0,0,1,117.65,315.3Z" />
         <path class="cls-home-ill-3" d="M107.6,323.22a1.75,1.75,0,1,1-1.74-1.74A1.74,1.74,0,0,1,107.6,323.22Z" />
         <path class="cls-home-ill-3" d="M113.77,336.2a.68.68,0,1,1-.67-.67A.67.67,0,0,1,113.77,336.2Z" />
         <path class="cls-home-ill-3" d="M132,299.62a.67.67,0,1,1-.67-.67A.67.67,0,0,1,132,299.62Z" />
         <path class="cls-home-ill-3" d="M113.56,296.93a.47.47,0,1,1-.46-.46A.47.47,0,0,1,113.56,296.93Z" />
         <path class="cls-home-ill-3" d="M123.59,287.45a.47.47,0,1,1-.93,0,.47.47,0,0,1,.93,0Z" />
         <path class="cls-home-ill-3" d="M85.47,305.49a.47.47,0,0,1-.93,0,.47.47,0,1,1,.93,0Z" />
         <path class="cls-home-ill-3" d="M126.41,323.18a1.14,1.14,0,1,1-1.14-1.13A1.14,1.14,0,0,1,126.41,323.18Z" />
         <path class="cls-home-ill-3" d="M124.51,304.69a1.38,1.38,0,1,1-1.38-1.38A1.38,1.38,0,0,1,124.51,304.69Z" />
         <polygon class="cls-home-ill-13" points="115.62 480.41 131.72 481.07 131.72 481.47 115.62 481.23 115.62 480.41" />
         <path class="cls-home-ill-9" d="M103.68,476.45s-1.23,3.85-.13,4.62,15.45.65,15.45.65a2.59,2.59,0,0,0-1.71-2.27c-2.44-1.13-9-2.27-9-2.27Z" />
         <polygon class="cls-home-ill-13" points="103.09 480.81 119.2 481.47 119.2 481.87 103.09 481.63 103.09 480.81" />
         <path class="cls-home-ill-17" d="M115.45,416.15s-.84.1-2.19,1.55a10.91,10.91,0,0,0-2,4s2.82-2,3.76-2.79a7.56,7.56,0,0,0,1.48-1.67Z" />
         <path class="cls-home-ill-17" d="M128.71,414.83a4.28,4.28,0,0,0-2.65.41,10.83,10.83,0,0,0-3.6,2.72s3.43-.56,4.6-.83a7.23,7.23,0,0,0,2.08-.83Z" />
         <polygon class="cls-home-ill-9" points="50.26 424.5 48.73 412.05 55.91 412.05 55.33 424.5 50.26 424.5" />
         <polygon class="cls-home-ill-13" points="48.39 411.24 56.16 411.16 56.33 412.35 48.17 412.35 48.39 411.24" />
         <path class="cls-home-ill-13" d="M54.55,418a1.83,1.83,0,1,1-1.82-1.82A1.83,1.83,0,0,1,54.55,418Z" />
         <polygon class="cls-home-ill-9" points="121.75 410.99 104.85 405.82 87.92 407.69 109.47 413.14 121.75 410.99" />
         <polygon class="cls-home-ill-9" points="109.47 413.14 127.51 387.98 146.94 387.98 127.51 413.79 109.47 413.14" />
         <polygon class="cls-home-ill-8" points="144.62 388.76 128.2 389.27 112.71 412.35 127.14 413.14 144.62 388.76" />
         <polygon class="cls-home-ill-8" points="111.95 408.58 107.15 407.2 95.77 408.42 102.41 410.22 111.95 408.58" />
         <path class="cls-home-ill-17" d="M72.32,362.61v28.1l26.23,12.9-2.25,4.49s-29.62-9.94-31-15.78-3-29.09-2-31.86S72.32,362.61,72.32,362.61Z" />
         <path class="cls-home-ill-9" d="M73.78,369.78l-11.8.91s-.62-11.36,2.23-12.79,8.24-1.24,8.24-1.24Z" />
         <path class="cls-home-ill-51" d="M72.32,369.89v1.32a21.29,21.29,0,0,0-5.62.4,6.43,6.43,0,0,0-3.33,2.91l-.22-3.92Z" />
         <path class="cls-home-ill-17" d="M98.54,403.61s6.9-1.49,9.35-.22a4.24,4.24,0,0,1,1.24,6.32c-1.47,1.77-12.84-1.61-12.84-1.61s-1.84-2.36-1.4-2.48S98.54,403.61,98.54,403.61Z" />
         <path class="cls-home-ill-51" d="M138.21,399.57s.67,5.27-2.33,5.77-4.77-1.37-3.58-3.47S138.21,399.57,138.21,399.57Z" />
         <path class="cls-home-ill-3" d="M711.54,240a.9.9,0,1,1-.89-.9A.89.89,0,0,1,711.54,240Z" />
         <path class="cls-home-ill-3" d="M710.2,254.73a1.15,1.15,0,0,1-2.3,0,1.15,1.15,0,1,1,2.3,0Z" />
         <path class="cls-home-ill-3" d="M728.75,262.8a1,1,0,1,1-1-1A1,1,0,0,1,728.75,262.8Z" />
         <path class="cls-home-ill-3" d="M718.71,270.73A1.75,1.75,0,1,1,717,269,1.75,1.75,0,0,1,718.71,270.73Z" />
         <path class="cls-home-ill-3" d="M724.87,283.7a.67.67,0,1,1-.67-.67A.67.67,0,0,1,724.87,283.7Z" />
         <path class="cls-home-ill-3" d="M743.12,247.12a.68.68,0,1,1-.68-.67A.67.67,0,0,1,743.12,247.12Z" />
         <path class="cls-home-ill-3" d="M724.66,244.44a.45.45,0,0,1-.46.46.46.46,0,0,1-.47-.46.47.47,0,0,1,.47-.47A.46.46,0,0,1,724.66,244.44Z" />
         <path class="cls-home-ill-3" d="M734.69,235a.46.46,0,0,1-.46.46.47.47,0,1,1,0-.93A.46.46,0,0,1,734.69,235Z" />
         <path class="cls-home-ill-3" d="M696.57,253a.47.47,0,1,1-.46-.47A.47.47,0,0,1,696.57,253Z" />
         <path class="cls-home-ill-3" d="M737.51,270.69a1.14,1.14,0,1,1-1.13-1.13A1.13,1.13,0,0,1,737.51,270.69Z" />
         <path class="cls-home-ill-3" d="M735.61,252.2a1.38,1.38,0,1,1-1.38-1.38A1.38,1.38,0,0,1,735.61,252.2Z" />
         <path class="cls-home-ill-3" d="M28.78,178.27a.9.9,0,1,1-.89-.89A.89.89,0,0,1,28.78,178.27Z" />
         <path class="cls-home-ill-3" d="M27.43,193.05a1.15,1.15,0,1,1-1.14-1.15A1.15,1.15,0,0,1,27.43,193.05Z" />
         <path class="cls-home-ill-3" d="M46,201.12a1,1,0,1,1-1-1A1,1,0,0,1,46,201.12Z" />
         <path class="cls-home-ill-3" d="M36,209.05a1.75,1.75,0,1,1-1.75-1.75A1.75,1.75,0,0,1,36,209.05Z" />
         <path class="cls-home-ill-3" d="M42.11,222a.67.67,0,0,1-.67.67.67.67,0,1,1,0-1.34A.67.67,0,0,1,42.11,222Z" />
         <path class="cls-home-ill-3" d="M60.35,185.44a.67.67,0,1,1-.67-.67A.67.67,0,0,1,60.35,185.44Z" />
         <path class="cls-home-ill-3" d="M41.9,182.76a.47.47,0,1,1-.46-.47A.47.47,0,0,1,41.9,182.76Z" />
         <path class="cls-home-ill-3" d="M51.93,173.28a.47.47,0,1,1-.46-.47A.47.47,0,0,1,51.93,173.28Z" />
         <path class="cls-home-ill-3" d="M13.81,191.31a.47.47,0,1,1-.47-.46A.47.47,0,0,1,13.81,191.31Z" />
         <path class="cls-home-ill-3" d="M54.75,209a1.14,1.14,0,1,1-1.13-1.14A1.14,1.14,0,0,1,54.75,209Z" />
         <path class="cls-home-ill-3" d="M52.85,190.52a1.38,1.38,0,1,1-1.38-1.38A1.38,1.38,0,0,1,52.85,190.52Z" />
      </g>
   </g>
</svg>
