<svg xmlns="http://www.w3.org/2000/svg" xmlns:xlink="http://www.w3.org/1999/xlink" class="svg-logo-pe" focusable="false" id="Calque_3" data-name="Calque 3" viewBox="0 10 67 72" width="67" height="72">
   <defs>
      <style>.logope-cls-1{fill:url(#Dégradé_sans_nom_13);}.logope-cls-2{fill:url(#Dégradé_sans_nom_14);}.logope-cls-3{fill:url(#Dégradé_sans_nom_15);}.logope-cls-4{fill:url(#Dégradé_sans_nom_16);}.logope-cls-5{fill:#003979;}.logope-cls-6{fill:#da001f;}.logope-cls-7{fill:#fff;}</style>
      <radialGradient id="Dégradé_sans_nom_13" cx="-381.89" cy="333.16" r="0.62" gradientTransform="matrix(65, 0, 0, -65, 24859.89, 21678.79)" gradientUnits="userSpaceOnUse">
         <stop offset="0" stop-color="#e1690e" />
         <stop offset="0.06" stop-color="#e1640f" />
         <stop offset="0.13" stop-color="#e15510" />
         <stop offset="0.21" stop-color="#e13c13" />
         <stop offset="0.3" stop-color="#e21917" />
         <stop offset="0.35" stop-color="#e2001a" />
         <stop offset="0.54" stop-color="#d40219" />
         <stop offset="0.9" stop-color="#b10917" />
         <stop offset="1" stop-color="#a60b16" />
      </radialGradient>
      <linearGradient id="Dégradé_sans_nom_14" x1="-384.94" y1="338.86" x2="-384.32" y2="338.86" gradientTransform="matrix(0, 55.53, 55.53, 0, -18783.3, 21394.62)" gradientUnits="userSpaceOnUse">
         <stop offset="0" stop-color="#5fc4e4" />
         <stop offset="0.01" stop-color="#5dc2e3" />
         <stop offset="0.28" stop-color="#1b6aa1" />
         <stop offset="0.41" stop-color="#004787" />
         <stop offset="0.6" stop-color="#003a72" />
         <stop offset="0.99" stop-color="#00173d" />
         <stop offset="1" stop-color="#00163b" />
      </linearGradient>
      <linearGradient id="Dégradé_sans_nom_15" x1="-385.18" y1="341.36" x2="-384.56" y2="341.36" gradientTransform="matrix(-3.76, 36.99, 36.99, 3.76, -14038.1, 12983.05)" gradientUnits="userSpaceOnUse">
         <stop offset="0" stop-color="#a2daf4" />
         <stop offset="0.09" stop-color="#90c8e5" />
         <stop offset="0.4" stop-color="#538bb2" />
         <stop offset="0.67" stop-color="#265e8d" />
         <stop offset="0.88" stop-color="#0a4276" />
         <stop offset="1" stop-color="#00386e" />
      </linearGradient>
      <radialGradient id="Dégradé_sans_nom_16" cx="-378.85" cy="332.56" r="0.62" gradientTransform="matrix(37.27, 0, 0, -37.27, 14160.03, 12422.29)" gradientUnits="userSpaceOnUse">
         <stop offset="0" stop-color="#fff" />
         <stop offset="0.25" stop-color="#fff" />
         <stop offset="0.49" stop-color="#f7f9fa" />
         <stop offset="0.86" stop-color="#e0e8ed" />
         <stop offset="1" stop-color="#d6e1e7" />
      </radialGradient>
   </defs>
   <title>propulse-par-pole-emploi</title>
   <path class="logope-cls-1" d="M43.25,47.08a13,13,0,0,0,4.06-.58c2.15-.76,4.56-2.89,5-4.91.27-1.32-.54-1.61-1-1.66H51a1.68,1.68,0,0,0-1.14.39c-.3.28-1.18,1.1-1.63,1.49a12.84,12.84,0,0,1-1.5,1.13,6.44,6.44,0,0,1-1.73.79,7.16,7.16,0,0,1-2,.25A5.58,5.58,0,0,1,38,40.79a7.76,7.76,0,0,1-.81-3.27.62.62,0,0,1,.65-.65H48.64a7.38,7.38,0,0,0,3.32-.6c.67-.34,1-1.11,1.05-2.49h0a9.26,9.26,0,0,0-1.15-4.4,9,9,0,0,0-3.46-3.52,10.77,10.77,0,0,0-5.57-1.37,12.44,12.44,0,0,0-4.56.8,9.18,9.18,0,0,0-3.43,2.29,10,10,0,0,0-2.12,3.59A13.88,13.88,0,0,0,32,35.77a11.34,11.34,0,0,0,3,8.28C36.9,46.06,39.64,47.08,43.25,47.08ZM37.18,33.67a7.47,7.47,0,0,1,1.71-4.29,4.91,4.91,0,0,1,3.75-1.58,5.06,5.06,0,0,1,3.85,1.56,7.1,7.1,0,0,1,1.65,4.35.62.62,0,0,1-.65.59H37.83C37.48,34.3,37.13,34,37.18,33.67Z" />
   <circle class="logope-cls-2" cx="33.91" cy="35.79" r="17.08" />
   <path class="logope-cls-3" d="M49.3,32.05A15.76,15.76,0,0,0,35.51,20,15.89,15.89,0,0,0,19,41.29c3-7,10.63-7.18,16.45-5.13C42.45,37.6,50.44,37.27,49.3,32.05Z" />
   <path class="logope-cls-4" d="M42.83,24.49a12.44,12.44,0,0,0-4.56.8,9.18,9.18,0,0,0-3.43,2.29,10,10,0,0,0-2.12,3.59A13.88,13.88,0,0,0,32,35.77a11.34,11.34,0,0,0,3,8.28c2,2,4.71,3,8.31,3a13.1,13.1,0,0,0,3.93-.54A17,17,0,0,0,50.47,40a1.45,1.45,0,0,0-.56.31c-.3.28-1.18,1.1-1.63,1.49a12.84,12.84,0,0,1-1.5,1.13,6.44,6.44,0,0,1-1.73.79,7.16,7.16,0,0,1-2,.25A5.58,5.58,0,0,1,38,40.79a7.76,7.76,0,0,1-.81-3.27.62.62,0,0,1,.65-.65H48.64A9.82,9.82,0,0,0,51,36.64q0-.42,0-.85a17,17,0,0,0-3.54-10.42A11.4,11.4,0,0,0,42.83,24.49Zm4.66,9.81H37.83c-.35,0-.7-.29-.65-.63a7.47,7.47,0,0,1,1.71-4.29,4.91,4.91,0,0,1,3.75-1.58,5.06,5.06,0,0,1,3.85,1.56,7.1,7.1,0,0,1,1.65,4.35A.62.62,0,0,1,47.49,34.3Z" />
   <path class="logope-cls-5" d="M7.2,64.57q0,3.59-3,3.59H2.47V71H1.21V64.57q0-3.61,3-3.61t3,3.6m-1.26,0A3,3,0,0,0,5.62,63a1.58,1.58,0,0,0-1.42-.61A1.55,1.55,0,0,0,2.79,63a3,3,0,0,0-.33,1.59v2.19H4.2a1.6,1.6,0,0,0,1.42-.6,3,3,0,0,0,.33-1.59" />
   <path class="logope-cls-5" d="M14.08,64.57q0,3.59-3,3.59t-3-3.59q0-3.6,3-3.6t3,3.6m-.47-5-.57.77-2-1.14L9,60.37l-.57-.77L11,58.13Zm-.8,5A3,3,0,0,0,12.48,63a1.54,1.54,0,0,0-1.4-.61A1.57,1.57,0,0,0,9.68,63a3,3,0,0,0-.32,1.59,3,3,0,0,0,.32,1.59,1.58,1.58,0,0,0,1.41.6,1.55,1.55,0,0,0,1.4-.6,3,3,0,0,0,.32-1.59" />
   <path class="logope-cls-5" d="M18.32,68.16q-3.22,0-3.22-2.61V58.13h1.26v7.44a1,1,0,0,0,.34.83,2.65,2.65,0,0,0,1.62.37Z" />
   <path class="logope-cls-6" d="M46.89,68.16H45.63v-3.6A2.94,2.94,0,0,0,45.3,63a1.58,1.58,0,0,0-1.42-.61,1.55,1.55,0,0,0-1.41.61,2.93,2.93,0,0,0-.33,1.59v3.6H40.89v-3.6A2.94,2.94,0,0,0,40.56,63a1.58,1.58,0,0,0-1.42-.61,1.55,1.55,0,0,0-1.41.61,2.94,2.94,0,0,0-.33,1.59v3.6H36.15V64.57q0-3.6,3-3.6a2.72,2.72,0,0,1,2.38,1.09A2.69,2.69,0,0,1,43.88,61q3,0,3,3.6Z" />
   <path class="logope-cls-6" d="M53.91,64.57q0,3.59-3,3.59H49.17V71H47.91V64.57q0-3.61,3-3.61t3,3.6m-1.26,0A3,3,0,0,0,52.32,63a1.58,1.58,0,0,0-1.42-.61,1.55,1.55,0,0,0-1.41.61,3,3,0,0,0-.33,1.59v2.19H50.9a1.6,1.6,0,0,0,1.42-.6,3,3,0,0,0,.33-1.59" />
   <path class="logope-cls-6" d="M58,68.16q-3.22,0-3.22-2.61V58.13h1.26v7.44a1,1,0,0,0,.34.83,2.64,2.64,0,0,0,1.62.37Z" />
   <path class="logope-cls-6" d="M64.41,64.57q0,3.59-3,3.59t-3-3.59q0-3.6,3-3.6t3,3.6m-1.26,0A3,3,0,0,0,62.82,63,1.92,1.92,0,0,0,60,63a4,4,0,0,0,0,3.19,1.95,1.95,0,0,0,2.81,0,3,3,0,0,0,.33-1.59" />
   <path class="logope-cls-6" d="M66.6,59.53H65.34v-1.4H66.6ZM65.34,61H66.6v7.19H65.34Z" />
   <path class="logope-cls-5" d="M20.17,65A1.75,1.75,0,0,0,22,67a2.12,2.12,0,0,0,1.73-.73l.91.86a3.34,3.34,0,0,1-2.66,1.11c-1.78,0-3.2-.94-3.2-3.65,0-2.3,1.19-3.63,3-3.63s3,1.4,3,3.42V65Zm3-2a1.47,1.47,0,0,0-1.4-.9,1.49,1.49,0,0,0-1.42.9,2.25,2.25,0,0,0-.18,1h3.2a2.24,2.24,0,0,0-.2-1" />
   <path class="logope-cls-6" d="M30.53,65a1.75,1.75,0,0,0,1.81,2,2.12,2.12,0,0,0,1.73-.73l.91.86a3.34,3.34,0,0,1-2.66,1.11c-1.78,0-3.2-.94-3.2-3.65,0-2.3,1.19-3.63,3-3.63s3,1.4,3,3.42V65Zm3-2a1.47,1.47,0,0,0-1.4-.9,1.49,1.49,0,0,0-1.42.9,2.25,2.25,0,0,0-.18,1h3.2a2.24,2.24,0,0,0-.2-1" />
   <path class="logope-cls-5" d="M7.2,64.57q0,3.59-3,3.59H2.47V71H1.21V64.57q0-3.61,3-3.61t3,3.6m-1.26,0A3,3,0,0,0,5.62,63a1.58,1.58,0,0,0-1.42-.61A1.55,1.55,0,0,0,2.79,63a3,3,0,0,0-.33,1.59v2.19H4.2a1.6,1.6,0,0,0,1.42-.6,3,3,0,0,0,.33-1.59" />
   <path class="logope-cls-5" d="M14.08,64.57q0,3.59-3,3.59t-3-3.59q0-3.6,3-3.6t3,3.6m-.47-5-.57.77-2-1.14L9,60.37l-.57-.77L11,58.13Zm-.8,5A3,3,0,0,0,12.48,63a1.54,1.54,0,0,0-1.4-.61A1.57,1.57,0,0,0,9.68,63a3,3,0,0,0-.32,1.59,3,3,0,0,0,.32,1.59,1.58,1.58,0,0,0,1.41.6,1.55,1.55,0,0,0,1.4-.6,3,3,0,0,0,.32-1.59" />
   <path class="logope-cls-5" d="M18.32,68.16q-3.22,0-3.22-2.61V58.13h1.26v7.44a1,1,0,0,0,.34.83,2.65,2.65,0,0,0,1.62.37Z" />
   <path class="logope-cls-6" d="M46.89,68.16H45.63v-3.6A2.94,2.94,0,0,0,45.3,63a1.58,1.58,0,0,0-1.42-.61,1.55,1.55,0,0,0-1.41.61,2.93,2.93,0,0,0-.33,1.59v3.6H40.89v-3.6A2.94,2.94,0,0,0,40.56,63a1.58,1.58,0,0,0-1.42-.61,1.55,1.55,0,0,0-1.41.61,2.94,2.94,0,0,0-.33,1.59v3.6H36.15V64.57q0-3.6,3-3.6a2.72,2.72,0,0,1,2.38,1.09A2.69,2.69,0,0,1,43.88,61q3,0,3,3.6Z" />
   <path class="logope-cls-6" d="M53.91,64.57q0,3.59-3,3.59H49.17V71H47.91V64.57q0-3.61,3-3.61t3,3.6m-1.26,0A3,3,0,0,0,52.32,63a1.58,1.58,0,0,0-1.42-.61,1.55,1.55,0,0,0-1.41.61,3,3,0,0,0-.33,1.59v2.19H50.9a1.6,1.6,0,0,0,1.42-.6,3,3,0,0,0,.33-1.59" />
   <path class="logope-cls-6" d="M58,68.16q-3.22,0-3.22-2.61V58.13h1.26v7.44a1,1,0,0,0,.34.83,2.64,2.64,0,0,0,1.62.37Z" />
   <path class="logope-cls-6" d="M64.41,64.57q0,3.59-3,3.59t-3-3.59q0-3.6,3-3.6t3,3.6m-1.26,0A3,3,0,0,0,62.82,63,1.92,1.92,0,0,0,60,63a4,4,0,0,0,0,3.19,1.95,1.95,0,0,0,2.81,0,3,3,0,0,0,.33-1.59" />
   <path class="logope-cls-6" d="M66.6,59.53H65.34v-1.4H66.6ZM65.34,61H66.6v7.19H65.34Z" />
   <path class="logope-cls-5" d="M20.17,65A1.75,1.75,0,0,0,22,67a2.12,2.12,0,0,0,1.73-.73l.91.86a3.34,3.34,0,0,1-2.66,1.11c-1.78,0-3.2-.94-3.2-3.65,0-2.3,1.19-3.63,3-3.63s3,1.4,3,3.42V65Zm3-2a1.47,1.47,0,0,0-1.4-.9,1.49,1.49,0,0,0-1.42.9,2.25,2.25,0,0,0-.18,1h3.2a2.24,2.24,0,0,0-.2-1" />
   <path class="logope-cls-6" d="M30.53,65a1.75,1.75,0,0,0,1.81,2,2.12,2.12,0,0,0,1.73-.73l.91.86a3.34,3.34,0,0,1-2.66,1.11c-1.78,0-3.2-.94-3.2-3.65,0-2.3,1.19-3.63,3-3.63s3,1.4,3,3.42V65Zm3-2a1.47,1.47,0,0,0-1.4-.9,1.49,1.49,0,0,0-1.42.9,2.25,2.25,0,0,0-.18,1h3.2a2.24,2.24,0,0,0-.2-1" />
</svg>
