<svg aria-label="Clara, Vos aides en un clic – site en version Bêta" class="svg-logo-clara-black" height="56" id="Calque_1" role="img" space="preserve" style="enable-background:new 0 0 196 56;" version="1.1" viewBox="7 0 196 56" width="196" x="0px" xmlns:xlink="http://www.w3.org/1999/xlink" xmlns="http://www.w3.org/2000/svg" y="0px">
<title>Clara, Vos aides en un clic – site en version Bêta</title>
<style type="text/css">  .logo-st0{fill:#057DBC;}  .logo-st1{fill:#152E3A;}  .logo-st2{fill:#0B2D3D;}  .logo-st3{fill:#FFFFFF;}</style>
<path class="logo-st0" d="M65,39.1h1.3l1.7,4.3c0.2,0.6,0.4,1.1,0.5,1.6h0c0.1-0.5,0.3-1,0.6-1.6l1.6-4.3h1.3l-3.1,7.7  h-1L65,39.1z" id="path3_fill"></path>
<path class="logo-st0" d="M73.1,44c0-1.6,1.1-2.9,2.7-2.9c1.6,0,2.7,1.2,2.7,2.9s-1.1,2.9-2.7,2.9  C74.2,46.9,73.1,45.7,73.1,44z M77.2,44c0-1.1-0.5-1.9-1.4-1.9s-1.5,0.8-1.5,1.9c0,1.1,0.5,1.9,1.5,1.9C76.7,45.9,77.2,45.1,77.2,44  z" id="path4_fill"></path>
<path class="logo-st0" d="M79.9,45.5c0.4,0.2,0.9,0.5,1.5,0.5s1.1-0.2,1.1-0.7c0-1-2.6-0.7-2.6-2.5c0-0.9,0.7-1.6,2-1.6  c0.6,0,1.1,0.1,1.5,0.3v1.1c-0.4-0.2-0.9-0.3-1.5-0.3c-0.5,0-0.9,0.1-0.9,0.6c0,1,2.6,0.6,2.6,2.6c0,1.2-1,1.7-2.2,1.7  c-0.8,0-1.5-0.3-1.9-0.5L79.9,45.5z" id="path5_fill"></path>
<path class="logo-st0" d="M91.2,46.2c-0.4,0.4-0.9,0.7-1.6,0.7c-1.1,0-1.8-0.7-1.8-1.7c0-0.7,0.4-1.2,0.9-1.5  c0.4-0.2,0.9-0.3,1.4-0.3l1,0v-0.2c0-0.7-0.5-1-1.1-1c-0.6,0-1.1,0.2-1.5,0.4l-0.4-0.8c0.6-0.4,1.4-0.5,2.1-0.5c1.4,0,2.1,0.6,2.1,2  v2.1c0,0.8,0,1.3,0.1,1.6h-1.1L91.2,46.2z M90.3,44.2c-0.4,0-0.7,0.1-0.9,0.2c-0.3,0.1-0.4,0.4-0.4,0.7c0,0.5,0.4,0.9,0.9,0.9  s1-0.3,1.2-0.5v-1.2H90.3z" id="path6_fill"></path>
<path class="logo-st0" d="M94,39.5c0-0.4,0.3-0.7,0.8-0.7c0.5,0,0.8,0.3,0.8,0.7s-0.3,0.7-0.8,0.7  C94.4,40.3,94,40,94,39.5z M94.2,41.3h1.2v5.5h-1.2V41.3z" id="path7_fill"></path>
<path class="logo-st0" d="M97,44.1c0-1.7,1.3-3,3-3c0.2,0,0.5,0,0.8,0.1v-2.7h1.2v7.9c-0.5,0.3-1.2,0.4-1.9,0.4  C98.3,46.9,97,45.9,97,44.1z M100.7,45.8v-3.5c-0.2,0-0.4-0.1-0.7-0.1c-1,0-1.8,0.7-1.8,1.9c0,1.1,0.7,1.8,1.8,1.8  C100.2,45.9,100.6,45.9,100.7,45.8z" id="path8_fill"></path>
<path class="logo-st0" d="M104.8,44.4c0,1,0.6,1.6,1.6,1.6c0.5,0,1-0.1,1.4-0.4l0.4,0.8c-0.5,0.4-1.2,0.5-1.9,0.5  c-1.9,0-2.7-1.4-2.7-2.9c0-1.6,0.9-2.9,2.4-2.9c1.5,0,2.4,1.1,2.4,2.9v0.3L104.8,44.4z M107.1,43.5c0-0.7-0.4-1.4-1.1-1.4  c-0.7,0-1.2,0.6-1.2,1.4H107.1z" id="path9_fill"></path>
<path class="logo-st0" d="M109.8,45.5c0.4,0.2,0.9,0.5,1.5,0.5s1.1-0.2,1.1-0.7c0-1-2.6-0.7-2.6-2.5  c0-0.9,0.7-1.6,2-1.6c0.6,0,1.1,0.1,1.5,0.3v1.1c-0.4-0.2-0.9-0.3-1.5-0.3c-0.5,0-0.9,0.1-0.9,0.6c0,1,2.6,0.6,2.6,2.6  c0,1.2-1,1.7-2.2,1.7c-0.8,0-1.5-0.3-1.9-0.5L109.8,45.5z" id="path10_fill"></path>
<path class="logo-st0" d="M118.9,44.4c0,1,0.6,1.6,1.6,1.6c0.5,0,1-0.1,1.4-0.4l0.4,0.8c-0.5,0.4-1.2,0.5-1.9,0.5  c-1.9,0-2.7-1.4-2.7-2.9c0-1.6,0.9-2.9,2.4-2.9c1.5,0,2.4,1.1,2.4,2.9v0.3L118.9,44.4z M121.2,43.5c0-0.7-0.4-1.4-1.1-1.4  c-0.7,0-1.1,0.6-1.2,1.4H121.2z" id="path11_fill"></path>
<path class="logo-st0" d="M123.9,41.3h1l0.1,0.6c0.6-0.5,1.2-0.8,1.9-0.8c0.9,0,1.7,0.5,1.7,2v3.7h-1.2v-3.2  c0-0.7-0.2-1.3-0.9-1.3c-0.5,0-1,0.3-1.5,0.7v3.9h-1.2V41.3z" id="path12_fill"></path>
<path class="logo-st0" d="M133.6,45.9c-0.1-0.3-0.2-0.6-0.2-1.1v-3.5h1.2v3.3c0,0.3,0,0.5,0.1,0.7  c0.1,0.4,0.4,0.5,0.9,0.5c0.5,0,1-0.3,1.3-0.6v-4h1.2v4c0,0.8,0,1.2,0.1,1.5h-1.1l-0.2-0.6c-0.5,0.4-1,0.7-1.7,0.7  C134.7,46.9,133.9,46.7,133.6,45.9z" id="path13_fill"></path>
<path class="logo-st0" d="M140,41.3h1l0.1,0.6c0.6-0.5,1.2-0.8,1.9-0.8c0.9,0,1.7,0.5,1.7,2v3.7h-1.2v-3.2  c0-0.7-0.2-1.3-0.9-1.3c-0.5,0-1,0.3-1.5,0.7v3.9H140V41.3z" id="path14_fill"></path>
<path class="logo-st0" d="M149.2,44.1c0-1.7,1.2-2.9,2.8-2.9c0.6,0,1.1,0.2,1.5,0.4v1.1c-0.4-0.3-0.8-0.4-1.3-0.4  c-1.1,0-1.7,0.8-1.7,1.9c0,1.2,0.6,1.9,1.6,1.9c0.5,0,0.9-0.2,1.3-0.4l0.4,0.8c-0.4,0.3-1.1,0.5-1.8,0.5  C150.2,46.9,149.2,45.7,149.2,44.1z" id="path15_fill"></path>
<path class="logo-st0" d="M155.1,38.6h1.2v6.8c0,0.4,0.1,0.5,0.4,0.5c0.1,0,0.2,0,0.4-0.1l0.2,1c-0.3,0.1-0.6,0.2-1,0.2  c-0.9,0-1.3-0.5-1.3-1.2V38.6z" id="path16_fill"></path>
<path class="logo-st0" d="M158.5,39.5c0-0.4,0.3-0.7,0.8-0.7c0.5,0,0.8,0.3,0.8,0.7s-0.3,0.7-0.8,0.7  C158.8,40.3,158.5,40,158.5,39.5z M158.6,41.3h1.2v5.5h-1.2V41.3z" id="path17_fill"></path>
<path class="logo-st0" d="M161.4,44.1c0-1.7,1.2-2.9,2.8-2.9c0.6,0,1.1,0.2,1.5,0.4v1.1c-0.4-0.3-0.8-0.4-1.3-0.4  c-1.1,0-1.7,0.8-1.7,1.9c0,1.2,0.6,1.9,1.6,1.9c0.5,0,0.9-0.2,1.3-0.4l0.4,0.8c-0.4,0.3-1.1,0.5-1.8,0.5  C162.4,46.9,161.4,45.7,161.4,44.1z" id="path18_fill"></path>
<path class="logo-st1" d="M101.7,31.5c-2.4,1.3-4.8,1.8-7.1,1.8c-7.4,0-11.5-4.9-11.5-11.7c0-6.7,4.8-12.1,12.1-12.1  c2.5,0,4.6,0.5,5.9,1.1v3.5c-1.7-0.9-3.6-1.5-5.9-1.5c-5.2,0-8.2,4-8.2,8.8c0,5.1,3.1,8.7,8,8.7c2.2,0,4-0.6,5.6-1.6L101.7,31.5z" id="path19_fill"></path>
<path class="logo-st1" d="M103.5,8h3.7v20.4c0,1.2,0.4,1.6,1.2,1.6c0.2,0,0.7-0.1,1.1-0.2l0.7,2.8  c-0.9,0.4-2,0.5-2.8,0.5c-2.6,0-3.8-1.3-3.8-3.7V8z" id="path20_fill"></path>
<path class="logo-st1" d="M120.5,31.2c-1.2,1.1-2.8,2.1-4.8,2.1c-3.2,0-5.4-2.1-5.4-5.3c0-2.2,1.1-3.7,2.8-4.5  c1.1-0.6,2.6-0.8,4.2-0.9l3-0.1v-0.7c0-2.2-1.4-3.1-3.3-3.1c-1.8,0-3.3,0.5-4.4,1.2l-1.3-2.4c2-1.1,4.1-1.6,6.3-1.6  c4.1,0,6.4,1.9,6.4,5.9v6.4c0,2.4,0.1,3.8,0.3,4.7h-3.2L120.5,31.2z M117.8,25.1c-1.2,0-2.1,0.2-2.7,0.5c-0.8,0.4-1.1,1.1-1.1,2.1  c0,1.6,1.1,2.6,2.7,2.6c1.7,0,3-1,3.6-1.6v-3.7L117.8,25.1z" id="path21_fill"></path>
<path class="logo-st1" d="M126.3,16.3h3.1l0.4,1.9c1.6-1.6,3-2.4,4.6-2.4c0.7,0,1.6,0.2,2.2,0.6l-1.3,3.2  c-0.6-0.4-1.2-0.5-1.8-0.5c-1.1,0-2.1,0.5-3.6,1.9v11.9h-3.7L126.3,16.3z" id="path22_fill"></path>
<path class="logo-st1" d="M146.3,31.2c-1.2,1.1-2.8,2.1-4.8,2.1c-3.2,0-5.4-2.1-5.4-5.3c0-2.2,1.1-3.7,2.8-4.5  c1.1-0.6,2.6-0.8,4.2-0.9l3-0.1v-0.7c0-2.2-1.4-3.1-3.3-3.1c-1.8,0-3.3,0.5-4.4,1.2l-1.3-2.4c2-1.1,4.1-1.6,6.3-1.6  c4.1,0,6.4,1.9,6.4,5.9v6.4c0,2.4,0.1,3.8,0.3,4.7h-3.2L146.3,31.2z M143.5,25.1c-1.2,0-2.1,0.2-2.7,0.5c-0.8,0.4-1.1,1.1-1.1,2.1  c0,1.6,1.1,2.6,2.7,2.6c1.7,0,3-1,3.6-1.6v-3.7L143.5,25.1z" id="path23_fill"></path>
<path class="logo-st2" d="M54.9,27.8c0,15.1-12.2,27.3-27.3,27.3S0.3,42.9,0.3,27.8S12.5,0.5,27.6,0.5  C42.7,0.5,54.9,12.7,54.9,27.8z" id="path2_fill"></path>
<path class="logo-st1" d="M55,27.5c0,15.2-12.3,27.5-27.5,27.5S0,42.6,0,27.5C0,12.3,12.3,0,27.5,0  C42.7,0,55,12.3,55,27.5z" id="path24_fill"></path>
<path class="logo-st0" d="M12.9,24.1l19.2,0.2L37,42.1l7.9-35.7L12.9,24.1z" id="path25_fill"></path>
<path class="logo-st0" d="M185.3,0H170c-5.5,0-10,4.5-10,10c0,5.5,4.5,10,10,10h15.3c5.5,0,10-4.5,10-10  C195.3,4.5,190.8,0,185.3,0z" id="path26_fill"></path>
<path class="logo-st3" d="M167.9,13V5.9h2.5c0.9,0,1.5,0.2,2,0.5c0.4,0.3,0.7,0.8,0.7,1.5c0,0.3-0.1,0.7-0.3,0.9  c-0.2,0.3-0.4,0.5-0.7,0.6c0.4,0.1,0.7,0.3,0.9,0.6c0.2,0.3,0.3,0.6,0.3,1c0,0.7-0.2,1.2-0.7,1.6s-1.1,0.5-1.9,0.5H167.9z   M169.3,9.9v1.9h1.3c0.3,0,0.6-0.1,0.8-0.2c0.2-0.2,0.3-0.4,0.3-0.7c0-0.7-0.3-1-1-1H169.3z M169.3,8.9h1.1c0.7,0,1.1-0.3,1.1-0.9  c0-0.3-0.1-0.6-0.3-0.7c-0.2-0.1-0.5-0.2-0.9-0.2h-1V8.9z M176.6,13.1c-0.8,0-1.4-0.2-1.9-0.7c-0.5-0.5-0.7-1.1-0.7-1.9v-0.1  c0-0.5,0.1-1,0.3-1.4c0.2-0.4,0.5-0.7,0.9-1c0.4-0.2,0.8-0.3,1.3-0.3c0.7,0,1.3,0.2,1.7,0.7c0.4,0.5,0.6,1.1,0.6,1.9v0.6h-3.4  c0,0.3,0.2,0.6,0.4,0.8c0.2,0.2,0.5,0.3,0.9,0.3c0.5,0,1-0.2,1.3-0.6l0.7,0.8c-0.2,0.3-0.5,0.5-0.9,0.7  C177.4,13,177,13.1,176.6,13.1z M176.4,8.8c-0.3,0-0.5,0.1-0.7,0.3c-0.2,0.2-0.3,0.5-0.3,0.8h2V9.7c0-0.3-0.1-0.6-0.3-0.7  C177,8.8,176.7,8.8,176.4,8.8z M178.1,6.9L178.1,6.9L177,6.9l-0.8-0.7l-0.8,0.7h-1.1V6.8l1.4-1.3h0.8L178.1,6.9z M181.3,6.4v1.3h0.9  v1h-0.9v2.6c0,0.2,0,0.3,0.1,0.4c0.1,0.1,0.2,0.1,0.4,0.1c0.2,0,0.3,0,0.4,0V13c-0.3,0.1-0.6,0.1-0.9,0.1c-1,0-1.5-0.5-1.5-1.5V8.8  h-0.8v-1h0.8V6.4H181.3z M186,13c-0.1-0.1-0.1-0.3-0.1-0.5c-0.3,0.4-0.8,0.6-1.3,0.6c-0.5,0-0.9-0.1-1.3-0.4  c-0.3-0.3-0.5-0.7-0.5-1.1c0-0.6,0.2-1,0.6-1.3c0.4-0.3,1-0.5,1.8-0.5h0.6V9.5c0-0.2-0.1-0.4-0.2-0.6c-0.1-0.1-0.3-0.2-0.6-0.2  c-0.2,0-0.4,0.1-0.6,0.2c-0.1,0.1-0.2,0.3-0.2,0.5h-1.4c0-0.3,0.1-0.6,0.3-0.8c0.2-0.3,0.5-0.5,0.8-0.6c0.3-0.1,0.7-0.2,1.2-0.2  c0.7,0,1.2,0.2,1.5,0.5c0.4,0.3,0.6,0.8,0.6,1.4v2.3c0,0.5,0.1,0.9,0.2,1.1V13H186z M184.8,12c0.2,0,0.4,0,0.6-0.1  c0.2-0.1,0.3-0.2,0.4-0.4v-0.9h-0.5c-0.7,0-1.1,0.2-1.1,0.7l0,0.1c0,0.2,0.1,0.3,0.2,0.4C184.5,12,184.6,12,184.8,12z" id="path27_fill"></path>
</svg>
