<svg xmlns="http://www.w3.org/2000/svg" id="Calque_190" width="44px" height="52px" data-name="Calque 1" viewBox="0 0 44 52" data-ember-extension="1">
  <defs>
    <style>.cls-1{fill:#fff;}</style>
  </defs>
  <path id="path2_fill" data-name="path2 fill" class="cls-1" d="M22,12a6,6,0,1,0-6-6A6,6,0,0,0,22,12ZM22,2a4,4,0,1,1-4,4A4,4,0,0,1,22,2ZM16,44a.94.94,0,0,0-1,1v6a1,1,0,1,0,2,0V45A.94.94,0,0,0,16,44Zm12,0a.94.94,0,0,0-1,1v6a1,1,0,0,0,2,0V45A.94.94,0,0,0,28,44ZM40,22.8a1,1,0,0,0-1-.8H33V17.2a4.5,4.5,0,0,0-3.09-4.3l-2.6-.9a1.09,1.09,0,0,0-1,.2L22,16.6l-4.29-4.3a.8.8,0,0,0-1-.2l-2.6.9A4.54,4.54,0,0,0,11,17.3V22H5a1,1,0,0,0-1,.8l-4,22a.78.78,0,0,0,.2.8A.91.91,0,0,0,1,46H11v5a1,1,0,0,0,2,0V43a2.94,2.94,0,0,1,3-3H28a2.94,2.94,0,0,1,3,3v8a1,1,0,1,0,2,0V46H43a.91.91,0,0,0,.8-.4.78.78,0,0,0,.2-.8ZM13,17.2a2.49,2.49,0,0,1,1.69-2.4l2-.7,4.59,4.6a1,1,0,0,0,1.4,0l4.59-4.6,2,.7A2.49,2.49,0,0,1,31,17.2V22H29V19a1,1,0,0,0-2,0v3H17V19a1,1,0,0,0-2,0v3H13ZM22,38a4,4,0,1,1,4-4A4,4,0,0,1,22,38Zm11,6V43a5,5,0,0,0-5-5h-1.5A5.85,5.85,0,0,0,28,34a6,6,0,1,0-12,0,6.37,6.37,0,0,0,1.5,4H16a5,5,0,0,0-5,5v1H2.24L5.83,24H38.07l3.59,20Z"/>
</svg>
