<svg xmlns="http://www.w3.org/2000/svg" id="Calque_122" width="51px" height="46px"  data-name="Calque 1" viewBox="0 0 51 46" data-ember-extension="1">
   <defs>
      <style>.cls-1{fill:#fff;}</style>
   </defs>
   <g id="Canvas">
      <g id="Vector">
         <path id="path0_fill" data-name="path0 fill" class="cls-1" d="M50,16.81,41.87.36A.6.6,0,0,0,41.63.1a.59.59,0,0,0-.34-.1H8.72a.59.59,0,0,0-.34.1.67.67,0,0,0-.24.26L.06,16.8a.66.66,0,0,0-.06.27,5.55,5.55,0,0,0,3.51,5.09V44.71h-3V46H49.58V44.71h-3V22.21a5.59,5.59,0,0,0,2.53-2,5.65,5.65,0,0,0,1-3.08A.71.71,0,0,0,50,16.81ZM40.89,1.29l7.48,15.14H40.16L35.82,1.29Zm-6.42,0L35,3,38.8,16.43H30.51L29.33,1.29ZM39,17.74a4.2,4.2,0,1,1-8.4,0ZM22,1.29h6l.31,3.92.87,11.23H20.79Zm7.18,16.45a4.21,4.21,0,0,1-7.18,3,4.24,4.24,0,0,1-1.23-3ZM15.55,1.29h5.14L19.55,16.43h-8.3l2.24-7.81Zm3.88,16.45a4.2,4.2,0,0,1-4.21,4.2,4.2,4.2,0,0,1-4.2-4.2ZM9.17,1.29h5.08L9.91,16.43H1.68ZM1.33,17.74H9.68v.1a.59.59,0,0,1-.09.33,3.81,3.81,0,0,1-.13.45c0,.1-.09.2-.14.3s-.14.27-.22.4l-.19.28c-.09.12-.19.23-.29.34l-.22.23q-.18.16-.36.3l-.25.19-.42.23L7.09,21a3.33,3.33,0,0,1-.51.16l-.25.08a4.26,4.26,0,0,1-1.51,0l-.27-.07a4.2,4.2,0,0,1-3.22-3.45ZM21.67,39.8v4.9H12.13V27.78h9.54Zm23.59,4.9H23V39.82H39v-12h2.1V26.52H9.27v1.26h1.56V44.71h-6V22.53a5.38,5.38,0,0,0,1.79,0,1.46,1.46,0,0,0,.34-.1,4,4,0,0,0,.67-.21A3.24,3.24,0,0,0,8,22a3.5,3.5,0,0,0,.54-.29c.13-.08.23-.18.36-.26s.31-.24.45-.37.21-.22.3-.33a3.91,3.91,0,0,0,.37-.44,3,3,0,0,0,.24-.38,2.55,2.55,0,0,0,.18-.28,5.47,5.47,0,0,0,9.74,0,5.45,5.45,0,0,0,4.88,3,5.6,5.6,0,0,0,2.87-.8,5.44,5.44,0,0,0,2-2.19,5.47,5.47,0,0,0,9.74,0c0,.09.13.18.18.27a2.47,2.47,0,0,0,.25.38c.12.15.24.3.37.44s.2.23.31.33a5.37,5.37,0,0,0,.44.37,2.36,2.36,0,0,0,.36.26,5.45,5.45,0,0,0,.53.29,2.69,2.69,0,0,0,.38.19,4.88,4.88,0,0,0,.65.2,1.57,1.57,0,0,1,.35.11,5.39,5.39,0,0,0,1.79.06ZM23,38.52V27.78H37.67V38.52ZM45.5,21.19l-.28.07a4.2,4.2,0,0,1-1.5,0l-.25-.08A3.33,3.33,0,0,1,43,21l-.28-.13c-.14-.07-.28-.14-.41-.22L42,20.43l-.35-.29-.23-.24a3.07,3.07,0,0,1-.28-.35L41,19.28a3.72,3.72,0,0,1-.21-.39c0-.1-.1-.2-.14-.3s-.1-.29-.14-.44a2.25,2.25,0,0,0-.08-.33c0-.12,0-.07,0-.11h8.34a4.21,4.21,0,0,1-3.23,3.48Z"/>
      </g>
   </g>
</svg>
