<svg id="Calque_1" data-name="Calque 1" xmlns="http://www.w3.org/2000/svg" viewBox="0 0 1366 768"><defs><style>.cls-1{fill:#324a58;}</style></defs><path class="cls-1" d="M778.89,399.16c-1.44-.08-2.88-.24-4.32-.24-40.16-.06-80.35-1-120.48.08-56.61,1.52-113.19,4.53-169.78,6.91-1.67.07-3.33.21-5,.26-9,.27-14-3.91-14.86-12.47s3.85-15.53,12.16-16.65c25.91-3.5,51.81-7.12,77.81-9.87,43.56-4.59,87.13-9.22,130.8-12.54,30.21-2.3,60.58-2.42,90.88-3.52a10.13,10.13,0,0,0,5.06-1.22c-2.74-1.34-5.43-2.78-8.22-4-16.76-7.39-33.63-14.53-50.26-22.2a125.45,125.45,0,0,1-17.58-10.45c-8.51-5.79-9.22-19.44-1.5-26.16,4.29-3.73,9.19-4.17,14.48-2,26,10.81,51.83,22,78,32.18,20.47,7.95,41.39,14.77,62.18,21.88,10.73,3.67,21.49,7.08,30.7,14.11,17.65,13.48,16.77,34.29-2.4,45.4-6.28,3.64-13.42,5.77-20,8.88-22.15,10.38-44.52,20.34-66.27,31.51-27,13.83-53.39,28.68-80,43.14-7,3.8-12.33,3.16-17-2.29-5.3-6.15-6-16.05-.5-21.52a220.76,220.76,0,0,1,23.87-21.18c15.9-11.8,32.4-22.8,48.65-34.14,1.33-.93,2.64-1.88,4-2.82Z"/></svg>