<?xml version="1.0" encoding="utf-8"?>
<!-- Generator: Adobe Illustrator 16.0.0, SVG Export Plug-In . SVG Version: 6.00 Build 0)  -->
<!DOCTYPE svg PUBLIC "-//W3C//DTD SVG 1.1//EN" "http://www.w3.org/Graphics/SVG/1.1/DTD/svg11.dtd">
<svg version="1.1" id="Calque_1" xmlns="http://www.w3.org/2000/svg" xmlns:xlink="http://www.w3.org/1999/xlink" x="0px" y="0px"
	 width="143px" height="40px" viewBox="0 0 143 40" enable-background="new 0 0 143 40" xml:space="preserve">
<g>
	<g>
		<path fill="#1B2B66" d="M60.413,20.267c0,3.111-1.302,4.67-3.908,4.67h-2.253v3.689h-1.639v-8.358c0-3.128,1.297-4.69,3.893-4.69
			C59.111,15.579,60.413,17.14,60.413,20.267 M58.775,20.267c0-0.956-0.144-1.648-0.426-2.074c-0.357-0.529-0.972-0.796-1.844-0.796
			c-0.874,0-1.482,0.267-1.828,0.796c-0.284,0.425-0.426,1.119-0.426,2.074v2.85h2.253c0.873,0,1.486-0.26,1.843-0.78
			C58.63,21.898,58.775,21.21,58.775,20.267"/>
		<path fill="#1B2B66" d="M69.351,20.267c0,3.111-1.298,4.67-3.893,4.67c-2.605,0-3.907-1.56-3.907-4.67
			c0-3.126,1.302-4.688,3.907-4.688C68.055,15.579,69.351,17.14,69.351,20.267 M68.737,13.795l-0.739,1.002l-2.617-1.482
			l-2.617,1.482l-0.741-1.002l3.357-1.906L68.737,13.795z M67.698,20.267c0-0.956-0.142-1.648-0.422-2.074
			c-0.344-0.529-0.949-0.796-1.816-0.796c-0.865,0-1.477,0.267-1.831,0.796c-0.283,0.425-0.423,1.119-0.423,2.074
			c0,0.943,0.14,1.633,0.423,2.072c0.354,0.519,0.965,0.778,1.831,0.778c0.867,0,1.472-0.26,1.816-0.778
			C67.555,21.913,67.698,21.223,67.698,20.267"/>
		<path fill="#1B2B66" d="M74.865,24.938c-2.795,0-4.192-1.131-4.192-3.393v-9.656h1.64v9.673c0,0.479,0.146,0.842,0.44,1.074
			c0.39,0.321,1.093,0.479,2.11,0.479v1.821H74.865z"/>
		<path fill="#1B2B66" d="M112.025,24.938h-1.635v-4.683c0-0.951-0.145-1.641-0.428-2.066c-0.357-0.527-0.971-0.794-1.846-0.794
			c-0.872,0-1.48,0.267-1.826,0.794c-0.286,0.425-0.428,1.115-0.428,2.066v4.683h-1.637v-4.683c0-0.951-0.142-1.641-0.427-2.066
			c-0.356-0.527-0.971-0.794-1.846-0.794c-0.871,0-1.479,0.267-1.826,0.794c-0.28,0.425-0.426,1.115-0.426,2.066v4.683h-1.638
			v-4.671c0-3.126,1.299-4.688,3.892-4.688c1.39,0,2.417,0.471,3.09,1.413c0.663-0.941,1.688-1.413,3.072-1.413
			c2.608,0,3.909,1.562,3.909,4.688v4.671H112.025z"/>
		<path fill="#1B2B66" d="M121.15,20.267c0,3.111-1.301,4.67-3.906,4.67h-2.256v3.689h-1.637v-8.358c0-3.128,1.297-4.69,3.893-4.69
			C119.85,15.579,121.15,17.14,121.15,20.267 M119.512,20.267c0-0.956-0.142-1.648-0.425-2.074
			c-0.356-0.529-0.971-0.796-1.845-0.796c-0.87,0-1.482,0.267-1.827,0.796c-0.283,0.425-0.427,1.119-0.427,2.074v2.85h2.256
			c0.873,0,1.484-0.26,1.843-0.78C119.37,21.898,119.512,21.21,119.512,20.267"/>
		<path fill="#1B2B66" d="M126.54,24.938c-2.794,0-4.19-1.131-4.19-3.393v-9.656h1.641v9.673c0,0.479,0.146,0.842,0.438,1.074
			c0.389,0.321,1.096,0.479,2.112,0.479V24.938L126.54,24.938z"/>
		<path fill="#1B2B66" d="M134.814,20.267c0,3.111-1.295,4.67-3.894,4.67c-2.606,0-3.907-1.56-3.907-4.67
			c0-3.126,1.301-4.688,3.907-4.688C133.52,15.579,134.814,17.14,134.814,20.267 M133.177,20.267c0-0.956-0.143-1.648-0.426-2.074
			c-0.347-0.529-0.956-0.796-1.829-0.796c-0.871,0-1.479,0.267-1.829,0.796c-0.28,0.425-0.423,1.119-0.423,2.074
			c0,0.956,0.143,1.646,0.423,2.072c0.351,0.519,0.96,0.778,1.829,0.778c0.874,0,1.482-0.26,1.829-0.778
			C133.034,21.913,133.177,21.223,133.177,20.267"/>
		<path fill="#1B2B66" d="M137.667,13.706h-1.64v-1.817h1.64V13.706z M136.027,15.579h1.64v9.358h-1.64V15.579z"/>
		<path fill="#1B2B66" d="M77.271,20.85c0,1.588,0.838,2.592,2.354,2.592c1.04,0,1.589-0.291,2.242-0.952l1.187,1.112
			c-0.947,0.953-1.84,1.441-3.464,1.441c-2.317,0-4.159-1.223-4.159-4.741c0-2.99,1.551-4.723,3.92-4.723
			c2.483,0,3.924,1.82,3.924,4.449v0.822H77.271z M81.175,18.295c-0.29-0.692-0.95-1.167-1.823-1.167
			c-0.875,0-1.55,0.475-1.842,1.167c-0.182,0.421-0.219,0.694-0.236,1.259h4.158C81.412,18.989,81.359,18.715,81.175,18.295"/>
		<path fill="#1B2B66" d="M90.75,20.85c0,1.588,0.838,2.592,2.354,2.592c1.039,0,1.586-0.291,2.244-0.952l1.185,1.112
			c-0.948,0.953-1.843,1.441-3.464,1.441c-2.316,0-4.159-1.223-4.159-4.739c0-2.992,1.552-4.726,3.922-4.726
			c2.481,0,3.922,1.82,3.922,4.449v0.821H90.75V20.85z M94.652,18.295c-0.291-0.692-0.947-1.167-1.822-1.167
			c-0.876,0-1.548,0.475-1.844,1.167c-0.182,0.421-0.217,0.694-0.236,1.259h4.158C94.891,18.989,94.834,18.715,94.652,18.295"/>
		<path fill="#1B2B66" d="M60.413,20.267c0,3.111-1.302,4.67-3.908,4.67h-2.253v3.689h-1.639v-8.358c0-3.128,1.297-4.69,3.893-4.69
			C59.111,15.579,60.413,17.14,60.413,20.267 M58.775,20.267c0-0.956-0.144-1.648-0.426-2.074c-0.357-0.529-0.972-0.796-1.844-0.796
			c-0.874,0-1.482,0.267-1.828,0.796c-0.284,0.425-0.426,1.119-0.426,2.074v2.85h2.253c0.873,0,1.486-0.26,1.843-0.78
			C58.63,21.898,58.775,21.21,58.775,20.267"/>
		<path fill="#1B2B66" d="M69.351,20.267c0,3.111-1.298,4.67-3.893,4.67c-2.605,0-3.907-1.56-3.907-4.67
			c0-3.126,1.302-4.688,3.907-4.688C68.055,15.579,69.351,17.14,69.351,20.267 M68.737,13.795l-0.739,1.002l-2.617-1.482
			l-2.617,1.482l-0.741-1.002l3.357-1.906L68.737,13.795z M67.698,20.267c0-0.956-0.142-1.648-0.422-2.074
			c-0.344-0.529-0.949-0.796-1.816-0.796c-0.865,0-1.477,0.267-1.831,0.796c-0.283,0.425-0.423,1.119-0.423,2.074
			c0,0.943,0.14,1.633,0.423,2.072c0.354,0.519,0.965,0.778,1.831,0.778c0.867,0,1.472-0.26,1.816-0.778
			C67.555,21.913,67.698,21.223,67.698,20.267"/>
		<path fill="#1B2B66" d="M74.865,24.938c-2.795,0-4.192-1.131-4.192-3.393v-9.656h1.64v9.673c0,0.479,0.146,0.842,0.44,1.074
			c0.39,0.321,1.093,0.479,2.11,0.479v1.821H74.865z"/>
		<path fill="#1B2B66" d="M112.025,24.938h-1.635v-4.683c0-0.951-0.145-1.641-0.428-2.066c-0.357-0.527-0.971-0.794-1.846-0.794
			c-0.872,0-1.48,0.267-1.826,0.794c-0.286,0.425-0.428,1.115-0.428,2.066v4.683h-1.637v-4.683c0-0.951-0.142-1.641-0.427-2.066
			c-0.356-0.527-0.971-0.794-1.846-0.794c-0.871,0-1.479,0.267-1.826,0.794c-0.28,0.425-0.426,1.115-0.426,2.066v4.683h-1.638
			v-4.671c0-3.126,1.299-4.688,3.892-4.688c1.39,0,2.417,0.471,3.09,1.413c0.663-0.941,1.688-1.413,3.072-1.413
			c2.608,0,3.909,1.562,3.909,4.688v4.671H112.025z"/>
		<path fill="#1B2B66" d="M121.15,20.267c0,3.111-1.301,4.67-3.906,4.67h-2.256v3.689h-1.637v-8.358c0-3.128,1.297-4.69,3.893-4.69
			C119.85,15.579,121.15,17.14,121.15,20.267 M119.512,20.267c0-0.956-0.142-1.648-0.425-2.074
			c-0.356-0.529-0.971-0.796-1.845-0.796c-0.87,0-1.482,0.267-1.827,0.796c-0.283,0.425-0.427,1.119-0.427,2.074v2.85h2.256
			c0.873,0,1.484-0.26,1.843-0.78C119.37,21.898,119.512,21.21,119.512,20.267"/>
		<path fill="#1B2B66" d="M126.54,24.938c-2.794,0-4.19-1.131-4.19-3.393v-9.656h1.641v9.673c0,0.479,0.146,0.842,0.438,1.074
			c0.389,0.321,1.096,0.479,2.112,0.479V24.938L126.54,24.938z"/>
		<path fill="#1B2B66" d="M134.814,20.267c0,3.111-1.295,4.67-3.894,4.67c-2.606,0-3.907-1.56-3.907-4.67
			c0-3.126,1.301-4.688,3.907-4.688C133.52,15.579,134.814,17.14,134.814,20.267 M133.177,20.267c0-0.956-0.143-1.648-0.426-2.074
			c-0.347-0.529-0.956-0.796-1.829-0.796c-0.871,0-1.479,0.267-1.829,0.796c-0.28,0.425-0.423,1.119-0.423,2.074
			c0,0.956,0.143,1.646,0.423,2.072c0.351,0.519,0.96,0.778,1.829,0.778c0.874,0,1.482-0.26,1.829-0.778
			C133.034,21.913,133.177,21.223,133.177,20.267"/>
		<path fill="#1B2B66" d="M137.667,13.706h-1.64v-1.817h1.64V13.706z M136.027,15.579h1.64v9.358h-1.64V15.579z"/>
		<path fill="#1B2B66" d="M77.271,20.85c0,1.588,0.838,2.592,2.354,2.592c1.04,0,1.589-0.291,2.242-0.952l1.187,1.112
			c-0.947,0.953-1.84,1.441-3.464,1.441c-2.317,0-4.159-1.223-4.159-4.741c0-2.99,1.551-4.723,3.92-4.723
			c2.483,0,3.924,1.82,3.924,4.449v0.822H77.271z M81.175,18.295c-0.29-0.692-0.95-1.167-1.823-1.167
			c-0.875,0-1.55,0.475-1.842,1.167c-0.182,0.421-0.219,0.694-0.236,1.259h4.158C81.412,18.989,81.359,18.715,81.175,18.295"/>
		<path fill="#1B2B66" d="M90.75,20.85c0,1.588,0.838,2.592,2.354,2.592c1.039,0,1.586-0.291,2.244-0.952l1.185,1.112
			c-0.948,0.953-1.843,1.441-3.464,1.441c-2.316,0-4.159-1.223-4.159-4.739c0-2.992,1.552-4.726,3.922-4.726
			c2.481,0,3.922,1.82,3.922,4.449v0.821H90.75V20.85z M94.652,18.295c-0.291-0.692-0.947-1.167-1.822-1.167
			c-0.876,0-1.548,0.475-1.844,1.167c-0.182,0.421-0.217,0.694-0.236,1.259h4.158C94.891,18.989,94.834,18.715,94.652,18.295"/>
	</g>
	<g>
		<path fill="#1B2B66" d="M44.562,25.674c0.264-1.298-0.531-1.578-0.961-1.639c-0.082-0.008-0.165-0.014-0.255-0.014
			c-0.488,0-0.877,0.155-1.123,0.383c-0.297,0.271-1.161,1.082-1.605,1.469c-0.451,0.396-0.944,0.766-1.477,1.109
			c-0.547,0.353-1.115,0.615-1.703,0.781c-0.59,0.168-1.234,0.247-1.932,0.247c-1.055,0-2.035-0.263-2.914-0.786
			c-0.888-0.527-1.597-1.313-2.119-2.334c-0.486-0.943-0.748-2.021-0.798-3.216c-0.014-0.396,0.29-0.636,0.642-0.636h10.662
			c1.437,0.001,2.528-0.208,3.265-0.591c0.658-0.34,1.031-1.092,1.037-2.456c0-1.468-0.374-2.905-1.134-4.331
			c-0.753-1.412-1.88-2.563-3.406-3.463c-1.513-0.892-3.332-1.343-5.481-1.344c-1.653,0-3.146,0.266-4.49,0.79
			c-1.345,0.526-2.466,1.276-3.377,2.254c-0.914,0.98-1.612,2.155-2.091,3.536c-0.481,1.383-0.723,2.885-0.723,4.512
			c0.002,3.466,0.977,6.158,2.911,8.146c1.933,1.983,4.632,2.985,8.182,2.988c1.513,0.001,2.845-0.191,4-0.574
			C41.782,29.764,44.158,27.658,44.562,25.674z M29.701,17.885c0.219-1.808,0.767-3.228,1.687-4.218
			c0.955-1.032,2.213-1.56,3.687-1.557c1.536-0.003,2.828,0.513,3.787,1.534c0.931,0.989,1.454,2.431,1.619,4.282
			c0.022,0.31-0.303,0.58-0.636,0.58h-9.508C29.99,18.504,29.647,18.226,29.701,17.885z"/>
		<circle fill="#1B2B66" cx="26.477" cy="19.972" r="16.81"/>
		<path fill="#1B2B66" d="M11.805,25.385c-0.804-2.166-1.138-4.544-0.889-6.995c0.872-8.579,8.561-14.85,17.141-13.978
			c7.011,0.713,12.286,5.944,13.571,11.883c1.123,5.135-6.743,5.457-13.633,4.039C22.265,18.314,14.78,18.478,11.805,25.385z"/>
		<circle fill="#1B2B66" cx="26.476" cy="19.972" r="15.641"/>
		<path fill="#FFFFFF" d="M42.774,24.104c-0.224,0.068-0.412,0.174-0.551,0.302c-0.297,0.272-1.161,1.081-1.605,1.47
			c-0.451,0.396-0.944,0.768-1.477,1.107c-0.547,0.354-1.115,0.615-1.703,0.783c-0.59,0.166-1.234,0.248-1.932,0.248
			c-1.055,0-2.035-0.264-2.914-0.789c-0.888-0.524-1.597-1.312-2.119-2.332c-0.486-0.942-0.748-2.021-0.798-3.215
			c-0.014-0.398,0.29-0.637,0.642-0.637h10.662c0.898,0,1.661-0.082,2.286-0.234c0.014-0.276,0.021-0.556,0.021-0.833
			c0-3.859-1.302-7.414-3.488-10.252c-1.311-0.571-2.818-0.862-4.539-0.863c-1.653,0-3.146,0.266-4.49,0.79
			c-1.345,0.526-2.466,1.276-3.377,2.254c-0.914,0.98-1.612,2.155-2.091,3.536c-0.481,1.383-0.723,2.885-0.723,4.512
			c0.002,3.466,0.977,6.155,2.911,8.146c1.933,1.982,4.632,2.984,8.182,2.987c1.458,0.001,2.746-0.183,3.871-0.535
			C41.051,28.686,42.169,26.497,42.774,24.104z M29.701,17.885c0.219-1.808,0.767-3.228,1.687-4.218
			c0.955-1.032,2.213-1.56,3.687-1.557c1.536-0.003,2.828,0.513,3.787,1.534c0.931,0.989,1.454,2.431,1.619,4.282
			c0.022,0.31-0.303,0.58-0.636,0.58h-9.508C29.99,18.504,29.647,18.226,29.701,17.885z"/>
	</g>
</g>
</svg>
