<?xml version="1.0" encoding="utf-8"?>
<!-- Generator: Adobe Illustrator 24.1.3, SVG Export Plug-In . SVG Version: 6.00 Build 0)  -->
<svg version="1.1" id="Calque_1" xmlns="http://www.w3.org/2000/svg" xmlns:xlink="http://www.w3.org/1999/xlink" x="0px" y="0px"
	 viewBox="0 0 412 320" style="enable-background:new 0 0 412 320;" xml:space="preserve">
<style type="text/css">
	.st0{filter:url(#filter-2);}
	.st1{fill-rule:evenodd;clip-rule:evenodd;}
	.st2{fill-rule:evenodd;clip-rule:evenodd;fill:#FFFFFF;}
	.st3{fill-rule:evenodd;clip-rule:evenodd;fill:#152E3A;}
	.st4{fill:#1A3D4B;}
	.st5{fill:none;stroke:#BCE6FC;stroke-width:3;}
	.st6{fill-rule:evenodd;clip-rule:evenodd;fill:#BCE6FC;}
	.st7{fill:#C6EAFF;}
	.st8{fill:#38353A;}
</style>
<filter  filterUnits="objectBoundingBox" height="168.6%" id="filter-2" width="148.1%" x="-24.1%" y="-34.3%">
	<feOffset  dx="0" dy="0" in="SourceAlpha" result="shadowOffsetOuter1"></feOffset>
	<feGaussianBlur  in="shadowOffsetOuter1" result="shadowBlurOuter1" stdDeviation="25"></feGaussianBlur>
	
		<feColorMatrix  in="shadowBlurOuter1" type="matrix" values="0 0 0 0 0.877104446   0 0 0 0 0.917217183   0 0 0 0 0.937273551  0 0 0 1 0">
		</feColorMatrix>
</filter>
<g id="Page-1">
	<g id="V3_2" transform="translate(-800.000000, -1235.000000)">
		<g id="LAYER_3" transform="translate(129.000000, 1056.000000)">
			<g id="Group" transform="translate(103.000000, 204.000000)">
				<g id="ILLU_2" transform="translate(618.000000, 0.000000)">
					<g id="Group-3" transform="translate(0.000000, 25.442433)">
						<g id="Group-2" transform="translate(71.000000, 74.557567)">
							<g id="Rectangle">
								<g class="st0">
									<path id="path-1_2_" class="st1" d="M-67.4-74.3h303.6c2.2,0,4,1.8,4,4v210.6c0,2.2-1.8,4-4,4H-67.4c-2.2,0-4-1.8-4-4
										V-70.3C-71.4-72.5-69.6-74.3-67.4-74.3z"/>
								</g>
								<g>
									<path id="path-1_1_" class="st2" d="M-67.4-74.3h303.6c2.2,0,4,1.8,4,4v210.6c0,2.2-1.8,4-4,4H-67.4c-2.2,0-4-1.8-4-4
										V-70.3C-71.4-72.5-69.6-74.3-67.4-74.3z"/>
								</g>
							</g>
							<rect id="Rectangle-Copy" x="34.2" y="8.5" class="st3" width="134" height="11.5"/>
							<path class="st4" d="M9.3,21.6l-7.7-7.7c-0.5-0.5-0.5-1.2,0-1.7l1.7-1.7c0.5-0.5,1.2-0.5,1.7,0l5.2,5.2L21.2,4.7
								c0.5-0.5,1.2-0.5,1.7,0l1.7,1.7C25,6.8,25,7.6,24.5,8L10.9,21.6C10.5,22.1,9.7,22.1,9.3,21.6L9.3,21.6z"/>
							<path class="st4" d="M9.3,86.7l-7.7-7.7c-0.5-0.5-0.5-1.2,0-1.7l1.7-1.7c0.5-0.5,1.2-0.5,1.7,0l5.2,5.2l11.1-11.1
								c0.5-0.5,1.2-0.5,1.7,0l1.7,1.7c0.5,0.5,0.5,1.2,0,1.7L10.9,86.7C10.5,87.2,9.7,87.2,9.3,86.7L9.3,86.7z"/>
							<path class="st4" d="M9.2,54.5l-7.7-7.7c-0.5-0.5-0.5-1.2,0-1.7l1.7-1.7c0.5-0.5,1.2-0.5,1.7,0l5.2,5.2l11.1-11.1
								c0.5-0.5,1.2-0.5,1.7,0l1.7,1.7c0.5,0.5,0.5,1.2,0,1.7L10.9,54.5C10.4,54.9,9.7,54.9,9.2,54.5L9.2,54.5z"/>
							<path class="st4" d="M9.3,118.1l-7.7-7.7c-0.5-0.5-0.5-1.2,0-1.7l1.7-1.7c0.5-0.5,1.2-0.5,1.7,0l5.2,5.2l11.1-11.1
								c0.5-0.5,1.2-0.5,1.7,0l1.7,1.7c0.5,0.5,0.5,1.2,0,1.7l-13.6,13.6C10.5,118.6,9.7,118.6,9.3,118.1L9.3,118.1z"/>
							<rect id="Rectangle-Copy-3" x="34.2" y="41" class="st3" width="134" height="11.5"/>
							<rect id="Rectangle-Copy-6" x="34.2" y="72.9" class="st3" width="134" height="11.5"/>
							<rect id="Rectangle-Copy-7" x="34.2" y="104.6" class="st3" width="134" height="11.5"/>
						</g>
						<path id="Rectangle_1_" class="st5" d="M29.9,41.4h251.2c4.1,0,7.5,3.4,7.5,7.5v1.9c0,4.1-3.4,7.5-7.5,7.5H29.9
							c-4.1,0-7.5-3.4-7.5-7.5v-1.9C22.4,44.7,25.7,41.4,29.9,41.4z"/>
						<path id="Rectangle-Copy-4" class="st6" d="M29.9,41.4h251c4.1,0,7.5,3.4,7.5,7.5v1.9c0,4.1-3.4,7.5-7.5,7.5h-251
							c-4.1,0-7.5-3.4-7.5-7.5v-1.9C22.4,44.7,25.7,41.4,29.9,41.4z"/>
					</g>
					<g>
						<path class="st7" d="M156,1c-13.8,0-25,11.2-25,25s11.2,25,25,25s25-11.2,25-25S169.8,1,156,1z M161.4,32h-10.7v-2.1l5.1-5.4
							c0.7-0.8,1.2-1.4,1.5-2c0.3-0.6,0.5-1.1,0.5-1.6c0-0.7-0.2-1.2-0.5-1.6c-0.4-0.4-0.9-0.6-1.5-0.6c-0.7,0-1.3,0.2-1.7,0.7
							c-0.4,0.5-0.6,1.1-0.6,1.9h-3.1c0-1,0.2-1.8,0.7-2.6c0.5-0.8,1.1-1.4,1.9-1.9c0.8-0.4,1.8-0.7,2.8-0.7c1.6,0,2.9,0.4,3.8,1.2
							c0.9,0.8,1.3,1.9,1.3,3.3c0,0.8-0.2,1.6-0.6,2.4s-1.1,1.7-2.1,2.8l-3.6,3.7h6.7V32z"/>
						<path class="st8" d="M158.2,25.7c1-1.1,1.7-2,2.1-2.8s0.6-1.6,0.6-2.4c0-1.4-0.4-2.5-1.3-3.3c-0.9-0.8-2.1-1.2-3.8-1.2
							c-1.1,0-2,0.2-2.8,0.7c-0.8,0.4-1.5,1.1-1.9,1.9c-0.5,0.8-0.7,1.7-0.7,2.6h3.1c0-0.8,0.2-1.4,0.6-1.9c0.4-0.5,1-0.7,1.7-0.7
							c0.7,0,1.2,0.2,1.5,0.6c0.4,0.4,0.5,0.9,0.5,1.6c0,0.5-0.2,1-0.5,1.6c-0.3,0.6-0.8,1.2-1.5,2l-5.1,5.4V32h10.7v-2.5h-6.7
							L158.2,25.7z"/>
					</g>
				</g>
			</g>
		</g>
	</g>
</g>
</svg>
