<svg xmlns="http://www.w3.org/2000/svg" xmlns:xlink="http://www.w3.org/1999/xlink" width="428" height="349" viewBox="0 0 428 349">
    <defs>
        <path id="prefix__a" d="M0.04 0.668L119.943 0.668 119.943 59.364 0.04 59.364z"/>
    </defs>
    <g fill="none" fill-rule="evenodd">
        <path fill="#CCEDFF" d="M234.738 328.262C147.64 319.421 75.548 255.71 43.958 174.5 12.37 93.29 131.302 24.112 216.963 20.148c85.662-3.963 151.788 72.02 151.788 158.566s-46.913 158.39-134.013 149.548z" opacity=".651"/>
        <g>
            <path fill="#FFF" d="M340.19 242.37c.07-.041.514.544 1.17 1.696.659 1.149 1.478 2.893 2.24 5.143 1.56 4.486 2.54 11.107 1.96 18.329-.577 7.22-2.247 13.558-3.536 18.07-1.318 4.513-2.289 7.253-2.456 7.207-.185-.051.47-2.886 1.552-7.444 1.054-4.556 2.558-10.86 3.122-17.933.566-7.07-.24-13.506-1.535-17.955-1.258-4.471-2.725-7.005-2.518-7.113M344.642 206.233c.083-.036.62.945 1.515 2.754.894 1.81 2.151 4.447 3.638 7.737 2.95 6.58 6.92 15.792 9.799 26.486 1.415 5.35 2.38 10.55 2.869 15.325.492 4.775.542 9.114.296 12.735-.239 3.622-.697 6.529-1.137 8.506-.436 1.98-.78 3.047-.859 3.03-.244-.048.834-4.407 1.063-11.58.285-7.158-.656-17.102-3.51-27.676-2.846-10.578-6.654-19.794-9.379-26.456l-3.25-7.897c-.75-1.873-1.129-2.926-1.045-2.964M179.858 248.647c.153.165-1.346 1.593-3.29 4.244-.483.666-1.007 1.394-1.498 2.226-.536.802-1.003 1.721-1.522 2.67-.966 1.936-1.882 4.135-2.589 6.53-.676 2.403-1.07 4.753-1.283 6.905-.064 1.08-.159 2.107-.132 3.07-.027.965.03 1.862.083 2.682.236 3.278.745 5.283.528 5.342-.132.045-.97-1.892-1.457-5.247-.116-.838-.228-1.758-.25-2.755-.074-.995-.02-2.06.013-3.181.152-2.235.525-4.687 1.229-7.181.732-2.487 1.72-4.76 2.783-6.734.567-.969 1.087-1.899 1.682-2.701.547-.834 1.133-1.554 1.677-2.202 2.197-2.582 3.94-3.775 4.026-3.668M183.374 260.217c.111.177-.724.815-1.814 2.035-.552.603-1.134 1.384-1.706 2.289-.549.92-1.074 1.977-1.486 3.141-.394 1.17-.632 2.326-.768 3.39-.108 1.064-.132 2.037-.069 2.852.106 1.632.37 2.65.173 2.72-.141.06-.735-.87-1.099-2.596-.19-.86-.267-1.913-.218-3.08.077-1.162.3-2.437.732-3.716.449-1.274 1.06-2.414 1.717-3.378.68-.95 1.392-1.73 2.07-2.29 1.351-1.136 2.393-1.503 2.468-1.367M134.554 152.397c.069-.06.66.522 1.675 1.631.515.549 1.124 1.24 1.768 2.092.651.845 1.434 1.783 2.169 2.91.379.556.777 1.138 1.19 1.746.41.61.782 1.28 1.195 1.955.846 1.342 1.605 2.856 2.43 4.436 1.558 3.204 3.048 6.842 4.235 10.784 1.148 3.954 1.877 7.817 2.313 11.353.166 1.774.353 3.458.372 5.042.02.792.072 1.555.06 2.291-.016.734-.033 1.439-.049 2.111-.003 1.348-.15 2.558-.237 3.622-.078 1.065-.213 1.975-.347 2.715-.248 1.482-.428 2.292-.519 2.28-.232-.032.206-3.317.17-8.626-.013-.664-.024-1.358-.037-2.082-.015-.724-.092-1.476-.136-2.253-.065-1.558-.29-3.21-.485-4.95-.496-3.466-1.246-7.247-2.373-11.128-1.165-3.87-2.592-7.452-4.062-10.63-.782-1.567-1.493-3.076-2.284-4.419-.388-.677-.732-1.348-1.112-1.964l-1.102-1.767c-2.857-4.477-5.013-6.996-4.834-7.149M149.517 158.583c.112-.1 1.63 1.318 3.56 4.052.971 1.36 1.995 3.076 2.991 5.054.968 1.99 1.89 4.252 2.627 6.702.715 2.457 1.169 4.857 1.44 7.054.239 2.202.313 4.196.237 5.867-.134 3.342-.637 5.357-.785 5.334-.213-.026-.042-2.066-.15-5.335-.043-1.634-.212-3.574-.509-5.707-.33-2.13-.807-4.451-1.5-6.838-.716-2.38-1.578-4.589-2.46-6.555-.91-1.953-1.824-3.672-2.676-5.069-1.687-2.802-2.939-4.422-2.775-4.56" transform="translate(.75)"/>
            <path fill="#FF7B5B" d="M97.124 266.617L95.974 264.27 63.952 288.716 77.922 311.328 109.797 284.475z" transform="translate(.75)"/>
            <path fill="#D7D4D4" d="M65.294 289.239L77.567 310.444 78.351 310.094 67.423 290.267z" transform="translate(.75)"/>
            <path fill="#F5F3F3" d="M96.491 266.152l-31.197 23.086s.131.496.905.802c.775.305 1.224.227 1.224.227l32.798-22.428s-1.891-.44-2.577-.95c-.686-.514-1.153-.737-1.153-.737" transform="translate(.75)"/>
            <path fill="#FF7B5B" d="M101.023 266.934l-34.186 22.815 11.103 21.025 1.788 2.912 34.187-25.281s-3.6-5.37-5.762-8.612c-2.162-3.242-6.406-10.888-6.637-11.378-.232-.49-.493-1.481-.493-1.481" transform="translate(.75)"/>
            <path fill="#775298" d="M382.945 109.422L383.91 107.451 410.8 127.979 399.069 146.968 372.302 124.418z" transform="translate(.75)"/>
            <path fill="#D7D4D4" d="M409.673 128.418L399.368 146.225 398.709 145.932 407.886 129.282z" transform="translate(.75)"/>
            <path fill="#F5F3F3" d="M383.476 109.031l26.197 19.387s-.11.416-.76.672c-.65.257-1.028.192-1.028.192l-27.541-18.835s1.588-.368 2.164-.798c.576-.43.968-.618.968-.618" transform="translate(.75)"/>
            <path fill="#775298" d="M379.67 109.688l28.708 19.158-9.323 17.656-1.502 2.445-28.71-21.23s3.025-4.51 4.84-7.232c1.817-2.722 5.38-9.143 5.573-9.554.194-.41.415-1.243.415-1.243" transform="translate(.75)"/>
            <path fill="#FF7B5B" d="M58.894 72.474s-2.03 1.404-1.015 3.745c1.015 2.34 5.466 9.284 11.479 9.05.246-.009-7.575-12.795-7.575-12.795h-2.889z" transform="translate(.75)"/>
            <path fill="#775298" d="M49.697 200.482s-7.52-6.711-9.926-5.509c-2.941 1.47-19.774 17.948-19.116 25.711.27 3.18 3.975.456 10.576-6.386 6.603-6.84 14.917-3.909 14.917-3.909l3.549-9.907zM67.964 211.8l-9.077-5.44s-23.527 22.038-19.851 24.976c2.788 2.229 4.426.23 11.028-6.612 6.602-6.84 14.966-2.906 14.966-2.906l2.934-10.018z" transform="translate(.75)"/>
            <path fill="#F3A683" d="M123.409 139.294L125.111 163.443 87.328 153.608z" transform="translate(.75)"/>
            <path fill="#112129" d="M87.328 154.44s33.05 2.08 37.45.613c0 0 6.46 63.4-5.033 70.239-11.493 6.842-37.284-3.176-37.284-3.176l6.963-13.681 15.015-.978v-24.431l-1.078.244-16.033-28.83z" transform="translate(.75)"/>
            <path fill="#22343D" d="M45.899 197.685s-8.313 3.42-5.624 11.728c0 0 28.378 22.232 42.186 17.101 7.736-2.874 16.046-24.804 21.86-43.54l20.458-27.92s-9.649.482-12.868.47c-6.152-.024-24.583-1.085-24.583-1.085S77.7 204.77 74.27 205.992c-3.43 1.22-28.371-8.307-28.371-8.307" transform="translate(.75)"/>
            <path fill="#FFC6B2" d="M95.03 91.313s19.807-18.569 23.23-23.456c3.422-4.886 10.76-21.256 19.805-28.096l-4.4-9.285s2.69-1.465 4.4 2.443c0 0 6.357-12.704 7.825-12.46 1.468.244-2.934 9.773-2.934 9.773s6.115-8.796 7.826-8.551c1.71.244-4.402 9.888-4.402 9.888s6.845-7.934 7.825-6.956c.978.977-5.38 6.956-5.38 6.956s6.846-3.928 7.58-2.633c.734 1.296-6.847 4.716-6.847 4.716s-.733 5.62-5.378 8.062c0 0-9.2 24.832-17.513 32.894l-26.708 27.735-4.93-11.03zM71.385 100.937s-18.768 19.616-23.69 22.99c-4.923 3.373-21.373 10.552-28.303 19.527l-9.25-4.485s-1.492 2.673 2.404 4.42c0 0-12.775 6.233-12.543 7.702.23 1.469 9.808-2.84 9.808-2.84s-8.86 6.027-8.632 7.738c.23 1.711 9.937-4.306 9.937-4.306s-8.004 6.766-7.034 7.752c.967.987 7.012-5.308 7.012-5.308s-3.995 6.803-2.705 7.548c1.289.745 4.783-6.797 4.783-6.797s5.63-.678 8.12-5.298c0 0 23.54-9.359 31.687-17.59l29.294-20.74-10.888-10.313z" transform="translate(.75)"/>
            <path fill="#FFF" d="M78.421 93.119l-9.492 9.284 2.407 10.466s9.352 22.433 10.766 27.906c2.197 8.51-1.357 21.485-1.357 21.485s15.853-1.316 30.28-1.804c14.424-.489 19.143-5.132 19.143-5.132s-12.507-41.621-21.142-53.256c-8.636-11.633-11.777-15.275-11.777-15.275L84.534 89.57l-6.113 3.549z" transform="translate(.75)"/>
            <path fill="#FFF" d="M106.279 100.696l9.89-6.314s1.511-6.765-10.416-14.745l-13.986 8.757 14.512 12.302zM70.93 101.669c-5.423.76-15.331 14.49-16.436 14.465 0 0 6.973 11.37 12.497 11.74 0 0 24.31-29.06 3.938-26.205" transform="translate(.75)"/>
            <path fill="#FFC6B2" d="M90.07 92.735s-7.882-5.884-7.609-8.23c.07-.59 1.162-1.55 1.446-2.4 1.528-4.582-5.84-16.385-10.367-18.872-3.561-1.957-2-2.13-9.495 2.32-7.494 4.45-3.224 12.145.122 16.125 3.164 3.762 6.788 5.374 10.048 5.646l4.636 10.287 11.218-4.876z" transform="translate(.75)"/>
            <path fill="#FFC6B2" d="M75.848 100.902c-1.49-3.653 1.332-8.255 6.305-10.282 4.975-2.027 10.214-.709 11.707 2.943 1.49 3.652-3.515 9.143-6.309 10.282-2.793 1.138-10.213.709-11.703-2.943M64.168 81.679s-2.556-.142-2.84 1.56c-.285 1.703 4.685 1.703 6.532.426l-3.692-1.986z" transform="translate(.75)"/>
            <path fill="#FF7B5B" d="M65.446 83.24c-.486-3.077-3.766-5.364-3.603-8.36 1.573.012 2.583-1.934 1.867-3.598-.282-.653-.759-1.212-1.064-1.857-.303-.644-.384-1.488.082-1.852.221-.172.52-.202.807-.23 2.331-.24 6.325.459 8.47-.336 2.044-.756 4.232-2.227 4.02-4.727-.186-2.178-2.11-3.943-3.878-5.277-1.012-.765-3.906-2.764-4.998-2.583-1.666.277-2.07 2.499-2.19 4.358-1.166-1.109-2.886-.931-3.9-.029-1.013.902-1.493 2.336-1.934 3.72-.443 1.385-.911 2.822-1.911 3.742-.932.857-2.406 1.505-2.213 2.963.23 1.738 2.501 2.355 3.551 3.837-.258-.363-.477 1.957-.328 2.35.448 1.184 1.566 1.969 2.375 2.875 1.722 1.931 2.565 3.876 4.847 5.003" transform="translate(.75)"/>
            <path fill="#FFF" d="M79.726 76.206l-5.824 3.01s6.995 5.073 5.824-3.01" transform="translate(.75)"/>
            <path fill="#FFB2A0" d="M71.713 77.399c.319.603-.152 1.476-1.052 1.949-.899.473-1.886.367-2.204-.237-.317-.603.153-1.475 1.052-1.948.9-.473 1.886-.367 2.204.236M80.218 71.595c.318.603-.153 1.476-1.052 1.948-.9.473-1.886.367-2.205-.236-.317-.604.153-1.476 1.052-1.949.9-.473 1.886-.367 2.205.237" transform="translate(.75)"/>
            <path fill="#FF7B5B" d="M75.66 75.992c-.026-.033.082-.176.334-.358.24-.185.659-.385.97-.72.307-.324.418-1-.053-1.094-.49-.166-1.046.395-1.683.928l-.469.388c-.144.133-.448.327-.763.288-.601-.098-.857-.498-1.088-.766-.462-.592-.746-1.212-.904-1.748-.313-1.084-.172-1.784-.097-1.778.105-.005.14.668.537 1.621.2.474.499 1.012.934 1.52.213.258.48.498.67.506.08.004.143-.023.293-.15l.463-.387c.32-.26.599-.522.966-.766.357-.24.866-.392 1.321-.238.487.128.773.695.688 1.09-.055.4-.255.697-.482.913-.48.4-.909.498-1.179.619-.277.105-.429.17-.458.132" transform="translate(.75)"/>
            <path fill="#FFA192" d="M74.215 87.324s3.716.021 5.731-1.22c0 0-1.705 2.093-5.117 2.635l-.614-1.415z" transform="translate(.75)"/>
            <path fill="#22343D" d="M75.827 70.677c-.034.184-.553.24-1.102.483-.557.224-.96.558-1.114.454-.159-.083.104-.746.856-1.063.75-.318 1.409-.047 1.36.126M68.546 75.449c-.14-.104.08-.701.615-1.3.541-.611 1.233-.815 1.306-.644.077.166-.345.554-.819 1.09-.482.536-.95.967-1.102.854" transform="translate(.75)"/>
            <path fill="#FF7B5B" d="M65.724 74.527c-.301-.223-.536-1.178.616-2.463 1.163-1.315 2.462-1.083 2.618-.718.168.358-.265.869-1.286 2.025-1.035 1.152-1.622 1.4-1.948 1.156M71.84 69.462c-.167-.311.017-1.217 1.516-1.849 1.519-.652 2.532.068 2.517.441-.003.372-.575.633-1.91 1.207-1.344.564-1.943.54-2.123.201" transform="translate(.75)"/>
            <path fill="#775298" d="M391.428 78.476c.098.097-1.515 1.911-4.864 3.887-3.307 1.973-8.511 3.93-14.497 3.974-5.986.044-11.218-1.835-14.555-3.76-3.376-1.926-5.017-3.717-4.92-3.816.139-.176 1.974 1.335 5.355 2.989 3.349 1.66 8.396 3.308 14.11 3.267 5.715-.043 10.736-1.765 14.06-3.475 3.356-1.704 5.17-3.241 5.311-3.066M354.911 75.735c-.091.201-1.878-.54-4.888-1.21-1.5-.354-3.32-.627-5.348-.879-2.035-.225-4.285-.403-6.66-.573-2.376-.166-4.65-.357-6.717-.613-2.065-.273-3.921-.6-5.45-1.012-3.07-.8-4.81-1.748-4.749-1.882.08-.202 1.909.422 4.948.969 1.517.289 3.347.513 5.385.716 2.043.186 4.299.339 6.678.506 2.381.17 4.66.387 6.724.683 2.062.324 3.913.7 5.427 1.181 3.04.928 4.719 1.988 4.65 2.114" transform="translate(.75)"/>
            <g transform="translate(.75) translate(306.6 24.16)">
                <mask id="prefix__b" fill="#fff">
                    <use xlink:href="#prefix__a"/>
                </mask>
                <path fill="#775298" d="M12.1 12.557c5.708-1.21 11.62-.169 17.374.79 5.755.957 11.73 1.821 17.355.278C56.987 10.84 64.698.585 75.231.668c4.338.034 8.426 1.884 12.652 2.864 5.247 1.216 10.713 1.085 16.029 1.953 5.316.868 10.807 3.004 13.812 7.471 3.564 5.302 2.587 12.78-1.153 17.959-3.74 5.18-9.73 8.334-15.867 10.121-4.28 1.247-8.84 1.967-12.545 4.448-3.747 2.508-6.194 6.546-9.685 9.4-8.76 7.157-22.393 5.106-31.442-1.684-2.273-1.706-4.38-3.685-6.935-4.934-10.39-5.081-25.331 1.645-34.279-7.6-9.086-9.389-7.792-25.127 6.283-28.11" mask="url(#prefix__b)"/>
            </g>
            <path fill="#FFB2A0" d="M315.85 218.55s9.52 20.387 10.633 16.612c1.11-3.776.743-12.842.147-14.137-.6-1.294-4.49-7.013-4.49-7.013l-6.29 4.539z" transform="translate(.75)"/>
            <path fill="#FFC6B2" d="M384.681 53.702c.881 1.127.293-.084 1.29 1.542 4.145-.144 6.927-3.649 6.927-3.649s6.58.174 6.503-1c-.075-1.176-6.307-.737-6.307-.737s6.593-2.069 6.231-3.102c-.36-1.032-7.97 2.26-7.97 2.26s7.68-4.763 6.545-5.527c-1.134-.762-8.524 3.396-8.524 3.396s6.423-5.27 5.46-5.95c-.96-.68-9.87 6.18-9.87 6.18.13-3.374-2.292-3.256-2.292-3.256l.1 8.24s1.501 1.084 1.907 1.603M287.16 16.408c-1.408.26-.316-.23-2.143.328-3.002-2.86-2.604-7.354-2.604-7.354s-5.033-4.234-4.198-5.061c.84-.83 5.206 3.633 5.206 3.633s-3.553-5.921-2.597-6.454c.955-.532 4.46 6.979 4.46 6.979s-2.58-8.657-1.223-8.476c1.354.182 4.118 8.192 4.118 8.192s-1.3-8.2-.132-8.07c1.17.128 3.276 11.168 3.276 11.168 2.144-2.61 3.876-.914 3.876-.914l-5.436 5.974s-1.955-.063-2.603.055M321.308 50.827c-1.82-.299-6.222 2.625-8.424 7.389-1.233 2.666-2.081 5.375-.667 9.712.667 2.04 2.061 2.295 2.373 3.21.393 1.156-.91 4.803-.91 4.803l5.196 2.097c.338-2.505.72-5.026 3.276-6.114.956-.407 1.979-.665 2.881-1.182 2.434-1.394 3.734-4.444 4.734-6.941.747-1.865-3.894-12.226-8.459-12.974" transform="translate(.75)"/>
            <path fill="#FFB2A0" d="M315.123 121.631l-8.706-3.49s-25.835 47.87-25.728 61.152c.107 13.28 35.484 39.873 35.484 39.873l5.966-5.153s-10.922-19.03-16.76-25.738c-5.84-6.711 9.744-66.644 9.744-66.644" transform="translate(.75)"/>
            <path fill="#FFC6B2" d="M358.346 176.162s19.187-9.096 15.332-9.9c-3.856-.799-12.873.304-14.114 1.003-1.244.7-6.631 5.04-6.631 5.04l5.413 3.857z" transform="translate(.75)"/>
            <path fill="#FFC6B2" d="M323.674 121.216l-13.206 4.8s-13.21 58.056-8.167 67.17c5.041 9.118 19.204 3.084 39.375-7.915l16.896-9.215-5.64-3.75s-19.66 3.849-25.181 7.686c0 0 2.881-8.157 6.723-19.672 3.841-11.515 6.49-23.27-10.8-39.104M307.419 81.665c0-3.858 1.242-6.647 5.103-6.647 3.86 0 9.197 1.352 9.197 5.21 0 3.859-3.042 10.123-6.905 10.123-3.86 0-7.395-4.827-7.395-8.686" transform="translate(.75)"/>
            <path fill="#FFC6B2" d="M310.467 74.465s-12.004-12.98-14.405-25.696c-2.402-12.714-6.482-33.346-6.482-33.346l-4.562 1.313s-2.162 28.196 0 32.514c2.16 4.318 12.718 33.067 15.933 40.617l9.516-15.402zM323.364 84.581s.923-4.037 16.103-9.525c15.18-5.487 43.818-23.273 43.818-23.273l2.857 3.266s-15.56 17.96-24.613 21.11c-9.053 3.15-28.28 15.57-30.259 16.563-2.992 1.504-2.955 3.396-7.906-8.14" transform="translate(.75)"/>
            <path fill="#22343D" d="M310.467 74.465s-12.196 3.95-12.196 22.492c0 0 .008 25.397 2.882 30.017 0 0 4.673 1.196 10.5 0 6.108-1.255 12.02-5.758 12.02-5.758l9.595-28.779-1.148-13.483-13.044-2.517s3.742 17.472-9.797 9.96c-2.632-1.459 3.87-11.372 3.87-11.372l-2.682-.56z" transform="translate(.75)"/>
            <path fill="#22343D" d="M300.148 89.546l-6.01-12.51s.862-7.59 11.894-10.309c0 0 1.116 3.826 2.34 5.287 1.222 1.46 4.782 3.015 4.782 3.015l-13.006 14.517zM322.868 94.575l19.11-3.914s3.323-6.879-4.555-15.06c0 0-14.907.899-16.836 1.06-1.9.157-.595 1.618-.595 1.618l2.876 16.296zM301.123 120.788s-18.076 33.391-21.062 39.357c0 0 53.326 24.476 74.973-4.985 0 0-12.314-26.04-31.35-35.955l-8.212-2.457-14.028 3.88" transform="translate(.75)"/>
            <path fill="#FFC6B2" d="M329.068 63.485s2.059-2.057 3.325-.633c1.267 1.424-4.592 3.481-4.592 3.481l1.267-2.848z" transform="translate(.75)"/>
            <path fill="#775298" d="M366.73 35.426c.02.071-.775.415-2.294.776-1.514.364-3.762.694-6.554.751-2.79.056-6.108-.192-9.74-.684-3.633-.481-7.581-1.189-11.735-1.641-4.147-.443-8.134-.524-11.665.046-3.533.56-6.59 1.716-8.927 3.066-2.337 1.36-3.963 2.87-4.962 4.013-1.004 1.143-1.456 1.874-1.557 1.812-.056-.029.246-.851 1.156-2.133.904-1.278 2.499-2.964 4.878-4.49 2.378-1.515 5.538-2.817 9.21-3.468 3.676-.661 7.789-.61 12.008-.159 4.222.46 8.175 1.208 11.767 1.75 3.591.552 6.837.89 9.57.954 5.479.153 8.795-.819 8.845-.593" transform="translate(.75)"/>
            <path fill="#FF7B5B" d="M318.582 62.317c-.005.08-.592.137-1.487-.16-.222-.077-.483-.18-.727-.402-.12-.112-.231-.26-.3-.437-.098-.25-.09-.532.007-.747.029-.043.027-.146.084-.148l.174-.006c.111-.015.243.021.372.045.237.046.313.039.48.05.296.007.602-.024.908-.09 1.25-.264 2.087-1.173 2.462-1.92.393-.753.428-1.32.533-1.312.074-.01.22.591-.105 1.5-.166.444-.453.955-.918 1.402-.461.447-1.1.814-1.827.973-.363.08-.727.111-1.078.093-.153-.008-.393-.038-.464-.054-.064-.01-.056-.025-.069-.017-.008.008-.011.02-.01.038.026.087.073.17.139.244.134.15.328.263.517.357.775.38 1.324.492 1.31.591" transform="translate(.75)"/>
            <path fill="#FFF" d="M314.295 62.54l7.04 2.77s-6.186 4.263-7.04-2.77" transform="translate(.75)"/>
            <path fill="#FFB2A0" d="M324.341 63.873c-.25.475-1.025.557-1.732.185-.707-.37-1.077-1.057-.828-1.53.25-.475 1.026-.559 1.733-.187.707.372 1.077 1.057.827 1.532M316.485 59.71c-.214.493-.98.635-1.713.318-.733-.317-1.155-.973-.942-1.465.213-.492.98-.634 1.713-.317.733.317 1.155.973.942 1.465" transform="translate(.75)"/>
            <path fill="#FFA192" d="M313.877 70.254s2.468 2.065 5.042 1.4c0 0-.887 1.33-4.304.841 0 0 .283-1.465-.738-2.241" transform="translate(.75)"/>
            <path fill="#22343D" d="M323.666 59.455c0 .308-.25.558-.558.558-.308 0-.558-.25-.558-.558 0-.307.25-.557.558-.557.308 0 .558.25.558.557M319.102 57.813c0 .307-.25.557-.558.557-.308 0-.557-.25-.557-.557 0-.308.25-.558.557-.558.308 0 .558.25.558.558" transform="translate(.75)"/>
            <path fill="#775298" d="M325.458 57.97c-.172.074-.505-.329-1.009-.654-.493-.34-.993-.493-.992-.68-.017-.179.681-.324 1.36.13.678.452.813 1.151.641 1.205M317.414 55.267c-.012-.174.588-.393 1.39-.372.816.017 1.42.413 1.335.578-.076.168-.645.096-1.361.082-.72-.021-1.352-.099-1.364-.288" transform="translate(.75)"/>
            <path fill="#22343D" d="M319.928 226.834s2.928 10.386 5.952 9.535c3.023-.85.75-15.344.75-15.344l-3.017-4.764s2.834 24.262-3.685 10.573M356.854 169.257s2.13-2.322 4.71-2.708c2.583-.387 11.81-1.484 13.165-.259 1.356 1.225-7.479 5.333-7.479 5.333s3.079-1.96 1.8-2.688c-2.259-1.29-12.196.322-12.196.322M353.193 172.037L356.082 177.898 357.658 177.023 353.805 171.25zM320.888 211.663L313.796 218.049 315.897 219.799 321.85 213.325zM172.626 148.086c-2.017-5-2.792-10.568-5.801-15.043-4.331-6.44-12.649-9.634-16.163-16.553-1.493-2.939-1.96-6.3-1.977-9.595-.028-6.519 1.925-13.449 6.964-17.592 5.79-4.76 14.48-4.694 21.261-1.496 6.78 3.198 11.96 9.003 16.365 15.067 4.406 6.062 8.263 12.568 13.392 18.032 3.804 4.052 8.315 7.545 11.18 12.305 7.855 13.048-.227 29.558-14.093 34.267-12.184 4.137-26.913-8.937-31.128-19.392" transform="translate(.75)"/>
            <path fill="#FFC6B2" d="M155.268 240.113c1.206.991-.11.305 1.645 1.447-.392 4.379-4.445 7.137-4.445 7.137s-.171 6.972-1.473 6.829c-1.306-.142-.47-6.713-.47-6.713s-2.669 6.866-3.798 6.43c-1.128-.436 2.958-8.316 2.958-8.316s-5.726 7.875-6.513 6.634c-.786-1.241 4.253-8.84 4.253-8.84s-6.222 6.517-6.925 5.462c-.702-1.052 7.425-10.116 7.425-10.116-3.762-.041-3.495-2.599-3.495-2.599l9.161.543s1.122 1.645 1.677 2.102M242.788 108.632c1.568.275.351-.244 2.385.347 3.341-3.033 2.898-7.798 2.898-7.798s5.603-4.49 4.674-5.367c-.935-.88-5.795 3.851-5.795 3.851s3.954-6.277 2.89-6.842c-1.061-.564-4.963 7.4-4.963 7.4s2.87-9.18 1.361-8.988c-1.506.193-4.583 8.687-4.583 8.687s1.447-8.695.146-8.558c-1.302.137-3.409 11.528-3.409 11.528-3.067-2.494-5.215-.897-5.215-.897l6.715 6.578s2.176-.066 2.896.059M204.435 146.705c2.835-.442 11.477 5.155 9.278 16.52-.184.954-1.431 3.054-1.742 3.923-.392 1.1 2.665 5.128 2.665 5.128l-7.893 2.52c-.336-2.383.23-5.864-2.32-6.9-.954-.387-1.975-.632-2.876-1.123-2.43-1.326-3.727-4.227-4.725-6.601-.746-1.775-1.313-3.683-1.292-5.61.052-4.848 4.35-7.145 8.905-7.857" transform="translate(.75)"/>
            <path fill="#FFC6B2" d="M220.24 177.83c0-4.09-1.298-5.651-5.595-5.651-4.296 0-9.969 1.561-9.969 5.652s3.035 9.211 7.333 9.211c4.296 0 8.232-5.12 8.232-9.211" transform="translate(.75)"/>
            <path fill="#FFC6B2" d="M216.847 170.196s13.361-13.764 16.034-27.248c2.674-13.483 7.215-35.36 7.215-35.36l5.078 1.39s2.406 29.9 0 34.48c-2.405 4.58-16.035 36.379-15.768 44.519l-12.559-17.781zM193.03 176.86s-4.543.764-11.49 16.537c-6.95 15.773-28.328 45.136-28.328 45.136l3.474 3.197s20.845-15.517 24.853-24.929c4.008-9.412 9.085-21.114 11.492-20.607 2.404.51 12.56-13.483 0-19.333" transform="translate(.75)"/>
            <path fill="#FF7B5B" d="M228.801 190.08l6.222-17.157s-.96-8.047-13.24-10.932l-6.955 10.014L228.8 190.08zM195.105 175.544s-7.34.618-13.29 13.674c0 0 6.543 9.025 11.33 9.33 0 0 17.777-15.183 1.96-23.004" transform="translate(.75)"/>
            <path fill="#FFC6B2" d="M215.272 330.374s-10.596 21.618-11.834 17.616c-1.237-4.004-.828-13.62-.165-14.991.667-1.374 4.998-7.437 4.998-7.437l7 4.812z" transform="translate(.75)"/>
            <path fill="#654287" d="M216.081 227.599l9.69-3.702s28.755 50.764 28.636 64.848c-.12 14.083-39.494 42.282-39.494 42.282l-6.642-5.465s18.663-27.417 25.161-34.532c3.25-3.558-20.014-20.995-23.538-37.773-3.523-16.777 6.187-25.658 6.187-25.658" transform="translate(.75)"/>
            <path fill="#FFC6B2" d="M157.824 319.05s-19.819 14.596-18.994 10.5c.827-4.1 5.816-12.468 7.067-13.4 1.253-.929 8.02-4.43 8.02-4.43l3.907 7.33z" transform="translate(.75)"/>
            <path fill="#775298" d="M189.72 245.575l28.666-16.6s1.138 57.663-5.744 70.131c-6.881 12.468-55.45 20.367-55.45 20.367l-3.275-7.753s29.965-17.839 39.165-21.33c9.2-3.493-3.363-44.815-3.363-44.815" transform="translate(.75)"/>
            <path fill="#775298" d="M206.792 217.62s-21.107 7.467-17.072 27.955c4.034 20.487 10.76 24.328 10.76 24.328l12.105-19.846 12.153-25.99-12.153-1.54-5.793-4.907z" transform="translate(.75)"/>
            <path fill="#FF7B5B" d="M216.847 170.196s15.54 8.702 15.54 28.365c0 0-1.974 22.418-5.173 27.316 0 0-5.201 1.269-11.686 0-6.8-1.33-13.38-6.105-13.38-6.105l-5.31-27.446-4.131-16.025 2.24-.738 11.687-1.283s-1.68 17.444 11.371 8.782c2.749-1.825-3.421-10.921-3.421-10.921l2.263-1.945z" transform="translate(.75)"/>
            <path fill="#FFF" d="M226.359 95.891L258.942 114.883 277.271 80.292 246.724 63.335zM271.688 261.476L294.991 247.062 275.738 213.485 254.436 227.286z" transform="translate(.75)"/>
            <path fill="#22343D" d="M156.95 118.395c.061-.054.78.598 1.918 1.929 1.133 1.333 2.678 3.36 4.23 6.094 1.557 2.723 3.097 6.179 4.198 10.19 1.138 3.98 1.902 8.456 3.652 12.767.909 2.129 2.01 4.111 3.32 5.864 1.323 1.741 2.79 3.27 4.3 4.602 3.085 2.594 6.317 4.379 9.198 5.41 2.877 1.045 5.342 1.514 7.056 1.682 1.711.19 2.679.218 2.68.33.005.07-.96.217-2.718.184-1.757-.014-4.314-.35-7.326-1.314-3.014-.951-6.42-2.712-9.676-5.363-1.597-1.362-3.15-2.94-4.548-4.754-1.387-1.823-2.558-3.909-3.51-6.14-1.823-4.507-2.543-9.021-3.604-12.95-1.012-3.94-2.42-7.333-3.844-10.062-1.414-2.737-2.818-4.811-3.814-6.226-1-1.411-1.588-2.176-1.513-2.243M196.98 96.176c.24-.036.473 3.169 2.267 7.909.897 2.36 2.23 5.077 4.144 7.8.957 1.364 2.059 2.707 3.305 4.046 1.238 1.344 2.586 2.71 3.86 4.242 2.555 3.09 4.313 6.432 5.969 9.381 1.643 2.978 2.952 5.81 3.618 8.345.694 2.526.734 4.7.514 6.143-.23 1.449-.59 2.183-.65 2.163-.115-.03.072-.805.137-2.21.057-1.401-.122-3.444-.898-5.832-.75-2.398-2.1-5.1-3.783-8.014-1.71-2.914-3.483-6.188-5.924-9.134-1.226-1.474-2.555-2.834-3.8-4.212-1.252-1.372-2.39-2.8-3.352-4.229-1.927-2.86-3.214-5.711-4.02-8.176-.824-2.464-1.175-4.543-1.341-5.976-.165-1.436-.12-2.239-.045-2.246" transform="translate(.75)"/>
            <path fill="#FF7B5B" d="M206.97 159.059c-.013-.093.518-.177 1.02-.765.115-.136.23-.334.229-.449-.003-.124-.09-.34-.239-.463-.154-.139-.327-.206-.553-.183-.235.018-.52.134-.894.19-.817.108-1.455-.353-1.874-.727-.431-.393-.76-.792-1.005-1.15-.489-.719-.64-1.239-.566-1.277.087-.046.381.384.932.988.275.3.622.643 1.032.975.404.322.898.615 1.392.537.261-.034.566-.156.937-.18.378-.038.799.136 1.03.395.245.266.382.578.353.948-.073.378-.274.555-.44.72-.719.629-1.377.526-1.354.44" transform="translate(.75)"/>
            <path fill="#FFF" d="M210.82 159.6l-6.257 2.274s5.31 4.64 6.257-2.274" transform="translate(.75)"/>
            <path fill="#FFB2A0" d="M203.938 159.213c.25.475-.12 1.16-.827 1.532-.707.372-1.482.289-1.732-.186-.25-.473.12-1.16.827-1.531.707-.372 1.482-.29 1.732.185M211.357 155.412c.204.496-.228 1.144-.966 1.448-.739.306-1.503.151-1.708-.345-.205-.496.228-1.143.967-1.448.737-.305 1.502-.15 1.707.345" transform="translate(.75)"/>
            <path fill="#FFA192" d="M204.748 168.063s2.093.426 4.762-.24c0 0-1.316 1.277-3.465 1.574 0 0-.482-.89-1.297-1.334" transform="translate(.75)"/>
            <path fill="#22343D" d="M206.887 154.008c.234.2.263.55.064.785s-.55.264-.786.065c-.234-.198-.263-.55-.064-.785s.55-.264.786-.065M202.682 156.425c.234.2.263.551.064.786-.198.234-.55.263-.786.064-.234-.199-.263-.55-.064-.785s.55-.263.786-.065M206.912 151.682c-.056.179-.578.172-1.153.346-.579.156-1.018.438-1.16.316-.148-.101.193-.728.979-.951.783-.226 1.404.124 1.334.29M199.647 156.066c-.14-.104.08-.701.615-1.3.54-.61 1.232-.814 1.305-.644.077.166-.345.554-.819 1.09-.48.536-.949.968-1.101.854" transform="translate(.75)"/>
            <path fill="#FFC6B2" d="M197.287 160.709s-2.007-1.685-2.97-.16c-.964 1.523 4.335 2.326 4.335 2.326l-1.365-2.166z" transform="translate(.75)"/>
            <path fill="#775298" d="M149.027 314.306s-2.878 1.25-3.628 2c-.751.75-7.632 12.625-6.756 14.125.876 1.5 7.776-3.591 7.776-3.591s-5.774 1.092 2.608-12.534M205.176 330.01s-2.044 2.207-2.36 3.22c-.315 1.012-.88 14.723.595 15.643 1.474.922 5.501-6.644 5.501-6.644s-4.815 3.77-3.736-12.188" transform="translate(.75)"/>
        </g>
    </g>
</svg>
