<svg version="1.1" id="Calque_1" xmlns="http://www.w3.org/2000/svg" xmlns:xlink="http://www.w3.org/1999/xlink" x="0px" y="0px"
   viewBox="0 0 48 48" style="enable-background:new 0 0 48 48;" xml:space="preserve" width="48px" height="48px">
<style type="text/css">
  .st0{fill:#FFFFFF;}
</style>
<g>
  <path class="st0" d="M46.8,9.1c-1.2-4.5-5-7.8-9.7-8.3c-4.6-0.5-9,1.9-11.2,6.1c-2,4-1.6,8.7,1.2,12.2L26,25.8
    c-0.1,0.5,0.1,1,0.5,1.2c0.2,0.1,0.5,0.2,0.7,0.2c0.2,0,0.5-0.1,0.7-0.2l4.8-3c0.6-0.4,0.8-1.1,0.4-1.7c-0.4-0.6-1.1-0.8-1.7-0.4
    L29,23.5l0.8-4.5c0.1-0.4,0-0.8-0.3-1c-2.4-2.8-2.9-6.6-1.2-9.9c1.7-3.3,5.1-5.1,8.7-4.7c3.6,0.4,6.6,2.9,7.5,6.4
    c1,3.5-0.3,7.2-3.2,9.4c-0.6,0.4-0.7,1.2-0.2,1.8c0.4,0.5,1.2,0.7,1.8,0.2C46.5,18.4,48.1,13.6,46.8,9.1z"/>
  <path class="st0" d="M17,21.8c-4.5,0-8.2,3.7-8.2,8.2s3.7,8.2,8.2,8.2s8.2-3.7,8.2-8.2S21.5,21.8,17,21.8z M17,35.8
    c-3.2,0-5.8-2.6-5.8-5.8s2.6-5.8,5.8-5.8s5.8,2.6,5.8,5.8S20.2,35.8,17,35.8z"/>
  <path class="st0" d="M18,39.8C18,39.8,18,39.8,18,39.8c-4.5,0-8.7,2.1-11,5.6c-0.4,0.6-0.2,1.3,0.3,1.7c0.2,0.1,0.5,0.2,0.7,0.2
    c0.4,0,0.8-0.2,1-0.6c1.8-2.7,5.3-4.4,9-4.4c0,0,0,0,0,0c3.7,0,7.1,1.7,9,4.4c0.4,0.6,1.2,0.7,1.7,0.3c0.6-0.4,0.7-1.2,0.3-1.7
    C26.7,41.9,22.5,39.8,18,39.8z"/>
  <path class="st0" d="M35.5,26.8c-0.7,0-1.2,0.6-1.2,1.2v18c0,0.7,0.6,1.2,1.2,1.2s1.2-0.6,1.2-1.2V28
    C36.8,27.3,36.2,26.8,35.5,26.8z"/>
  <path class="st0" d="M21.2,10.5c0-0.7-0.6-1.2-1.2-1.2H3.2V7.9c0-2.5,2-4.6,4.5-4.6H22c0.7,0,1.2-0.6,1.2-1.2S22.7,0.8,22,0.8H7.7
    c-3.8,0-7,3.2-7,7.1V46c0,0.7,0.6,1.2,1.2,1.2s1.2-0.6,1.2-1.2V11.8H20C20.7,11.8,21.2,11.2,21.2,10.5z"/>
  <path class="st0" d="M37.7,8.6C38.4,8.6,39,8,39,7.3S38.4,6,37.7,6c-3.1,0-5.7,2.2-6.3,5.2h-0.1c-0.7,0-1.3,0.6-1.3,1.3
    s0.6,1.3,1.3,1.3h0.1c0.6,3,3.2,5.2,6.3,5.2c0.7,0,1.3-0.6,1.3-1.3s-0.6-1.3-1.3-1.3c-1.6,0-3.1-1-3.6-2.6h3.6
    c0.7,0,1.3-0.6,1.3-1.3s-0.6-1.3-1.3-1.3h-3.6C34.6,9.7,36.1,8.6,37.7,8.6z"/>
</g>
</svg>
