<svg xmlns="http://www.w3.org/2000/svg" width="300" height="57" viewBox="0 0 300 57">
    <defs>
        <filter id="a" width="101.5%" height="130%" x="-.8%" y="-15%" filterUnits="objectBoundingBox">
            <feOffset dy="2" in="SourceAlpha" result="shadowOffsetOuter1"/>
            <feGaussianBlur in="shadowOffsetOuter1" result="shadowBlurOuter1" stdDeviation="2"/>
            <feColorMatrix in="shadowBlurOuter1" result="shadowMatrixOuter1" values="0 0 0 0 0 0 0 0 0 0 0 0 0 0 0 0 0 0 0.2 0"/>
            <feMerge>
                <feMergeNode in="shadowMatrixOuter1"/>
                <feMergeNode in="SourceGraphic"/>
            </feMerge>
        </filter>
    </defs>
    <g fill="none" fill-rule="nonzero" filter="url(#a)" transform="translate(-250 -12)">
        <g fill="#152E3A">
            <path d="M324.075 30.022c-2.373 0-3.864-1.83-3.864-4.133 0-2.169 1.356-4.134 4.068-4.134 1.017 0 1.966.271 2.915.813v-1.965c-.678-.406-1.763-.61-2.983-.61-3.797 0-6.305 2.71-6.305 6.031 0 3.32 2.17 5.895 5.83 5.895 1.22 0 2.509-.338 3.797-1.084l-.61-1.558c-.882.474-1.83.745-2.848.745zM331.6 30.022c-.406 0-.542-.271-.542-.88v-9.894h-2.101V30.09c0 1.016.542 1.83 1.898 1.83.474 0 1.017-.068 1.627-.407l-.271-1.559c-.271 0-.475.068-.61.068zM340.685 26.227c0-2.168-1.22-3.049-3.322-3.049-1.084 0-2.17.203-3.254.949l.678 1.355c.542-.339 1.22-.61 2.17-.61.88 0 1.559.407 1.559 1.423v.203l-1.492.068c-2.101.068-3.457 1.017-3.457 2.71 0 1.627 1.22 2.711 2.712 2.711 1.084 0 1.898-.406 2.44-.948l.34.745h1.762c-.136-.407-.136-1.017-.136-2.168v-3.389zm-2.17 3.456c-.27.271-.745.542-1.49.542-.882 0-1.357-.474-1.357-1.152 0-.677.543-1.084 1.628-1.152l1.22-.067v1.83zM344.889 24.262l-.204-.88h-1.762v8.334h2.101v-5.895c.543-.542 1.085-.746 1.627-.746.272 0 .61.068 1.017.272l.746-1.83a2.286 2.286 0 0 0-1.152-.339c-.882 0-1.492.339-2.373 1.084zM356.21 29.548v-3.32c0-2.169-1.22-3.05-3.321-3.05-1.085 0-2.17.203-3.255.949l.678 1.355c.543-.339 1.22-.61 2.17-.61.881 0 1.56.407 1.56 1.423v.203l-1.492.068c-2.102.068-3.458 1.017-3.458 2.71 0 1.627 1.22 2.711 2.712 2.711 1.085 0 1.898-.406 2.44-.948l.34.745h1.762c-.067-.474-.135-1.084-.135-2.236zm-2.169.135c-.27.271-.745.542-1.491.542-.882 0-1.356-.474-1.356-1.152 0-.677.542-1.084 1.627-1.152l1.22-.067v1.83z"/>
        </g>
        <g fill="#057DBC">
            <path d="M325.092 37.476l-2.508 5.895c-.272.61-.475 1.152-.61 1.627-.204-.543-.407-1.085-.61-1.695l-2.238-5.895h-1.695l4 9.893h1.085l4.271-9.893h-1.695v.068zM329.838 40.05c-.95 0-1.83.34-2.373 1.017a4.04 4.04 0 0 0-1.017 2.71c0 1.153.407 2.101 1.085 2.78.61.541 1.356.88 2.373.88 1.017 0 1.83-.339 2.44-.949a4.04 4.04 0 0 0 1.017-2.71c0-1.084-.339-2.033-.949-2.71-.678-.61-1.56-1.017-2.576-1.017zm0 6.167c-1.153 0-1.83-1.016-1.83-2.44 0-1.422.61-2.439 1.83-2.439 1.152 0 1.898.95 1.898 2.44 0 1.423-.678 2.44-1.898 2.44zM335.94 42.016c0-.474.474-.678 1.084-.678.746 0 1.356.204 1.899.475v-1.288c-.543-.203-1.153-.406-1.966-.406-1.628 0-2.577.88-2.577 2.033 0 2.439 3.254 1.897 3.254 3.32 0 .542-.542.88-1.288.88-.745 0-1.356-.27-1.83-.61l-.543 1.153c.543.339 1.356.61 2.441.61 1.492 0 2.78-.61 2.78-2.169 0-2.44-3.254-2.033-3.254-3.32zM349.634 42.558c0-1.83-1.084-2.507-2.644-2.507-.949 0-1.762.203-2.644.813l.543 1.016a3.26 3.26 0 0 1 1.83-.542c.814 0 1.424.34 1.424 1.356v.203l-1.288.068c-1.83.067-2.915.88-2.915 2.304 0 1.355 1.017 2.236 2.237 2.236 1.017 0 1.627-.407 2.102-.813l.27.677h1.289c-.136-.27-.136-.813-.136-2.168v-2.643h-.068zm-1.559 3.05c-.271.27-.746.542-1.424.542-.813 0-1.22-.475-1.22-1.085 0-.677.475-1.016 1.492-1.084l1.152-.068v1.694zM352.279 37.07c-.543 0-1.017.406-1.017.948 0 .542.406.949 1.017.949.542 0 1.017-.475 1.017-.949-.068-.474-.475-.949-1.017-.949zM351.465 40.254h1.559v7.047h-1.56zM359.262 40.186c-.272-.067-.543-.067-1.017-.067-2.17 0-3.797 1.558-3.797 3.794 0 2.372 1.695 3.592 3.797 3.592a6.09 6.09 0 0 0 2.576-.542V36.798h-1.56v3.388zm0 5.828a3.01 3.01 0 0 1-.882.136c-1.56 0-2.373-1.017-2.373-2.372 0-1.49 1.017-2.372 2.305-2.372.475 0 .678.068.95.136v4.472zM365.296 40.05c-1.899 0-3.12 1.627-3.12 3.66 0 1.897 1.086 3.727 3.458 3.727.814 0 1.763-.271 2.441-.745l-.407-1.017c-.542.339-1.152.475-1.762.475-1.288 0-2.102-.881-2.102-2.033h4.542v-.407c0-2.168-1.152-3.66-3.05-3.66zm-1.492 2.915c0-.881.542-1.694 1.492-1.694 1.016 0 1.423.88 1.491 1.694h-2.983zM371.058 42.016c0-.474.475-.678 1.085-.678.746 0 1.356.204 1.898.475v-1.288c-.542-.203-1.152-.406-1.966-.406-1.627 0-2.576.88-2.576 2.033 0 2.439 3.254 1.897 3.254 3.32 0 .542-.542.88-1.288.88s-1.356-.27-1.83-.61l-.543 1.153c.542.339 1.356.61 2.44.61 1.492 0 2.78-.61 2.78-2.169.068-2.44-3.254-2.033-3.254-3.32zM382.11 40.05c-1.9 0-3.12 1.627-3.12 3.66 0 1.897 1.085 3.727 3.458 3.727.814 0 1.763-.271 2.44-.745l-.406-1.017c-.542.339-1.153.475-1.763.475-1.288 0-2.101-.881-2.101-2.033h4.542v-.407c0-2.168-1.153-3.66-3.05-3.66zm-1.492 2.915c0-.881.542-1.694 1.491-1.694 1.017 0 1.424.88 1.492 1.694h-2.983zM390.584 40.05c-.95 0-1.695.407-2.509.95l-.203-.814h-1.288v7.048h1.559v-5.015c.542-.406 1.22-.88 1.898-.88.95 0 1.085.88 1.085 1.626v4.2h1.56v-4.742c.067-1.694-1.085-2.372-2.102-2.372zM404.007 40.254h-1.559v5.218c-.339.339-.881.678-1.56.678-.88 0-1.287-.475-1.287-1.491v-4.473h-1.56v4.54c0 2.169 1.356 2.643 2.305 2.643.95 0 1.695-.406 2.238-.88l.27.677h1.289c-.136-.339-.136-.813-.136-2.304v-4.608zM409.77 40.05c-.95 0-1.695.407-2.508.95l-.204-.814h-1.288v7.048h1.56v-5.015c.542-.406 1.22-.88 1.898-.88.949 0 1.084.88 1.084 1.626v4.2h1.56v-4.742c.068-1.694-1.017-2.372-2.102-2.372zM420.618 46.217c-1.424 0-2.17-1.084-2.17-2.44 0-1.422.881-2.439 2.17-2.439.745 0 1.288.204 1.762.542v-1.355c-.407-.27-1.084-.474-1.898-.474-2.17 0-3.593 1.694-3.593 3.727 0 1.965 1.152 3.591 3.39 3.591.949 0 1.898-.339 2.44-.745l-.407-1.017c-.474.34-.949.61-1.694.61zM425.838 46.082c-.407 0-.475-.204-.475-.746v-8.605h-1.559v9.283c0 .813.407 1.49 1.492 1.49.406 0 .813-.067 1.22-.338l-.204-1.152c-.203.068-.339.068-.474.068zM427.669 40.254h1.559v7.047h-1.56zM428.414 37.07c-.542 0-1.017.406-1.017.948 0 .542.407.949 1.017.949.543 0 1.017-.475 1.017-.949s-.474-.949-1.017-.949zM436.075 45.675c-.474.271-1.017.475-1.695.475-1.423 0-2.17-1.085-2.17-2.44 0-1.423.882-2.44 2.17-2.44.746 0 1.288.204 1.763.543v-1.356c-.407-.27-1.085-.474-1.898-.474-2.17 0-3.594 1.694-3.594 3.727 0 1.965 1.153 3.591 3.39 3.591.95 0 1.899-.338 2.44-.745l-.406-.88z"/>
        </g>
        <path fill="#057DBC" d="M317.228 52.248h45.288v10.368h-45.288z"/>
        <g fill="#FFF">
            <path d="M322.245 54.213h-1.288v5.353h.88V57.67h.34c1.424 0 1.966-.949 1.966-1.762 0-1.084-.746-1.694-1.898-1.694zm-.068 2.778h-.407V54.96h.34c.745 0 1.084.406 1.084 1.016.068.61-.271 1.016-1.017 1.016zM326.448 54.552l.475.678h.745l-.813-1.152h-.746l-.813 1.152h.745zM326.448 55.636c-.542 0-1.017.204-1.288.542-.34.34-.542.881-.542 1.491 0 .61.203 1.152.61 1.49.339.34.745.475 1.288.475.542 0 1.017-.203 1.356-.542.339-.339.542-.88.542-1.49s-.203-1.085-.542-1.491c-.407-.271-.882-.475-1.424-.475zm0 3.32c-.61 0-1.017-.542-1.017-1.355s.34-1.355 1.017-1.355c.61 0 1.017.542 1.017 1.355s-.339 1.356-1.017 1.356zM330.245 58.889c-.204 0-.272-.068-.272-.407v-4.675h-.813v5.014c0 .474.203.813.813.813.204 0 .407-.068.678-.203l-.135-.542h-.271zM332.618 55.636c-1.017 0-1.695.881-1.695 1.965 0 1.017.61 2.033 1.898 2.033.475 0 .95-.135 1.356-.406l-.204-.542c-.27.203-.61.27-.949.27-.678 0-1.152-.474-1.152-1.084h2.44v-.203c0-1.22-.678-2.033-1.694-2.033zm-.814 1.559c0-.475.271-.949.814-.949.542 0 .813.474.813.949h-1.627zM338.516 55.636c-1.017 0-1.695.881-1.695 1.965 0 1.017.61 2.033 1.898 2.033.475 0 .95-.135 1.356-.406l-.203-.542c-.271.203-.61.27-.95.27-.677 0-1.152-.474-1.152-1.084h2.44v-.203c-.067-1.22-.677-2.033-1.694-2.033zm-.814 1.559c0-.475.271-.949.814-.949.542 0 .813.474.813.949h-1.627zM345.431 55.636c-.407 0-.95.204-1.356.61-.135-.339-.474-.61-1.017-.61-.407 0-.881.204-1.356.542l-.068-.406h-.677v3.794h.813v-2.71c.271-.203.61-.474 1.017-.474.475 0 .61.338.61.813v2.371h.814v-2.575-.135c.27-.203.61-.474 1.017-.474.474 0 .542.338.542.813v2.371h.881v-2.642c.068-1.017-.542-1.288-1.22-1.288zM349.092 55.636c-.61 0-1.085.136-1.424.271v5.625h.814v-1.966c.203.068.339.136.61.136 1.085 0 2.034-.813 2.034-2.033-.068-1.287-.746-2.033-2.034-2.033zm-.068 3.32c-.203 0-.339-.067-.542-.135v-2.44c.136-.067.271-.067.542-.067.678 0 1.22.406 1.22 1.287-.067.813-.474 1.356-1.22 1.356zM352.957 58.889c-.204 0-.272-.068-.272-.407v-4.675h-.813v5.014c0 .474.203.813.813.813.204 0 .407-.068.678-.203l-.135-.61c-.136.068-.204.068-.271.068zM355.6 55.636c-.542 0-1.016.204-1.288.542-.339.34-.542.881-.542 1.491 0 .61.203 1.152.61 1.49.34.34.746.475 1.288.475.543 0 1.017-.203 1.356-.542.34-.339.543-.88.543-1.49s-.204-1.085-.543-1.491c-.406-.271-.881-.475-1.423-.475zm0 3.32c-.61 0-1.016-.542-1.016-1.355s.339-1.355 1.017-1.355c.61 0 1.017.542 1.017 1.355s-.34 1.356-1.017 1.356zM358.38 55.704h1v3.862h-1zM358.787 55.094c.271 0 .542-.27.542-.542a.535.535 0 0 0-.542-.542c-.339 0-.542.203-.542.542s.203.542.542.542z"/>
        </g>
        <g>
            <path fill="#152E3A" d="M307.391 40.5c0 15.759-12.828 28.5-28.695 28.5S250 56.259 250 40.5 262.829 12 278.696 12s28.695 12.741 28.695 28.5"/>
            <path fill="#057DBC" d="M263.436 36.879l20.054.268 5.063 18.374 8.238-36.95z"/>
        </g>
    </g>
</svg>
