<svg xmlns="http://www.w3.org/2000/svg" width="50px" height="41px" id="Calque_123" data-name="Calque 1" viewBox="0 0 50 41" data-ember-extension="1">
  <defs>
    <style>.cls-1{fill:#fff;}</style>
  </defs>
  <path id="path0_fill" data-name="path0 fill" class="cls-1" d="M31.79,34.22a1.18,1.18,0,0,0-.81.33,1.15,1.15,0,0,0-.33.8v3.39H2.3V2.28H30.64V7.12a1.13,1.13,0,0,0,1.94.79,1.08,1.08,0,0,0,.34-.79v-6a1.1,1.1,0,0,0-.34-.8,1.14,1.14,0,0,0-.8-.33H1.14A1.18,1.18,0,0,0,.33.33a1.14,1.14,0,0,0-.33.8V39.87a1.14,1.14,0,0,0,.33.8,1.18,1.18,0,0,0,.81.33H31.79a1.14,1.14,0,0,0,.8-.33,1.1,1.1,0,0,0,.34-.8V35.35a1.12,1.12,0,0,0-.34-.8A1.14,1.14,0,0,0,31.79,34.22Zm17.82-21-8.13-8a1.15,1.15,0,0,0-.82-.35,1.17,1.17,0,0,0-.45.09,1.08,1.08,0,0,0-.37.26l-4.7,4.65a1.1,1.1,0,0,0-.25.37,1.13,1.13,0,0,0-.09.45,1.14,1.14,0,0,0,.26.7l-.51.48-7.2,1.79a1,1,0,0,0-.53.29,1.07,1.07,0,0,0-.31.52L22,31.12a1.18,1.18,0,0,0,0,.53,1.23,1.23,0,0,0,.22.48,1.34,1.34,0,0,0,.42.33,1.22,1.22,0,0,0,.53.1.81.81,0,0,0,.31,0L40.57,28a1.2,1.2,0,0,0,.54-.32,1.14,1.14,0,0,0,.29-.54l1.54-7,.48-.49a1.21,1.21,0,0,0,.71.26,1.12,1.12,0,0,0,.44-.09,1.19,1.19,0,0,0,.38-.25l4.69-4.66a1,1,0,0,0,.27-.38A1.22,1.22,0,0,0,50,14a1,1,0,0,0-.11-.45A1,1,0,0,0,49.61,13.19ZM41,18.69a1.05,1.05,0,0,0-.29.55l-1.46,6.64L24.75,29.77l3.87-14.14,6.84-1.69a1.22,1.22,0,0,0,.51-.28l.77-.72,5,5ZM44.14,17l-6.49-6.42,3.05-3L47.19,14ZM32.38,19.11a2.21,2.21,0,0,0-.6,1.15A2.12,2.12,0,0,0,32,21.55l-3.64,3.64a.89.89,0,0,0-.24.56.82.82,0,0,0,.07.31,1.06,1.06,0,0,0,.17.26.9.9,0,0,0,.26.17.83.83,0,0,0,.62,0,.78.78,0,0,0,.26-.17l3.64-3.61a2.33,2.33,0,0,0,.9.21,2.25,2.25,0,0,0,1.23-.37,2.15,2.15,0,0,0,.81-1,2.15,2.15,0,0,0-.48-2.38,2.23,2.23,0,0,0-2.43-.55A2.28,2.28,0,0,0,32.38,19.11ZM25.89,9.37a1.13,1.13,0,0,0-.33-.79,1.1,1.1,0,0,0-.81-.33H8.22a1.13,1.13,0,1,0,0,2.25H24.75a1.1,1.1,0,0,0,.81-.33A1.14,1.14,0,0,0,25.89,9.37Zm-5.49,4H8.22a1.18,1.18,0,0,0-.81.33,1.14,1.14,0,0,0-.33.8,1.15,1.15,0,0,0,.33.8,1.18,1.18,0,0,0,.81.33H20.4a1.14,1.14,0,0,0,.8-.33,1.12,1.12,0,0,0,.34-.8,1.1,1.1,0,0,0-.34-.8A1.14,1.14,0,0,0,20.4,13.33Zm1.14,6.29a1.1,1.1,0,0,0-.34-.8,1.14,1.14,0,0,0-.8-.33H8.22a1.18,1.18,0,0,0-.81.33,1.13,1.13,0,0,0,0,1.6,1.18,1.18,0,0,0,.81.33H20.4a1.22,1.22,0,0,0,.43-.08,1.36,1.36,0,0,0,.38-.24,1.34,1.34,0,0,0,.25-.37,1,1,0,0,0,.09-.43ZM8.22,30.67a1.11,1.11,0,0,0-.44.08,1.27,1.27,0,0,0-.37.25,1.08,1.08,0,0,0-.24.36,1.11,1.11,0,0,0-.09.43,1.12,1.12,0,0,0,.09.44,1.08,1.08,0,0,0,.24.36,1.27,1.27,0,0,0,.37.25,1.11,1.11,0,0,0,.44.08h8.26a1.13,1.13,0,1,0,0-2.25Z"/>
</svg>
