<svg xmlns="http://www.w3.org/2000/svg" id="Calque_14" width="54px" height="46px" data-name="Calque 1" viewBox="0 0 54 46" data-ember-extension="1">
  <defs>
    <style>.cls-1{fill:#fff;}</style>
  </defs>
  <path id="path0_fill" data-name="path0 fill" class="cls-1" d="M53.13,13.55,27.28.14a.72.72,0,0,0-.86,0L.57,13.55a.91.91,0,0,0-.57.86V45a.9.9,0,0,0,1,1,.9.9,0,0,0,1-1V15L26.81,2.06,51.7,15V45a1,1,0,1,0,1.91,0V14.41A1,1,0,0,0,53.13,13.55ZM13.4,28.77a3.83,3.83,0,1,0,3.83,3.83A3.84,3.84,0,0,0,13.4,28.77Zm0,5.74a1.92,1.92,0,1,1,1.92-1.91A1.92,1.92,0,0,1,13.4,34.51Zm26.81-5.74A3.83,3.83,0,1,0,44,32.6,3.84,3.84,0,0,0,40.21,28.77Zm0,5.74a1.92,1.92,0,1,1,1.91-1.91A1.92,1.92,0,0,1,40.21,34.51Zm3.25-8.81-2.2-7.85a6.14,6.14,0,0,0-5.84-4.4H18.19a6.15,6.15,0,0,0-5.84,4.4l-2.2,7.85a7.66,7.66,0,0,0-4.41,6.9,7.58,7.58,0,0,0,3.83,6.6v3.93A2.82,2.82,0,0,0,12.45,46h1.91a2.81,2.81,0,0,0,2.87-2.87V40.26H36.38v2.87A2.81,2.81,0,0,0,39.25,46h1.92A2.82,2.82,0,0,0,44,43.13V39.2a7.6,7.6,0,0,0-.58-13.5Zm-29.2-7.37a4.11,4.11,0,0,1,3.93-3H35.42a4.11,4.11,0,0,1,3.93,3L41.26,25a3.81,3.81,0,0,0-1-.09H13.4a3.81,3.81,0,0,0-1.05.09Zm1.06,24.8a.91.91,0,0,1-1,1H12.45a.91.91,0,0,1-1-1V40a6.17,6.17,0,0,0,1.91.29h1.92Zm26.8,0a.91.91,0,0,1-.95,1H39.25a.91.91,0,0,1-1-1V40.26h1.92A6.17,6.17,0,0,0,42.12,40Zm-1.91-4.79H13.4a5.75,5.75,0,0,1,0-11.49H40.21a5.75,5.75,0,0,1,0,11.49Zm-6.7-5.74H20.1a1,1,0,0,0,0,1.91H33.51a1,1,0,0,0,0-1.91Z">
  </path>
</svg>
