<svg xmlns="http://www.w3.org/2000/svg" width="241" height="63" viewBox="0 0 241 63">
    <g fill="none">
        <g>
            <g fill="#152E3A">
                <path d="M8.825 15.058c-3.251 0-5.295-2.48-5.295-5.6 0-2.939 1.858-5.602 5.574-5.602 1.393 0 2.694.368 3.994 1.102V2.295c-.929-.55-2.415-.826-4.087-.826C3.809 1.47.37 5.142.37 9.641c0 4.499 2.973 7.988 7.99 7.988 1.672 0 3.437-.46 5.202-1.47l-.836-2.111c-1.208.643-2.508 1.01-3.902 1.01zM19.137 15.058c-.558 0-.744-.367-.744-1.194V.46h-2.88v14.69c0 1.378.744 2.48 2.602 2.48.65 0 1.393-.092 2.23-.551l-.372-2.112c-.372 0-.65.092-.836.092zM31.585 9.916c0-2.938-1.673-4.132-4.552-4.132-1.487 0-2.973.276-4.46 1.286l.93 1.836c.743-.459 1.672-.826 2.972-.826 1.208 0 2.137.55 2.137 1.928v.275l-2.044.092c-2.88.092-4.737 1.378-4.737 3.673 0 2.204 1.672 3.673 3.715 3.673 1.487 0 2.601-.551 3.345-1.286l.464 1.01h2.415c-.185-.55-.185-1.377-.185-2.938v-4.59zM28.612 14.6c-.372.367-1.022.734-2.044.734-1.207 0-1.858-.642-1.858-1.56 0-.919.743-1.47 2.23-1.561l1.672-.092v2.479zM37.344 7.254l-.279-1.194H34.65v11.293h2.88V9.365c.743-.734 1.486-1.01 2.23-1.01.371 0 .835.092 1.393.368l1.022-2.48c-.465-.275-1.022-.459-1.58-.459-1.207 0-2.043.46-3.25 1.47zM52.858 14.415V9.916c0-2.938-1.672-4.132-4.552-4.132-1.487 0-2.973.276-4.46 1.286l.93 1.836c.743-.459 1.672-.826 2.972-.826 1.208 0 2.137.55 2.137 1.928v.275l-2.044.092c-2.88.092-4.737 1.378-4.737 3.673 0 2.204 1.672 3.673 3.715 3.673 1.487 0 2.602-.551 3.345-1.286l.464 1.01h2.415c-.092-.643-.185-1.469-.185-3.03zm-2.973.184c-.372.367-1.022.734-2.044.734-1.207 0-1.858-.642-1.858-1.56 0-.919.744-1.47 2.23-1.561l1.672-.092v2.479z" transform="translate(75 11) translate(1.048 .31)"/>
            </g>
            <g fill="#057DBC">
                <path d="M11.136 1.294L7.702 9.338c-.37.832-.65 1.572-.835 2.22-.278-.74-.557-1.48-.835-2.312L2.97 1.202H.65l5.475 13.499H7.61l5.846-13.499h-2.32v.092zM17.632 4.808c-1.3 0-2.506.462-3.248 1.387-.835.924-1.392 2.219-1.392 3.698 0 1.572.557 2.866 1.485 3.79.835.74 1.856 1.203 3.248 1.203 1.392 0 2.505-.462 3.34-1.295.836-.924 1.393-2.219 1.393-3.698 0-1.48-.464-2.774-1.3-3.698-.928-.832-2.134-1.387-3.526-1.387zm0 8.414c-1.578 0-2.506-1.387-2.506-3.329 0-1.942.836-3.328 2.506-3.328 1.578 0 2.598 1.294 2.598 3.328 0 1.942-.928 3.329-2.598 3.329zM25.984 7.49c0-.648.65-.925 1.485-.925 1.02 0 1.856.277 2.598.647V5.455c-.742-.277-1.578-.555-2.691-.555-2.227 0-3.526 1.202-3.526 2.774 0 3.329 4.454 2.589 4.454 4.53 0 .74-.743 1.203-1.763 1.203-1.021 0-1.856-.37-2.506-.833l-.742 1.572c.742.462 1.856.832 3.34.832 2.042 0 3.805-.832 3.805-2.958 0-3.329-4.454-2.774-4.454-4.53zM44.73 8.229c0-2.497-1.485-3.421-3.62-3.421-1.299 0-2.413.277-3.619 1.11l.742 1.386c.557-.37 1.392-.74 2.506-.74 1.114 0 1.949.463 1.949 1.85v.277l-1.763.093c-2.506.092-3.99 1.202-3.99 3.143 0 1.85 1.391 3.051 3.062 3.051 1.392 0 2.227-.554 2.876-1.11l.372.925h1.763c-.186-.37-.186-1.11-.186-2.958V8.229h-.093zm-2.135 4.16c-.371.37-1.02.74-1.949.74-1.113 0-1.67-.647-1.67-1.48 0-.924.65-1.386 2.041-1.479l1.578-.092v2.311zM48.349.74c-.743 0-1.392.554-1.392 1.294s.556 1.295 1.392 1.295c.742 0 1.392-.648 1.392-1.295-.093-.647-.65-1.294-1.392-1.294zM47.235 5.085H49.369V14.701H47.235zM57.907 4.993c-.371-.093-.742-.093-1.392-.093-2.97 0-5.197 2.127-5.197 5.178 0 3.236 2.32 4.9 5.197 4.9 1.578 0 2.691-.37 3.526-.74V.37h-2.134v4.623zm0 7.951c-.278.093-.742.185-1.206.185-2.135 0-3.248-1.387-3.248-3.236 0-2.034 1.392-3.236 3.155-3.236.65 0 .928.092 1.299.185v6.102zM66.166 4.808c-2.598 0-4.269 2.219-4.269 4.993 0 2.588 1.485 5.085 4.733 5.085 1.114 0 2.413-.37 3.34-1.017l-.556-1.387c-.742.462-1.577.647-2.413.647-1.763 0-2.876-1.202-2.876-2.774h6.217v-.554c0-2.96-1.577-4.993-4.176-4.993zm-2.041 3.976c0-1.202.742-2.312 2.041-2.312 1.392 0 1.949 1.202 2.042 2.312h-4.083zM74.054 7.49c0-.648.65-.925 1.485-.925 1.02 0 1.856.277 2.598.647V5.455c-.742-.277-1.577-.555-2.69-.555-2.228 0-3.527 1.202-3.527 2.774 0 3.329 4.454 2.589 4.454 4.53 0 .74-.742 1.203-1.763 1.203-1.02 0-1.856-.37-2.506-.833l-.742 1.572c.742.462 1.856.832 3.34.832 2.042 0 3.805-.832 3.805-2.958.093-3.329-4.454-2.774-4.454-4.53zM89.18 4.808c-2.598 0-4.268 2.219-4.268 4.993 0 2.588 1.484 5.085 4.732 5.085 1.114 0 2.413-.37 3.341-1.017l-.557-1.387c-.742.462-1.577.647-2.412.647-1.764 0-2.877-1.202-2.877-2.774h6.217v-.554c0-2.96-1.577-4.993-4.176-4.993zM87.14 8.784c0-1.202.742-2.312 2.041-2.312 1.392 0 1.95 1.202 2.042 2.312h-4.083zM100.78 4.808c-1.299 0-2.32.555-3.433 1.294l-.279-1.11h-1.763v9.616h2.135V7.767c.742-.555 1.67-1.202 2.598-1.202 1.3 0 1.485 1.202 1.485 2.219v5.732h2.134V8.044c.093-2.312-1.485-3.236-2.877-3.236zM119.155 5.085h-2.135v7.12c-.464.462-1.206.924-2.134.924-1.206 0-1.763-.647-1.763-2.034V4.993h-2.135v6.195c0 2.958 1.856 3.605 3.156 3.605 1.299 0 2.32-.554 3.062-1.202l.371.925h1.763c-.185-.462-.185-1.11-.185-3.144V5.085zM127.043 4.808c-1.3 0-2.32.555-3.434 1.294l-.278-1.11h-1.764v9.616h2.135V7.767c.742-.555 1.67-1.202 2.598-1.202 1.3 0 1.485 1.202 1.485 2.219v5.732h2.134V8.044c.093-2.312-1.392-3.236-2.876-3.236zM141.89 13.222c-1.948 0-2.969-1.48-2.969-3.329 0-1.942 1.206-3.328 2.97-3.328 1.02 0 1.763.277 2.412.74v-1.85c-.556-.37-1.484-.647-2.598-.647-2.97 0-4.918 2.311-4.918 5.085 0 2.681 1.577 4.9 4.64 4.9 1.299 0 2.598-.462 3.34-1.017l-.556-1.387c-.65.463-1.3.833-2.32.833zM149.036 13.037c-.557 0-.65-.278-.65-1.017V.277h-2.134v12.667c0 1.11.557 2.034 2.042 2.034.557 0 1.113-.092 1.67-.462l-.278-1.572c-.279.093-.464.093-.65.093zM151.542 5.085H153.676V14.701H151.542zM152.563.74c-.743 0-1.392.554-1.392 1.294s.556 1.295 1.392 1.295c.742 0 1.392-.648 1.392-1.295 0-.647-.65-1.294-1.392-1.294zM163.049 12.482c-.65.37-1.392.647-2.32.647-1.949 0-2.97-1.48-2.97-3.328 0-1.942 1.207-3.329 2.97-3.329 1.02 0 1.763.277 2.413.74v-1.85c-.557-.37-1.485-.647-2.599-.647-2.97 0-4.918 2.312-4.918 5.086 0 2.68 1.578 4.9 4.64 4.9 1.3 0 2.598-.462 3.34-1.017l-.556-1.202z" transform="translate(75 11) translate(.197 24.14)"/>
            </g>
        </g>
        <path fill="#152E3A" d="M64.087 31.5c0 17.418-14.325 31.5-32.044 31.5C14.325 63 0 48.918 0 31.5S14.325 0 32.043 0c17.719 0 32.044 14.082 32.044 31.5"/>
        <path fill="#057DBC" d="M15.004 27.498L37.397 27.794 43.051 48.102 52.25 7.264z"/>
    </g>
</svg>
