<svg xmlns="http://www.w3.org/2000/svg" width="253" height="78" viewBox="0 0 253 78">
    <g fill="none" fill-rule="nonzero">
        <g fill="#152E3A">
            <path d="M100.61 24.138c-3.203 0-5.217-2.492-5.217-5.63 0-2.954 1.83-5.631 5.492-5.631 1.373 0 2.654.37 3.935 1.108v-2.677c-.915-.554-2.38-.831-4.027-.831-5.125 0-8.512 3.692-8.512 8.215s2.93 8.031 7.872 8.031c1.647 0 3.386-.461 5.125-1.477l-.824-2.123c-1.19.646-2.47 1.015-3.844 1.015zM110.77 24.138c-.55 0-.733-.369-.733-1.2V9.462H107.2V24.23c0 1.384.732 2.492 2.563 2.492.64 0 1.373-.092 2.196-.554l-.366-2.123c-.366 0-.64.092-.824.092zM123.034 18.97c0-2.955-1.648-4.155-4.485-4.155-1.464 0-2.929.277-4.393 1.293l.915 1.846c.732-.462 1.648-.83 2.929-.83 1.19 0 2.105.553 2.105 1.938v.276l-2.013.093c-2.838.092-4.668 1.384-4.668 3.692 0 2.215 1.647 3.692 3.66 3.692 1.465 0 2.563-.553 3.296-1.292l.457 1.015h2.38c-.183-.553-.183-1.384-.183-2.953v-4.616zm-2.929 4.707c-.366.37-1.007.738-2.013.738-1.19 0-1.831-.646-1.831-1.569 0-.923.732-1.477 2.197-1.57l1.647-.091v2.492zM128.708 16.292l-.274-1.2h-2.38v11.354h2.838v-8.03c.732-.74 1.464-1.016 2.196-1.016.366 0 .824.092 1.373.37l1.007-2.493c-.458-.277-1.007-.462-1.556-.462-1.19 0-2.014.462-3.204 1.477zM143.993 23.492V18.97c0-2.954-1.647-4.154-4.485-4.154-1.464 0-2.928.277-4.393 1.293l.916 1.846c.732-.462 1.647-.83 2.928-.83 1.19 0 2.105.553 2.105 1.938v.276l-2.013.093c-2.837.092-4.668 1.384-4.668 3.692 0 2.215 1.648 3.692 3.661 3.692 1.464 0 2.563-.553 3.295-1.292l.458 1.015h2.38c-.092-.646-.184-1.476-.184-3.046zm-2.929.185c-.366.37-1.006.738-2.013.738-1.19 0-1.83-.646-1.83-1.569 0-.923.732-1.477 2.196-1.57l1.647-.091v2.492z"/>
        </g>
        <g fill="#057DBC">
            <path d="M101.983 34.292l-3.386 8.031c-.366.83-.641 1.57-.824 2.215a64.453 64.453 0 0 1-.824-2.307L93.93 34.2H91.64l5.4 13.477h1.464l5.766-13.477h-2.288v.092zM108.39 37.8c-1.282 0-2.471.462-3.204 1.385-.823.923-1.372 2.215-1.372 3.692 0 1.57.549 2.861 1.464 3.785.824.738 1.83 1.2 3.203 1.2 1.373 0 2.472-.462 3.295-1.293.824-.923 1.373-2.215 1.373-3.692 0-1.477-.457-2.77-1.281-3.692-.915-.831-2.105-1.385-3.478-1.385zm0 8.4c-1.556 0-2.471-1.385-2.471-3.323 0-1.939.823-3.323 2.47-3.323 1.557 0 2.564 1.292 2.564 3.323 0 1.938-.916 3.323-2.563 3.323zM116.627 40.477c0-.646.64-.923 1.465-.923 1.006 0 1.83.277 2.562.646v-1.754c-.732-.277-1.556-.554-2.654-.554-2.197 0-3.478 1.2-3.478 2.77 0 3.323 4.393 2.584 4.393 4.523 0 .738-.732 1.2-1.739 1.2-1.007 0-1.83-.37-2.47-.831l-.733 1.57c.732.46 1.83.83 3.295.83 2.013 0 3.752-.83 3.752-2.954 0-3.323-4.393-2.77-4.393-4.523zM135.115 41.215c0-2.492-1.464-3.415-3.57-3.415-1.28 0-2.379.277-3.569 1.108l.732 1.384a4.373 4.373 0 0 1 2.472-.738c1.098 0 1.922.461 1.922 1.846v.277l-1.74.092c-2.47.093-3.935 1.2-3.935 3.139 0 1.846 1.373 3.046 3.02 3.046 1.373 0 2.197-.554 2.838-1.108l.366.923h1.739c-.183-.369-.183-1.107-.183-2.954v-3.6h-.092zm-2.105 4.154c-.366.37-1.007.739-1.922.739-1.098 0-1.647-.646-1.647-1.477 0-.923.64-1.385 2.013-1.477l1.556-.092v2.307zM138.685 33.738c-.732 0-1.373.554-1.373 1.293 0 .738.549 1.292 1.373 1.292.732 0 1.373-.646 1.373-1.292-.092-.646-.641-1.293-1.373-1.293zM137.586 38.077h2.105v9.6h-2.105zM148.112 37.985c-.366-.093-.732-.093-1.373-.093-2.929 0-5.125 2.123-5.125 5.17 0 3.23 2.288 4.892 5.125 4.892a8.16 8.16 0 0 0 3.478-.739V33.37h-2.105v4.616zm0 7.938a4.03 4.03 0 0 1-1.19.185c-2.105 0-3.203-1.385-3.203-3.231 0-2.03 1.373-3.23 3.112-3.23.64 0 .915.091 1.28.184v6.092zM156.258 37.8c-2.563 0-4.21 2.215-4.21 4.985 0 2.584 1.464 5.077 4.667 5.077 1.099 0 2.38-.37 3.295-1.016l-.549-1.384c-.732.461-1.556.646-2.38.646-1.739 0-2.837-1.2-2.837-2.77h6.132v-.553c0-2.954-1.556-4.985-4.118-4.985zm-2.014 3.97c0-1.2.732-2.308 2.014-2.308 1.373 0 1.922 1.2 2.013 2.307h-4.027zM164.037 40.477c0-.646.641-.923 1.465-.923 1.006 0 1.83.277 2.562.646v-1.754c-.732-.277-1.556-.554-2.654-.554-2.196 0-3.478 1.2-3.478 2.77 0 3.323 4.393 2.584 4.393 4.523 0 .738-.732 1.2-1.739 1.2-1.006 0-1.83-.37-2.47-.831l-.733 1.57c.732.46 1.83.83 3.295.83 2.014 0 3.753-.83 3.753-2.954.091-3.323-4.394-2.77-4.394-4.523zM178.956 37.8c-2.563 0-4.21 2.215-4.21 4.985 0 2.584 1.464 5.077 4.668 5.077 1.098 0 2.38-.37 3.294-1.016l-.549-1.384c-.732.461-1.556.646-2.38.646-1.738 0-2.837-1.2-2.837-2.77h6.133v-.553c0-2.954-1.556-4.985-4.12-4.985zm-2.014 3.97c0-1.2.733-2.308 2.014-2.308 1.373 0 1.922 1.2 2.013 2.307h-4.027zM190.397 37.8c-1.282 0-2.289.554-3.387 1.292l-.274-1.107h-1.74v9.6h2.106v-6.831c.732-.554 1.647-1.2 2.562-1.2 1.282 0 1.465 1.2 1.465 2.215v5.723h2.105v-6.461c.091-2.308-1.465-3.231-2.837-3.231zM208.519 38.077h-2.105v7.108c-.458.461-1.19.923-2.106.923-1.19 0-1.739-.646-1.739-2.031v-6.092h-2.105v6.184c0 2.954 1.83 3.6 3.112 3.6s2.288-.554 3.02-1.2l.367.923h1.739c-.183-.461-.183-1.107-.183-3.138v-6.277zM216.298 37.8c-1.281 0-2.288.554-3.386 1.292l-.275-1.107h-1.739v9.6h2.105v-6.831c.733-.554 1.648-1.2 2.563-1.2 1.281 0 1.465 1.2 1.465 2.215v5.723h2.105v-6.461c.091-2.308-1.373-3.231-2.838-3.231zM230.942 46.2c-1.922 0-2.928-1.477-2.928-3.323 0-1.939 1.19-3.323 2.928-3.323 1.007 0 1.74.277 2.38.738v-1.846c-.55-.37-1.464-.646-2.563-.646-2.928 0-4.85 2.308-4.85 5.077 0 2.677 1.555 4.892 4.576 4.892 1.281 0 2.562-.461 3.295-1.015l-.55-1.385c-.64.462-1.28.831-2.288.831zM237.99 46.015c-.55 0-.64-.277-.64-1.015V33.277h-2.106v12.646c0 1.108.55 2.03 2.014 2.03.549 0 1.098-.091 1.647-.46l-.274-1.57c-.275.092-.458.092-.641.092zM240.461 38.077h2.105v9.6h-2.105zM241.468 33.738c-.732 0-1.373.554-1.373 1.293 0 .738.55 1.292 1.373 1.292.732 0 1.373-.646 1.373-1.292s-.641-1.293-1.373-1.293zM251.81 45.462c-.64.369-1.373.646-2.288.646-1.922 0-2.929-1.477-2.929-3.323 0-1.939 1.19-3.323 2.929-3.323 1.007 0 1.739.276 2.38.738v-1.846c-.55-.37-1.465-.646-2.563-.646-2.929 0-4.85 2.307-4.85 5.077 0 2.677 1.555 4.892 4.575 4.892 1.282 0 2.563-.462 3.295-1.015l-.549-1.2z"/>
        </g>
        <path fill="#057DBC" d="M91.366 54.415h61.139v14.123H91.366z"/>
        <g fill="#FFF">
            <path d="M98.139 57.092H96.4v7.293h1.19V61.8h.457c1.922 0 2.655-1.292 2.655-2.4 0-1.477-1.007-2.308-2.563-2.308zm-.092 3.785h-.549v-2.77h.458c1.007 0 1.464.555 1.464 1.385.092.831-.366 1.385-1.373 1.385zM103.814 57.554l.64.923h1.007l-1.098-1.57h-1.007l-1.098 1.57h1.006zM103.814 59.03c-.733 0-1.373.278-1.74.74-.457.46-.732 1.2-.732 2.03 0 .83.275 1.57.824 2.03.458.462 1.007.647 1.74.647.731 0 1.372-.277 1.83-.739.457-.461.732-1.2.732-2.03 0-.831-.275-1.477-.732-2.031-.55-.37-1.19-.646-1.922-.646zm0 4.524c-.824 0-1.373-.739-1.373-1.846 0-1.108.457-1.846 1.373-1.846.823 0 1.372.738 1.372 1.846 0 1.107-.457 1.846-1.372 1.846zM108.939 63.462c-.275 0-.366-.093-.366-.554v-6.37h-1.098v6.831c0 .646.274 1.108 1.098 1.108.274 0 .549-.092.915-.277l-.183-.738h-.366zM112.142 59.03c-1.373 0-2.288 1.2-2.288 2.678 0 1.384.824 2.769 2.563 2.769a3.28 3.28 0 0 0 1.83-.554l-.274-.738c-.366.277-.824.369-1.281.369-.916 0-1.556-.646-1.556-1.477h3.295V61.8c0-1.662-.916-2.77-2.289-2.77zm-1.098 2.124c0-.646.366-1.292 1.098-1.292.733 0 1.099.646 1.099 1.292h-2.197zM120.105 59.03c-1.373 0-2.288 1.2-2.288 2.678 0 1.384.824 2.769 2.563 2.769a3.28 3.28 0 0 0 1.83-.554l-.274-.738c-.367.277-.824.369-1.282.369-.915 0-1.556-.646-1.556-1.477h3.295V61.8c-.091-1.662-.915-2.77-2.288-2.77zm-1.098 2.124c0-.646.366-1.292 1.098-1.292.732 0 1.098.646 1.098 1.292h-2.196zM129.44 59.03c-.548 0-1.28.278-1.83.832-.183-.462-.64-.831-1.373-.831-.549 0-1.19.277-1.83.738l-.092-.554h-.915v5.17h1.098v-3.693c.366-.277.824-.646 1.373-.646.64 0 .824.462.824 1.108v3.23h1.098v-3.507-.185c.366-.277.824-.646 1.373-.646.64 0 .732.462.732 1.108v3.23h1.19v-3.6c.092-1.384-.732-1.753-1.647-1.753zM134.383 59.03a5.07 5.07 0 0 0-1.922.37v7.662h1.098v-2.677c.275.092.458.184.824.184 1.464 0 2.746-1.107 2.746-2.769-.092-1.754-1.007-2.77-2.746-2.77zm-.091 4.524c-.275 0-.458-.092-.733-.185v-3.323c.183-.092.366-.092.733-.092.915 0 1.647.554 1.647 1.754-.092 1.107-.64 1.846-1.647 1.846zM139.6 63.462c-.275 0-.366-.093-.366-.554v-6.37h-1.098v6.831c0 .646.274 1.108 1.098 1.108.274 0 .55-.092.915-.277l-.183-.83c-.183.092-.274.092-.366.092zM143.17 59.03c-.733 0-1.373.278-1.74.74-.457.46-.732 1.2-.732 2.03 0 .83.275 1.57.824 2.03.458.462 1.007.647 1.739.647.732 0 1.373-.277 1.83-.739.458-.461.733-1.2.733-2.03 0-.831-.275-1.477-.732-2.031-.55-.37-1.19-.646-1.923-.646zm0 4.524c-.824 0-1.373-.739-1.373-1.846 0-1.108.457-1.846 1.372-1.846.824 0 1.373.738 1.373 1.846 0 1.107-.457 1.846-1.373 1.846zM146.922 59.123h1.098v5.262h-1.098zM147.471 58.292c.366 0 .732-.369.732-.738 0-.37-.274-.739-.732-.739-.457 0-.732.277-.732.739 0 .461.275.738.732.738z"/>
        </g>
        <g>
            <path fill="#152E3A" d="M78 39c0 21.565-17.435 39-39 39S0 60.565 0 39 17.435 0 39 0s39 17.435 39 39"/>
            <path fill="#057DBC" d="M18.261 34.045l27.254.367 6.883 25.143L63.593 8.993z"/>
        </g>
    </g>
</svg>
